<?xml version="1.0" standalone="no"?>
<!DOCTYPE svg PUBLIC "-//W3C//DTD SVG 20010904//EN"
 "http://www.w3.org/TR/2001/REC-SVG-20010904/DTD/svg10.dtd">
<svg version="1.0" xmlns="http://www.w3.org/2000/svg"
 width="856.000000pt" height="856.000000pt" viewBox="0 0 856.000000 856.000000"
 preserveAspectRatio="xMidYMid meet">
<metadata>
Created by potrace 1.14, written by Peter Selinger 2001-2017
</metadata>
<g transform="translate(0.000000,856.000000) scale(0.100000,-0.100000)"
fill="#000000" stroke="none">
<path d="M1808 6915 c-2 -2 -53 -6 -113 -9 -113 -5 -221 -14 -265 -21 -14 -3
-50 -7 -80 -11 -30 -3 -58 -8 -61 -10 -4 -2 -24 -6 -45 -10 -60 -9 -162 -38
-239 -69 -66 -26 -214 -101 -225 -114 -3 -3 -16 -12 -30 -20 -113 -63 -369
-304 -424 -400 -5 -9 -16 -22 -23 -29 -20 -20 -117 -188 -147 -255 -24 -51
-63 -166 -71 -207 -2 -8 -4 -15 -5 -15 -2 0 -7 -26 -15 -70 -3 -16 -9 -55 -15
-85 -16 -89 -26 -186 -37 -355 -14 -221 -8 -2000 7 -2000 1 0 3 -29 5 -65 5
-84 13 -139 35 -260 33 -183 100 -353 192 -493 21 -32 38 -63 38 -68 0 -5 4
-9 8 -9 4 0 15 -12 24 -27 41 -69 195 -229 303 -314 145 -115 321 -212 460
-252 101 -29 163 -45 210 -52 72 -11 123 -19 145 -21 91 -9 149 -14 250 -21
151 -10 4972 -10 5160 0 180 10 250 16 355 32 89 14 211 40 248 54 15 6 27 8
27 5 0 -4 6 -2 13 3 6 6 30 16 52 23 99 32 301 153 420 253 69 58 176 166 220
222 17 21 35 43 40 49 6 6 28 38 49 71 21 33 46 71 56 85 49 71 142 300 155
384 3 17 10 54 15 81 6 28 12 64 14 80 2 17 7 55 11 85 24 187 30 411 30 1200
0 780 -8 1120 -30 1207 -3 12 -8 44 -10 70 -3 27 -7 55 -9 63 -5 25 -17 84
-20 100 -26 137 -104 313 -206 465 -87 131 -172 227 -305 345 -42 37 -44 39
-156 115 -65 43 -251 145 -264 144 -3 0 -25 6 -48 14 -79 27 -112 36 -187 51
-94 19 -144 27 -195 31 -22 2 -67 7 -100 10 -33 4 -91 9 -130 12 -81 7 -5080
15 -5087 8z m878 -1135 c64 -18 121 -71 138 -129 21 -70 14 -113 -36 -221 -37
-81 -69 -130 -85 -130 -7 0 -13 -4 -13 -8 0 -4 -33 -19 -72 -31 -145 -47 -291
-140 -388 -248 -40 -44 -130 -174 -130 -187 0 -3 -11 -30 -25 -61 -14 -30 -31
-81 -37 -113 -6 -31 -14 -62 -19 -67 -8 -11 -5 -584 3 -625 18 -83 83 -251
100 -258 4 -2 8 -8 8 -14 0 -6 22 -40 49 -77 108 -144 240 -240 411 -300 130
-46 151 -66 208 -201 22 -52 26 -66 36 -130 6 -41 -21 -111 -55 -146 -58 -60
-100 -67 -383 -65 -310 2 -471 10 -548 27 -90 20 -112 27 -167 51 -153 68
-300 212 -383 378 -32 62 -65 194 -75 300 -11 106 -10 1420 0 1510 13 111 18
135 39 204 49 164 163 313 318 416 57 37 123 72 155 81 144 38 171 42 385 50
91 4 166 7 167 8 10 8 365 -5 399 -14z m3778 6 c268 -11 387 -42 526 -136 65
-44 200 -177 200 -197 0 -7 4 -13 8 -13 11 0 87 -147 100 -195 16 -56 25 -97
27 -120 1 -11 6 -51 11 -90 10 -81 11 -1433 0 -1515 -26 -210 -50 -280 -149
-417 -131 -183 -326 -295 -557 -319 -169 -17 -698 -21 -756 -5 -54 14 -120 72
-135 119 -23 70 -17 123 27 220 13 29 24 56 24 61 0 18 81 99 105 105 14 4 26
6 27 4 2 -1 14 5 28 12 14 8 33 15 42 17 24 4 165 80 208 112 157 117 292 320
326 491 2 8 8 38 13 65 16 80 12 539 -5 615 -8 36 -17 75 -19 88 -3 12 -17 48
-32 80 -14 31 -27 64 -29 72 -2 8 -8 16 -13 18 -6 2 -11 8 -11 13 0 21 -75
118 -140 180 -108 105 -172 143 -373 219 -39 15 -69 36 -92 63 -19 22 -35 44
-35 49 0 4 -13 37 -30 73 -51 112 -41 215 27 275 42 38 72 50 138 59 57 7 329
6 539 -3z"/>
</g>
</svg>
