<svg width="320" height="320" viewBox="0 0 320 320" fill="none" xmlns="http://www.w3.org/2000/svg">
<path d="M233.043 260.87C233.043 263.128 235.104 264.837 237.264 264.179C243.241 262.358 248.631 259.192 253.082 255.033C254.729 253.495 254.282 250.86 252.33 249.733C248.7 247.638 247.457 242.996 249.552 239.367C251.648 235.737 256.289 234.493 259.919 236.589C261.876 237.719 264.387 236.786 264.895 234.585C265.571 231.65 265.929 228.594 265.929 225.455C265.929 222.314 265.571 219.256 264.894 216.321C264.386 214.12 261.876 213.188 259.92 214.318C256.29 216.413 251.648 215.17 249.553 211.54C247.457 207.91 248.701 203.269 252.331 201.173C254.282 200.047 254.728 197.414 253.082 195.876C248.631 191.717 243.241 188.551 237.264 186.73C235.104 186.072 233.043 187.781 233.043 190.04C233.043 194.231 229.646 197.628 225.455 197.628C221.263 197.628 217.866 194.231 217.866 190.04C217.866 187.781 215.805 186.072 213.645 186.73C207.668 188.551 202.278 191.717 197.827 195.876C196.181 197.414 196.627 200.047 198.578 201.174C202.208 203.269 203.452 207.911 201.356 211.54C199.261 215.17 194.619 216.414 190.99 214.318C189.033 213.189 186.523 214.121 186.015 216.322C185.338 219.257 184.98 222.314 184.98 225.455C184.98 228.594 185.338 231.65 186.014 234.584C186.522 236.786 189.033 237.718 190.99 236.588C194.62 234.493 199.261 235.736 201.357 239.366C203.452 242.996 202.209 247.637 198.579 249.733C196.627 250.86 196.18 253.495 197.827 255.033C202.278 259.192 207.668 262.358 213.645 264.179C215.805 264.837 217.866 263.128 217.866 260.87C217.866 256.678 221.263 253.281 225.455 253.281C229.646 253.281 233.043 256.678 233.043 260.87Z" fill="#39C4FF"/>
<path fill-rule="evenodd" clip-rule="evenodd" d="M10.0832 57.6409C0 78.5788 0 105.719 0 160C0 214.281 0 241.421 10.0832 262.359C20.0912 283.141 36.8591 299.909 57.6409 309.917C78.5788 320 105.719 320 160 320C214.281 320 241.421 320 262.359 309.917C283.141 299.909 299.909 283.141 309.917 262.359C320 241.421 320 214.281 320 160C320 105.719 320 78.5788 309.917 57.6409C299.909 36.8591 283.141 20.0912 262.359 10.0832C241.421 0 214.281 0 160 0C105.719 0 78.5788 0 57.6409 10.0832C36.8591 20.0912 20.0912 36.8591 10.0832 57.6409ZM283.636 225.455C283.636 257.587 257.587 283.636 225.455 283.636C193.322 283.636 167.273 257.587 167.273 225.455C167.273 193.322 193.322 167.273 225.455 167.273C257.587 167.273 283.636 193.322 283.636 225.455Z" fill="#39C4FF"/>
</svg>
