<svg width="482" height="160" viewBox="0 0 482 160" fill="none" xmlns="http://www.w3.org/2000/svg">
<path fill-rule="evenodd" clip-rule="evenodd" d="M-16.1595 -18.7881C-18 -15.1792 -18 -10.4548 -18 -1.0061C-18 8.44263 -18 13.167 -16.1595 16.7759C-14.5406 19.9504 -11.9574 22.5314 -8.78011 24.1489C-5.16801 25.9877 -0.439503 25.9877 9.01751 25.9877H42.508C51.965 25.9877 56.6935 25.9877 60.3056 24.1489C63.4829 22.5314 66.0661 19.9504 67.685 16.7759C69.5255 13.167 69.5255 8.44263 69.5255 -1.0061C69.5255 -10.4548 69.5255 -15.1792 67.685 -18.7881C66.0661 -21.9626 63.4829 -24.5436 60.3056 -26.1611C56.6935 -27.9999 51.965 -27.9999 42.508 -27.9999H9.01751C-0.439503 -27.9999 -5.16801 -27.9999 -8.78011 -26.1611C-11.9574 -24.5436 -14.5406 -21.9626 -16.1595 -18.7881ZM8.94868 9.06854C9.51665 9.22829 10.0057 9.61102 10.2479 10.1486C10.6245 10.9845 10.8129 11.4028 10.8544 11.5374C11.3172 13.0388 10.5435 14.2458 8.99287 14.4416C8.85389 14.4591 8.49601 14.4591 7.78025 14.4591C3.09078 14.4591 0.746046 14.4591 -1.04509 13.5411C-2.62062 12.7337 -3.90157 11.4452 -4.70434 9.86045C-5.61697 8.05881 -5.61697 5.70033 -5.61697 0.983377V-2.99557C-5.61697 -7.71253 -5.61697 -10.071 -4.70434 -11.8726C-3.90157 -13.4574 -2.62062 -14.7459 -1.04509 -15.5533C0.746046 -16.4713 3.09078 -16.4713 7.78025 -16.4713C8.49607 -16.4713 8.85398 -16.4713 8.99297 -16.4538C10.5436 -16.258 11.3172 -15.0511 10.8545 -13.5496C10.813 -13.415 10.6246 -12.9968 10.2479 -12.1607C10.0057 -11.6232 9.51675 -11.2405 8.94884 -11.0808C5.64533 -10.1517 3.14301 -7.35925 2.63687 -3.89732C2.54457 -3.26599 2.54457 -2.5127 2.54457 -1.0061C2.54457 0.5005 2.54457 1.2538 2.63687 1.88512C3.143 5.347 5.64525 8.13943 8.94868 9.06854ZM41.2776 10.1486C41.5198 9.61102 42.0088 9.22829 42.5768 9.06854C45.8802 8.13943 48.3825 5.347 48.8886 1.88512C48.9809 1.2538 48.9809 0.5005 48.9809 -1.0061C48.9809 -2.5127 48.9809 -3.26599 48.8886 -3.89732C48.3825 -7.35925 45.8802 -10.1517 42.5766 -11.0808C42.0087 -11.2405 41.5197 -11.6232 41.2776 -12.1607C40.9009 -12.9969 40.7125 -13.415 40.671 -13.5496C40.2083 -15.0511 40.9819 -16.258 42.5325 -16.4538C42.6715 -16.4713 43.0294 -16.4713 43.7452 -16.4713C48.4347 -16.4713 50.7794 -16.4713 52.5706 -15.5533C54.1461 -14.7459 55.427 -13.4574 56.2298 -11.8726C57.1425 -10.071 57.1425 -7.71253 57.1425 -2.99557V0.983377C57.1425 5.70033 57.1425 8.05881 56.2298 9.86045C55.427 11.4452 54.1461 12.7337 52.5706 13.5411C50.7794 14.4591 48.4347 14.4591 43.7452 14.4591C43.0295 14.4591 42.6716 14.4591 42.5326 14.4416C40.982 14.2458 40.2083 13.0388 40.6711 11.5374C40.7126 11.4029 40.9007 10.9851 41.2771 10.1498L41.2776 10.1486Z" fill="url(#paint0_linear_161_2831)" fill-opacity="0.2"/>
<path fill-rule="evenodd" clip-rule="evenodd" d="M86.9186 -18.7882C85.0781 -15.1793 85.0781 -10.4549 85.0781 -1.00616C85.0781 8.44257 85.0781 13.1669 86.9186 16.7759C88.5375 19.9504 91.1207 22.5313 94.298 24.1488C97.9101 25.9877 102.639 25.9877 112.096 25.9877H145.586C155.043 25.9877 159.772 25.9877 163.384 24.1488C166.561 22.5313 169.144 19.9504 170.763 16.7759C172.604 13.1669 172.604 8.44257 172.604 -1.00616C172.604 -10.4549 172.604 -15.1793 170.763 -18.7882C169.144 -21.9627 166.561 -24.5437 163.384 -26.1612C159.772 -28 155.043 -28 145.586 -28H112.096C102.639 -28 97.9101 -28 94.298 -26.1612C91.1207 -24.5437 88.5375 -21.9627 86.9186 -18.7882ZM112.027 9.06848C112.595 9.22823 113.084 9.61095 113.326 10.1485C113.703 10.9845 113.891 11.4028 113.933 11.5373C114.395 13.0388 113.622 14.2458 112.071 14.4415C111.932 14.4591 111.574 14.4591 110.858 14.4591C106.169 14.4591 103.824 14.4591 102.033 13.5411C100.458 12.7336 99.1766 11.4451 98.3738 9.86038C97.4612 8.05874 97.4612 5.70027 97.4612 0.983315V-2.99563C97.4612 -7.71259 97.4612 -10.0711 98.3738 -11.8727C99.1766 -13.4575 100.458 -14.7459 102.033 -15.5534C103.824 -16.4714 106.169 -16.4714 110.858 -16.4714C111.574 -16.4714 111.932 -16.4714 112.071 -16.4538C113.622 -16.2581 114.395 -15.0511 113.933 -13.5497C113.891 -13.4151 113.703 -12.9968 113.326 -12.1608C113.084 -11.6233 112.595 -11.2406 112.027 -11.0808C108.723 -10.1518 106.221 -7.35932 105.715 -3.89738C105.623 -3.26606 105.623 -2.51276 105.623 -1.00616C105.623 0.500439 105.623 1.25374 105.715 1.88506C106.221 5.34694 108.723 8.13937 112.027 9.06848ZM144.356 10.1485C144.598 9.61095 145.087 9.22823 145.655 9.06848C148.958 8.13937 151.461 5.34694 151.967 1.88506C152.059 1.25374 152.059 0.500439 152.059 -1.00616C152.059 -2.51276 152.059 -3.26606 151.967 -3.89738C151.461 -7.35932 148.958 -10.1518 145.655 -11.0808C145.087 -11.2406 144.598 -11.6233 144.356 -12.1608C143.979 -12.997 143.791 -13.4151 143.749 -13.5497C143.286 -15.0511 144.06 -16.2581 145.611 -16.4538C145.75 -16.4714 146.108 -16.4714 146.823 -16.4714C151.513 -16.4714 153.858 -16.4714 155.649 -15.5534C157.224 -14.7459 158.505 -13.4575 159.308 -11.8727C160.221 -10.0711 160.221 -7.71259 160.221 -2.99563V0.983315C160.221 5.70027 160.221 8.05874 159.308 9.86038C158.505 11.4451 157.224 12.7336 155.649 13.5411C153.858 14.4591 151.513 14.4591 146.823 14.4591C146.108 14.4591 145.75 14.4591 145.611 14.4415C144.06 14.2458 143.286 13.0388 143.749 11.5373C143.791 11.4028 143.979 10.9851 144.355 10.1497L144.356 10.1485Z" fill="url(#paint1_linear_161_2831)" fill-opacity="0.2"/>
<path fill-rule="evenodd" clip-rule="evenodd" d="M190.005 -18.7882C188.164 -15.1793 188.164 -10.4549 188.164 -1.00616C188.164 8.44257 188.164 13.1669 190.005 16.7759C191.623 19.9504 194.207 22.5313 197.384 24.1488C200.996 25.9877 205.725 25.9877 215.182 25.9877H248.672C258.129 25.9877 262.858 25.9877 266.47 24.1488C269.647 22.5313 272.23 19.9504 273.849 16.7759C275.69 13.1669 275.69 8.44257 275.69 -1.00616C275.69 -10.4549 275.69 -15.1793 273.849 -18.7882C272.23 -21.9627 269.647 -24.5437 266.47 -26.1612C262.858 -28 258.129 -28 248.672 -28H215.182C205.725 -28 200.996 -28 197.384 -26.1612C194.207 -24.5437 191.623 -21.9627 190.005 -18.7882ZM215.113 9.06848C215.681 9.22823 216.17 9.61095 216.412 10.1485C216.789 10.9845 216.977 11.4028 217.018 11.5373C217.481 13.0388 216.708 14.2458 215.157 14.4415C215.018 14.4591 214.66 14.4591 213.944 14.4591C209.255 14.4591 206.91 14.4591 205.119 13.5411C203.543 12.7336 202.262 11.4451 201.46 9.86038C200.547 8.05874 200.547 5.70027 200.547 0.983315V-2.99563C200.547 -7.71259 200.547 -10.0711 201.46 -11.8727C202.262 -13.4575 203.543 -14.7459 205.119 -15.5534C206.91 -16.4714 209.255 -16.4714 213.944 -16.4714C214.66 -16.4714 215.018 -16.4714 215.157 -16.4538C216.708 -16.2581 217.481 -15.0511 217.019 -13.5497C216.977 -13.4151 216.789 -12.9968 216.412 -12.1608C216.17 -11.6233 215.681 -11.2406 215.113 -11.0808C211.809 -10.1518 209.307 -7.35932 208.801 -3.89738C208.709 -3.26606 208.709 -2.51276 208.709 -1.00616C208.709 0.500439 208.709 1.25374 208.801 1.88506C209.307 5.34694 211.809 8.13937 215.113 9.06848ZM247.442 10.1485C247.684 9.61095 248.173 9.22823 248.741 9.06848C252.044 8.13937 254.547 5.34694 255.053 1.88506C255.145 1.25374 255.145 0.500439 255.145 -1.00616C255.145 -2.51276 255.145 -3.26606 255.053 -3.89738C254.547 -7.35932 252.044 -10.1518 248.741 -11.0808C248.173 -11.2406 247.684 -11.6233 247.442 -12.1608C247.065 -12.997 246.877 -13.4151 246.835 -13.5497C246.372 -15.0511 247.146 -16.2581 248.697 -16.4538C248.836 -16.4714 249.193 -16.4714 249.909 -16.4714C254.599 -16.4714 256.944 -16.4714 258.735 -15.5534C260.31 -14.7459 261.591 -13.4575 262.394 -11.8727C263.307 -10.0711 263.307 -7.71259 263.307 -2.99563V0.983315C263.307 5.70027 263.307 8.05874 262.394 9.86038C261.591 11.4451 260.31 12.7336 258.735 13.5411C256.944 14.4591 254.599 14.4591 249.909 14.4591C249.194 14.4591 248.836 14.4591 248.697 14.4415C247.146 14.2458 246.372 13.0388 246.835 11.5373C246.877 11.4028 247.065 10.9851 247.441 10.1497L247.442 10.1485Z" fill="url(#paint2_linear_161_2831)" fill-opacity="0.2"/>
<path fill-rule="evenodd" clip-rule="evenodd" d="M293.083 -18.7882C291.242 -15.1793 291.242 -10.4549 291.242 -1.00616C291.242 8.44257 291.242 13.1669 293.083 16.7759C294.702 19.9504 297.285 22.5313 300.462 24.1488C304.074 25.9877 308.803 25.9877 318.26 25.9877H351.75C361.207 25.9877 365.936 25.9877 369.548 24.1488C372.725 22.5313 375.308 19.9504 376.927 16.7759C378.768 13.1669 378.768 8.44257 378.768 -1.00616C378.768 -10.4549 378.768 -15.1793 376.927 -18.7882C375.308 -21.9627 372.725 -24.5437 369.548 -26.1612C365.936 -28 361.207 -28 351.75 -28H318.26C308.803 -28 304.074 -28 300.462 -26.1612C297.285 -24.5437 294.702 -21.9627 293.083 -18.7882ZM318.191 9.06848C318.759 9.22823 319.248 9.61095 319.49 10.1485C319.867 10.9845 320.055 11.4028 320.097 11.5373C320.559 13.0388 319.786 14.2458 318.235 14.4415C318.096 14.4591 317.738 14.4591 317.022 14.4591C312.333 14.4591 309.988 14.4591 308.197 13.5411C306.622 12.7336 305.341 11.4451 304.538 9.86038C303.625 8.05874 303.625 5.70027 303.625 0.983315V-2.99563C303.625 -7.71259 303.625 -10.0711 304.538 -11.8727C305.341 -13.4575 306.622 -14.7459 308.197 -15.5534C309.988 -16.4714 312.333 -16.4714 317.022 -16.4714C317.738 -16.4714 318.096 -16.4714 318.235 -16.4538C319.786 -16.2581 320.559 -15.0511 320.097 -13.5497C320.055 -13.4151 319.867 -12.9968 319.49 -12.1608C319.248 -11.6233 318.759 -11.2406 318.191 -11.0808C314.888 -10.1518 312.385 -7.35932 311.879 -3.89738C311.787 -3.26606 311.787 -2.51276 311.787 -1.00616C311.787 0.500439 311.787 1.25374 311.879 1.88506C312.385 5.34694 314.887 8.13937 318.191 9.06848ZM350.52 10.1485C350.762 9.61095 351.251 9.22823 351.819 9.06848C355.122 8.13937 357.625 5.34694 358.131 1.88506C358.223 1.25374 358.223 0.500439 358.223 -1.00616C358.223 -2.51276 358.223 -3.26606 358.131 -3.89738C357.625 -7.35932 355.122 -10.1518 351.819 -11.0808C351.251 -11.2406 350.762 -11.6233 350.52 -12.1608C350.143 -12.997 349.955 -13.4151 349.913 -13.5497C349.45 -15.0511 350.224 -16.2581 351.775 -16.4538C351.914 -16.4714 352.272 -16.4714 352.987 -16.4714C357.677 -16.4714 360.022 -16.4714 361.813 -15.5534C363.388 -14.7459 364.669 -13.4575 365.472 -11.8727C366.385 -10.0711 366.385 -7.71259 366.385 -2.99563V0.983315C366.385 5.70027 366.385 8.05874 365.472 9.86038C364.669 11.4451 363.388 12.7336 361.813 13.5411C360.022 14.4591 357.677 14.4591 352.987 14.4591C352.272 14.4591 351.914 14.4591 351.775 14.4415C350.224 14.2458 349.451 13.0388 349.913 11.5373C349.955 11.4028 350.143 10.9851 350.519 10.1497L350.52 10.1485Z" fill="url(#paint3_linear_161_2831)" fill-opacity="0.2"/>
<path fill-rule="evenodd" clip-rule="evenodd" d="M396.165 -18.7882C394.324 -15.1793 394.324 -10.4549 394.324 -1.00616C394.324 8.44257 394.324 13.1669 396.165 16.7759C397.784 19.9504 400.367 22.5313 403.544 24.1488C407.156 25.9877 411.885 25.9877 421.342 25.9877H454.832C464.289 25.9877 469.018 25.9877 472.63 24.1488C475.807 22.5313 478.39 19.9504 480.009 16.7759C481.85 13.1669 481.85 8.44257 481.85 -1.00616C481.85 -10.4549 481.85 -15.1793 480.009 -18.7882C478.39 -21.9627 475.807 -24.5437 472.63 -26.1612C469.018 -28 464.289 -28 454.832 -28H421.342C411.885 -28 407.156 -28 403.544 -26.1612C400.367 -24.5437 397.784 -21.9627 396.165 -18.7882ZM421.273 9.06848C421.841 9.22823 422.33 9.61095 422.572 10.1485C422.949 10.9845 423.137 11.4028 423.179 11.5373C423.641 13.0388 422.868 14.2458 421.317 14.4415C421.178 14.4591 420.82 14.4591 420.104 14.4591C415.415 14.4591 413.07 14.4591 411.279 13.5411C409.704 12.7336 408.423 11.4451 407.62 9.86038C406.707 8.05874 406.707 5.70027 406.707 0.983315V-2.99563C406.707 -7.71259 406.707 -10.0711 407.62 -11.8727C408.423 -13.4575 409.704 -14.7459 411.279 -15.5534C413.07 -16.4714 415.415 -16.4714 420.104 -16.4714C420.82 -16.4714 421.178 -16.4714 421.317 -16.4538C422.868 -16.2581 423.641 -15.0511 423.179 -13.5497C423.137 -13.4151 422.949 -12.9968 422.572 -12.1608C422.33 -11.6233 421.841 -11.2406 421.273 -11.0808C417.97 -10.1518 415.467 -7.35932 414.961 -3.89738C414.869 -3.26606 414.869 -2.51276 414.869 -1.00616C414.869 0.500439 414.869 1.25374 414.961 1.88506C415.467 5.34694 417.969 8.13937 421.273 9.06848ZM453.602 10.1485C453.844 9.61095 454.333 9.22823 454.901 9.06848C458.204 8.13937 460.707 5.34694 461.213 1.88506C461.305 1.25374 461.305 0.500439 461.305 -1.00616C461.305 -2.51276 461.305 -3.26606 461.213 -3.89738C460.707 -7.35932 458.204 -10.1518 454.901 -11.0808C454.333 -11.2406 453.844 -11.6233 453.602 -12.1608C453.225 -12.997 453.037 -13.4151 452.995 -13.5497C452.533 -15.0511 453.306 -16.2581 454.857 -16.4538C454.996 -16.4714 455.354 -16.4714 456.069 -16.4714C460.759 -16.4714 463.104 -16.4714 464.895 -15.5534C466.47 -14.7459 467.751 -13.4575 468.554 -11.8727C469.467 -10.0711 469.467 -7.71259 469.467 -2.99563V0.983315C469.467 5.70027 469.467 8.05874 468.554 9.86038C467.751 11.4451 466.47 12.7336 464.895 13.5411C463.104 14.4591 460.759 14.4591 456.069 14.4591C455.354 14.4591 454.996 14.4591 454.857 14.4415C453.306 14.2458 452.533 13.0388 452.995 11.5373C453.037 11.4028 453.225 10.9851 453.601 10.1497L453.602 10.1485Z" fill="url(#paint4_linear_161_2831)" fill-opacity="0.2"/>
<path fill-rule="evenodd" clip-rule="evenodd" d="M-16.1595 54.2196C-18 57.8286 -18 62.5529 -18 72.0017C-18 81.4504 -18 86.1747 -16.1595 89.7837C-14.5406 92.9582 -11.9574 95.5392 -8.78011 97.1566C-5.16801 98.9955 -0.439503 98.9955 9.01751 98.9955H42.508C51.965 98.9955 56.6935 98.9955 60.3056 97.1566C63.4829 95.5392 66.0661 92.9582 67.685 89.7837C69.5255 86.1747 69.5255 81.4504 69.5255 72.0017C69.5255 62.5529 69.5255 57.8286 67.685 54.2196C66.0661 51.0451 63.4829 48.4641 60.3056 46.8467C56.6935 45.0078 51.965 45.0078 42.508 45.0078H9.01751C-0.439503 45.0078 -5.16801 45.0078 -8.78011 46.8467C-11.9574 48.4641 -14.5406 51.0451 -16.1595 54.2196ZM8.94868 82.0763C9.51665 82.236 10.0057 82.6188 10.2479 83.1563C10.6245 83.9923 10.8129 84.4106 10.8544 84.5452C11.3172 86.0466 10.5435 87.2536 8.99287 87.4493C8.85389 87.4669 8.49601 87.4669 7.78025 87.4669C3.09078 87.4669 0.746046 87.4669 -1.04509 86.5489C-2.62062 85.7414 -3.90157 84.453 -4.70434 82.8682C-5.61697 81.0666 -5.61697 78.7081 -5.61697 73.9911V70.0122C-5.61697 65.2952 -5.61697 62.9367 -4.70434 61.1351C-3.90157 59.5503 -2.62062 58.2619 -1.04509 57.4544C0.746046 56.5364 3.09078 56.5364 7.78025 56.5364C8.49607 56.5364 8.85398 56.5364 8.99297 56.554C10.5436 56.7497 11.3172 57.9567 10.8545 59.4581C10.813 59.5927 10.6246 60.011 10.2479 60.847C10.0057 61.3846 9.51675 61.7673 8.94884 61.927C5.64533 62.856 3.14301 65.6485 2.63687 69.1104C2.54457 69.7418 2.54457 70.4951 2.54457 72.0017C2.54457 73.5083 2.54457 74.2616 2.63687 74.8929C3.143 78.3548 5.64525 81.1472 8.94868 82.0763ZM41.2776 83.1563C41.5198 82.6188 42.0088 82.236 42.5768 82.0763C45.8802 81.1472 48.3825 78.3548 48.8886 74.8929C48.9809 74.2616 48.9809 73.5083 48.9809 72.0017C48.9809 70.4951 48.9809 69.7418 48.8886 69.1104C48.3825 65.6485 45.8802 62.856 42.5766 61.927C42.0087 61.7673 41.5197 61.3846 41.2776 60.847C40.9009 60.0108 40.7125 59.5927 40.671 59.4581C40.2083 57.9567 40.9819 56.7497 42.5325 56.554C42.6715 56.5364 43.0294 56.5364 43.7452 56.5364C48.4347 56.5364 50.7794 56.5364 52.5706 57.4544C54.1461 58.2619 55.427 59.5503 56.2298 61.1351C57.1425 62.9367 57.1425 65.2952 57.1425 70.0122V73.9911C57.1425 78.7081 57.1425 81.0666 56.2298 82.8682C55.427 84.453 54.1461 85.7414 52.5706 86.5489C50.7794 87.4669 48.4347 87.4669 43.7452 87.4669C43.0295 87.4669 42.6716 87.4669 42.5326 87.4493C40.982 87.2536 40.2083 86.0466 40.6711 84.5452C40.7126 84.4106 40.9007 83.9929 41.2771 83.1575L41.2776 83.1563Z" fill="url(#paint5_linear_161_2831)" fill-opacity="0.2"/>
<path fill-rule="evenodd" clip-rule="evenodd" d="M86.9186 54.2196C85.0781 57.8286 85.0781 62.5529 85.0781 72.0017C85.0781 81.4504 85.0781 86.1747 86.9186 89.7837C88.5375 92.9582 91.1207 95.5392 94.298 97.1566C97.9101 98.9955 102.639 98.9955 112.096 98.9955H145.586C155.043 98.9955 159.772 98.9955 163.384 97.1566C166.561 95.5392 169.144 92.9582 170.763 89.7837C172.604 86.1747 172.604 81.4504 172.604 72.0017C172.604 62.5529 172.604 57.8286 170.763 54.2196C169.144 51.0451 166.561 48.4641 163.384 46.8467C159.772 45.0078 155.043 45.0078 145.586 45.0078H112.096C102.639 45.0078 97.9101 45.0078 94.298 46.8467C91.1207 48.4641 88.5375 51.0451 86.9186 54.2196ZM112.027 82.0763C112.595 82.236 113.084 82.6188 113.326 83.1563C113.703 83.9923 113.891 84.4106 113.933 84.5452C114.395 86.0466 113.622 87.2536 112.071 87.4493C111.932 87.4669 111.574 87.4669 110.858 87.4669C106.169 87.4669 103.824 87.4669 102.033 86.5489C100.458 85.7414 99.1766 84.453 98.3738 82.8682C97.4612 81.0666 97.4612 78.7081 97.4612 73.9911V70.0122C97.4612 65.2952 97.4612 62.9367 98.3738 61.1351C99.1766 59.5503 100.458 58.2619 102.033 57.4544C103.824 56.5364 106.169 56.5364 110.858 56.5364C111.574 56.5364 111.932 56.5364 112.071 56.554C113.622 56.7497 114.395 57.9567 113.933 59.4581C113.891 59.5927 113.703 60.011 113.326 60.847C113.084 61.3846 112.595 61.7673 112.027 61.927C108.723 62.856 106.221 65.6485 105.715 69.1104C105.623 69.7418 105.623 70.4951 105.623 72.0017C105.623 73.5083 105.623 74.2616 105.715 74.8929C106.221 78.3548 108.723 81.1472 112.027 82.0763ZM144.356 83.1563C144.598 82.6188 145.087 82.236 145.655 82.0763C148.958 81.1472 151.461 78.3548 151.967 74.8929C152.059 74.2616 152.059 73.5083 152.059 72.0017C152.059 70.4951 152.059 69.7418 151.967 69.1104C151.461 65.6485 148.958 62.856 145.655 61.927C145.087 61.7673 144.598 61.3846 144.356 60.847C143.979 60.0108 143.791 59.5927 143.749 59.4581C143.286 57.9567 144.06 56.7497 145.611 56.554C145.75 56.5364 146.108 56.5364 146.823 56.5364C151.513 56.5364 153.858 56.5364 155.649 57.4544C157.224 58.2619 158.505 59.5503 159.308 61.1351C160.221 62.9367 160.221 65.2952 160.221 70.0122V73.9911C160.221 78.7081 160.221 81.0666 159.308 82.8682C158.505 84.453 157.224 85.7414 155.649 86.5489C153.858 87.4669 151.513 87.4669 146.823 87.4669C146.108 87.4669 145.75 87.4669 145.611 87.4493C144.06 87.2536 143.286 86.0466 143.749 84.5452C143.791 84.4106 143.979 83.9929 144.355 83.1575L144.356 83.1563Z" fill="url(#paint6_linear_161_2831)" fill-opacity="0.2"/>
<path fill-rule="evenodd" clip-rule="evenodd" d="M190.005 54.2196C188.164 57.8286 188.164 62.5529 188.164 72.0017C188.164 81.4504 188.164 86.1747 190.005 89.7837C191.623 92.9582 194.207 95.5392 197.384 97.1566C200.996 98.9955 205.725 98.9955 215.182 98.9955H248.672C258.129 98.9955 262.858 98.9955 266.47 97.1566C269.647 95.5392 272.23 92.9582 273.849 89.7837C275.69 86.1747 275.69 81.4504 275.69 72.0017C275.69 62.5529 275.69 57.8286 273.849 54.2196C272.23 51.0451 269.647 48.4641 266.47 46.8467C262.858 45.0078 258.129 45.0078 248.672 45.0078H215.182C205.725 45.0078 200.996 45.0078 197.384 46.8467C194.207 48.4641 191.623 51.0451 190.005 54.2196ZM215.113 82.0763C215.681 82.236 216.17 82.6188 216.412 83.1563C216.789 83.9923 216.977 84.4106 217.018 84.5452C217.481 86.0466 216.708 87.2536 215.157 87.4493C215.018 87.4669 214.66 87.4669 213.944 87.4669C209.255 87.4669 206.91 87.4669 205.119 86.5489C203.543 85.7414 202.262 84.453 201.46 82.8682C200.547 81.0666 200.547 78.7081 200.547 73.9911V70.0122C200.547 65.2952 200.547 62.9367 201.46 61.1351C202.262 59.5503 203.543 58.2619 205.119 57.4544C206.91 56.5364 209.255 56.5364 213.944 56.5364C214.66 56.5364 215.018 56.5364 215.157 56.554C216.708 56.7497 217.481 57.9567 217.019 59.4581C216.977 59.5927 216.789 60.011 216.412 60.847C216.17 61.3846 215.681 61.7673 215.113 61.927C211.809 62.856 209.307 65.6485 208.801 69.1104C208.709 69.7418 208.709 70.4951 208.709 72.0017C208.709 73.5083 208.709 74.2616 208.801 74.8929C209.307 78.3548 211.809 81.1472 215.113 82.0763ZM247.442 83.1563C247.684 82.6188 248.173 82.236 248.741 82.0763C252.044 81.1472 254.547 78.3548 255.053 74.8929C255.145 74.2616 255.145 73.5083 255.145 72.0017C255.145 70.4951 255.145 69.7418 255.053 69.1104C254.547 65.6485 252.044 62.856 248.741 61.927C248.173 61.7673 247.684 61.3846 247.442 60.847C247.065 60.0108 246.877 59.5927 246.835 59.4581C246.372 57.9567 247.146 56.7497 248.697 56.554C248.836 56.5364 249.193 56.5364 249.909 56.5364C254.599 56.5364 256.944 56.5364 258.735 57.4544C260.31 58.2619 261.591 59.5503 262.394 61.1351C263.307 62.9367 263.307 65.2952 263.307 70.0122V73.9911C263.307 78.7081 263.307 81.0666 262.394 82.8682C261.591 84.453 260.31 85.7414 258.735 86.5489C256.944 87.4669 254.599 87.4669 249.909 87.4669C249.194 87.4669 248.836 87.4669 248.697 87.4493C247.146 87.2536 246.372 86.0466 246.835 84.5452C246.877 84.4106 247.065 83.9929 247.441 83.1575L247.442 83.1563Z" fill="url(#paint7_linear_161_2831)" fill-opacity="0.2"/>
<path fill-rule="evenodd" clip-rule="evenodd" d="M293.083 54.2196C291.242 57.8286 291.242 62.5529 291.242 72.0017C291.242 81.4504 291.242 86.1747 293.083 89.7837C294.702 92.9582 297.285 95.5392 300.462 97.1566C304.074 98.9955 308.803 98.9955 318.26 98.9955H351.75C361.207 98.9955 365.936 98.9955 369.548 97.1566C372.725 95.5392 375.308 92.9582 376.927 89.7837C378.768 86.1747 378.768 81.4504 378.768 72.0017C378.768 62.5529 378.768 57.8286 376.927 54.2196C375.308 51.0451 372.725 48.4641 369.548 46.8467C365.936 45.0078 361.207 45.0078 351.75 45.0078H318.26C308.803 45.0078 304.074 45.0078 300.462 46.8467C297.285 48.4641 294.702 51.0451 293.083 54.2196ZM318.191 82.0763C318.759 82.236 319.248 82.6188 319.49 83.1563C319.867 83.9923 320.055 84.4106 320.097 84.5452C320.559 86.0466 319.786 87.2536 318.235 87.4493C318.096 87.4669 317.738 87.4669 317.022 87.4669C312.333 87.4669 309.988 87.4669 308.197 86.5489C306.622 85.7414 305.341 84.453 304.538 82.8682C303.625 81.0666 303.625 78.7081 303.625 73.9911V70.0122C303.625 65.2952 303.625 62.9367 304.538 61.1351C305.341 59.5503 306.622 58.2619 308.197 57.4544C309.988 56.5364 312.333 56.5364 317.022 56.5364C317.738 56.5364 318.096 56.5364 318.235 56.554C319.786 56.7497 320.559 57.9567 320.097 59.4581C320.055 59.5927 319.867 60.011 319.49 60.847C319.248 61.3846 318.759 61.7673 318.191 61.927C314.888 62.856 312.385 65.6485 311.879 69.1104C311.787 69.7418 311.787 70.4951 311.787 72.0017C311.787 73.5083 311.787 74.2616 311.879 74.8929C312.385 78.3548 314.887 81.1472 318.191 82.0763ZM350.52 83.1563C350.762 82.6188 351.251 82.236 351.819 82.0763C355.122 81.1472 357.625 78.3548 358.131 74.8929C358.223 74.2616 358.223 73.5083 358.223 72.0017C358.223 70.4951 358.223 69.7418 358.131 69.1104C357.625 65.6485 355.122 62.856 351.819 61.927C351.251 61.7673 350.762 61.3846 350.52 60.847C350.143 60.0108 349.955 59.5927 349.913 59.4581C349.45 57.9567 350.224 56.7497 351.775 56.554C351.914 56.5364 352.272 56.5364 352.987 56.5364C357.677 56.5364 360.022 56.5364 361.813 57.4544C363.388 58.2619 364.669 59.5503 365.472 61.1351C366.385 62.9367 366.385 65.2952 366.385 70.0122V73.9911C366.385 78.7081 366.385 81.0666 365.472 82.8682C364.669 84.453 363.388 85.7414 361.813 86.5489C360.022 87.4669 357.677 87.4669 352.987 87.4669C352.272 87.4669 351.914 87.4669 351.775 87.4493C350.224 87.2536 349.451 86.0466 349.913 84.5452C349.955 84.4106 350.143 83.9929 350.519 83.1575L350.52 83.1563Z" fill="url(#paint8_linear_161_2831)" fill-opacity="0.2"/>
<path fill-rule="evenodd" clip-rule="evenodd" d="M396.165 54.2196C394.324 57.8286 394.324 62.5529 394.324 72.0017C394.324 81.4504 394.324 86.1747 396.165 89.7837C397.784 92.9582 400.367 95.5392 403.544 97.1566C407.156 98.9955 411.885 98.9955 421.342 98.9955H454.832C464.289 98.9955 469.018 98.9955 472.63 97.1566C475.807 95.5392 478.39 92.9582 480.009 89.7837C481.85 86.1747 481.85 81.4504 481.85 72.0017C481.85 62.5529 481.85 57.8286 480.009 54.2196C478.39 51.0451 475.807 48.4641 472.63 46.8467C469.018 45.0078 464.289 45.0078 454.832 45.0078H421.342C411.885 45.0078 407.156 45.0078 403.544 46.8467C400.367 48.4641 397.784 51.0451 396.165 54.2196ZM421.273 82.0763C421.841 82.236 422.33 82.6188 422.572 83.1563C422.949 83.9923 423.137 84.4106 423.179 84.5452C423.641 86.0466 422.868 87.2536 421.317 87.4493C421.178 87.4669 420.82 87.4669 420.104 87.4669C415.415 87.4669 413.07 87.4669 411.279 86.5489C409.704 85.7414 408.423 84.453 407.62 82.8682C406.707 81.0666 406.707 78.7081 406.707 73.9911V70.0122C406.707 65.2952 406.707 62.9367 407.62 61.1351C408.423 59.5503 409.704 58.2619 411.279 57.4544C413.07 56.5364 415.415 56.5364 420.104 56.5364C420.82 56.5364 421.178 56.5364 421.317 56.554C422.868 56.7497 423.641 57.9567 423.179 59.4581C423.137 59.5927 422.949 60.011 422.572 60.847C422.33 61.3846 421.841 61.7673 421.273 61.927C417.97 62.856 415.467 65.6485 414.961 69.1104C414.869 69.7418 414.869 70.4951 414.869 72.0017C414.869 73.5083 414.869 74.2616 414.961 74.8929C415.467 78.3548 417.969 81.1472 421.273 82.0763ZM453.602 83.1563C453.844 82.6188 454.333 82.236 454.901 82.0763C458.204 81.1472 460.707 78.3548 461.213 74.8929C461.305 74.2616 461.305 73.5083 461.305 72.0017C461.305 70.4951 461.305 69.7418 461.213 69.1104C460.707 65.6485 458.204 62.856 454.901 61.927C454.333 61.7673 453.844 61.3846 453.602 60.847C453.225 60.0108 453.037 59.5927 452.995 59.4581C452.533 57.9567 453.306 56.7497 454.857 56.554C454.996 56.5364 455.354 56.5364 456.069 56.5364C460.759 56.5364 463.104 56.5364 464.895 57.4544C466.47 58.2619 467.751 59.5503 468.554 61.1351C469.467 62.9367 469.467 65.2952 469.467 70.0122V73.9911C469.467 78.7081 469.467 81.0666 468.554 82.8682C467.751 84.453 466.47 85.7414 464.895 86.5489C463.104 87.4669 460.759 87.4669 456.069 87.4669C455.354 87.4669 454.996 87.4669 454.857 87.4493C453.306 87.2536 452.533 86.0466 452.995 84.5452C453.037 84.4106 453.225 83.9929 453.601 83.1575L453.602 83.1563Z" fill="url(#paint9_linear_161_2831)" fill-opacity="0.2"/>
<path fill-rule="evenodd" clip-rule="evenodd" d="M-16.1595 127.224C-18 130.832 -18 135.557 -18 145.006C-18 154.454 -18 159.179 -16.1595 162.788C-14.5406 165.962 -11.9574 168.543 -8.78011 170.161C-5.16801 171.999 -0.439503 171.999 9.01751 171.999H42.508C51.965 171.999 56.6935 171.999 60.3056 170.161C63.4829 168.543 66.0661 165.962 67.685 162.788C69.5255 159.179 69.5255 154.454 69.5255 145.006C69.5255 135.557 69.5255 130.832 67.685 127.224C66.0661 124.049 63.4829 121.468 60.3056 119.851C56.6935 118.012 51.965 118.012 42.508 118.012H9.01751C-0.439503 118.012 -5.16801 118.012 -8.78011 119.851C-11.9574 121.468 -14.5406 124.049 -16.1595 127.224ZM8.94868 155.08C9.51665 155.24 10.0057 155.623 10.2479 156.16C10.6245 156.996 10.8129 157.414 10.8544 157.549C11.3172 159.051 10.5435 160.257 8.99287 160.453C8.85389 160.471 8.49601 160.471 7.78025 160.471C3.09078 160.471 0.746046 160.471 -1.04509 159.553C-2.62062 158.745 -3.90157 157.457 -4.70434 155.872C-5.61697 154.07 -5.61697 151.712 -5.61697 146.995V143.016C-5.61697 138.299 -5.61697 135.941 -4.70434 134.139C-3.90157 132.554 -2.62062 131.266 -1.04509 130.458C0.746046 129.54 3.09078 129.54 7.78025 129.54C8.49607 129.54 8.85398 129.54 8.99297 129.558C10.5436 129.754 11.3172 130.961 10.8545 132.462C10.813 132.597 10.6246 133.015 10.2479 133.851C10.0057 134.388 9.51675 134.771 8.94884 134.931C5.64533 135.86 3.14301 138.652 2.63687 142.114C2.54457 142.746 2.54457 143.499 2.54457 145.006C2.54457 146.512 2.54457 147.265 2.63687 147.897C3.143 151.359 5.64525 154.151 8.94868 155.08ZM41.2776 156.16C41.5198 155.623 42.0088 155.24 42.5768 155.08C45.8802 154.151 48.3825 151.359 48.8886 147.897C48.9809 147.265 48.9809 146.512 48.9809 145.006C48.9809 143.499 48.9809 142.746 48.8886 142.114C48.3825 138.652 45.8802 135.86 42.5766 134.931C42.0087 134.771 41.5197 134.388 41.2776 133.851C40.9009 133.015 40.7125 132.597 40.671 132.462C40.2083 130.961 40.9819 129.754 42.5325 129.558C42.6715 129.54 43.0294 129.54 43.7452 129.54C48.4347 129.54 50.7794 129.54 52.5706 130.458C54.1461 131.266 55.427 132.554 56.2298 134.139C57.1425 135.941 57.1425 138.299 57.1425 143.016V146.995C57.1425 151.712 57.1425 154.07 56.2298 155.872C55.427 157.457 54.1461 158.745 52.5706 159.553C50.7794 160.471 48.4347 160.471 43.7452 160.471C43.0295 160.471 42.6716 160.471 42.5326 160.453C40.982 160.257 40.2083 159.051 40.6711 157.549C40.7126 157.415 40.9007 156.997 41.2771 156.161L41.2776 156.16Z" fill="url(#paint10_linear_161_2831)" fill-opacity="0.2"/>
<path fill-rule="evenodd" clip-rule="evenodd" d="M86.9186 127.224C85.0781 130.832 85.0781 135.557 85.0781 145.006C85.0781 154.454 85.0781 159.179 86.9186 162.788C88.5375 165.962 91.1207 168.543 94.298 170.161C97.9101 171.999 102.639 171.999 112.096 171.999H145.586C155.043 171.999 159.772 171.999 163.384 170.161C166.561 168.543 169.144 165.962 170.763 162.788C172.604 159.179 172.604 154.454 172.604 145.006C172.604 135.557 172.604 130.832 170.763 127.224C169.144 124.049 166.561 121.468 163.384 119.851C159.772 118.012 155.043 118.012 145.586 118.012H112.096C102.639 118.012 97.9101 118.012 94.298 119.851C91.1207 121.468 88.5375 124.049 86.9186 127.224ZM112.027 155.08C112.595 155.24 113.084 155.623 113.326 156.16C113.703 156.996 113.891 157.414 113.933 157.549C114.395 159.051 113.622 160.257 112.071 160.453C111.932 160.471 111.574 160.471 110.858 160.471C106.169 160.471 103.824 160.471 102.033 159.553C100.458 158.745 99.1766 157.457 98.3738 155.872C97.4612 154.07 97.4612 151.712 97.4612 146.995V143.016C97.4612 138.299 97.4612 135.941 98.3738 134.139C99.1766 132.554 100.458 131.266 102.033 130.458C103.824 129.54 106.169 129.54 110.858 129.54C111.574 129.54 111.932 129.54 112.071 129.558C113.622 129.754 114.395 130.961 113.933 132.462C113.891 132.597 113.703 133.015 113.326 133.851C113.084 134.388 112.595 134.771 112.027 134.931C108.723 135.86 106.221 138.652 105.715 142.114C105.623 142.746 105.623 143.499 105.623 145.006C105.623 146.512 105.623 147.265 105.715 147.897C106.221 151.359 108.723 154.151 112.027 155.08ZM144.356 156.16C144.598 155.623 145.087 155.24 145.655 155.08C148.958 154.151 151.461 151.359 151.967 147.897C152.059 147.265 152.059 146.512 152.059 145.006C152.059 143.499 152.059 142.746 151.967 142.114C151.461 138.652 148.958 135.86 145.655 134.931C145.087 134.771 144.598 134.388 144.356 133.851C143.979 133.015 143.791 132.597 143.749 132.462C143.286 130.961 144.06 129.754 145.611 129.558C145.75 129.54 146.108 129.54 146.823 129.54C151.513 129.54 153.858 129.54 155.649 130.458C157.224 131.266 158.505 132.554 159.308 134.139C160.221 135.941 160.221 138.299 160.221 143.016V146.995C160.221 151.712 160.221 154.07 159.308 155.872C158.505 157.457 157.224 158.745 155.649 159.553C153.858 160.471 151.513 160.471 146.823 160.471C146.108 160.471 145.75 160.471 145.611 160.453C144.06 160.257 143.286 159.051 143.749 157.549C143.791 157.415 143.979 156.997 144.355 156.161L144.356 156.16Z" fill="url(#paint11_linear_161_2831)" fill-opacity="0.2"/>
<path fill-rule="evenodd" clip-rule="evenodd" d="M190.005 127.224C188.164 130.832 188.164 135.557 188.164 145.006C188.164 154.454 188.164 159.179 190.005 162.788C191.623 165.962 194.207 168.543 197.384 170.161C200.996 171.999 205.725 171.999 215.182 171.999H248.672C258.129 171.999 262.858 171.999 266.47 170.161C269.647 168.543 272.23 165.962 273.849 162.788C275.69 159.179 275.69 154.454 275.69 145.006C275.69 135.557 275.69 130.832 273.849 127.224C272.23 124.049 269.647 121.468 266.47 119.851C262.858 118.012 258.129 118.012 248.672 118.012H215.182C205.725 118.012 200.996 118.012 197.384 119.851C194.207 121.468 191.623 124.049 190.005 127.224ZM215.113 155.08C215.681 155.24 216.17 155.623 216.412 156.16C216.789 156.996 216.977 157.414 217.018 157.549C217.481 159.051 216.708 160.257 215.157 160.453C215.018 160.471 214.66 160.471 213.944 160.471C209.255 160.471 206.91 160.471 205.119 159.553C203.543 158.745 202.262 157.457 201.46 155.872C200.547 154.07 200.547 151.712 200.547 146.995V143.016C200.547 138.299 200.547 135.941 201.46 134.139C202.262 132.554 203.543 131.266 205.119 130.458C206.91 129.54 209.255 129.54 213.944 129.54C214.66 129.54 215.018 129.54 215.157 129.558C216.708 129.754 217.481 130.961 217.019 132.462C216.977 132.597 216.789 133.015 216.412 133.851C216.17 134.388 215.681 134.771 215.113 134.931C211.809 135.86 209.307 138.652 208.801 142.114C208.709 142.746 208.709 143.499 208.709 145.006C208.709 146.512 208.709 147.265 208.801 147.897C209.307 151.359 211.809 154.151 215.113 155.08ZM247.442 156.16C247.684 155.623 248.173 155.24 248.741 155.08C252.044 154.151 254.547 151.359 255.053 147.897C255.145 147.265 255.145 146.512 255.145 145.006C255.145 143.499 255.145 142.746 255.053 142.114C254.547 138.652 252.044 135.86 248.741 134.931C248.173 134.771 247.684 134.388 247.442 133.851C247.065 133.015 246.877 132.597 246.835 132.462C246.372 130.961 247.146 129.754 248.697 129.558C248.836 129.54 249.193 129.54 249.909 129.54C254.599 129.54 256.944 129.54 258.735 130.458C260.31 131.266 261.591 132.554 262.394 134.139C263.307 135.941 263.307 138.299 263.307 143.016V146.995C263.307 151.712 263.307 154.07 262.394 155.872C261.591 157.457 260.31 158.745 258.735 159.553C256.944 160.471 254.599 160.471 249.909 160.471C249.194 160.471 248.836 160.471 248.697 160.453C247.146 160.257 246.372 159.051 246.835 157.549C246.877 157.415 247.065 156.997 247.441 156.161L247.442 156.16Z" fill="url(#paint12_linear_161_2831)" fill-opacity="0.2"/>
<path fill-rule="evenodd" clip-rule="evenodd" d="M293.083 127.224C291.242 130.832 291.242 135.557 291.242 145.006C291.242 154.454 291.242 159.179 293.083 162.788C294.702 165.962 297.285 168.543 300.462 170.161C304.074 171.999 308.803 171.999 318.26 171.999H351.75C361.207 171.999 365.936 171.999 369.548 170.161C372.725 168.543 375.308 165.962 376.927 162.788C378.768 159.179 378.768 154.454 378.768 145.006C378.768 135.557 378.768 130.832 376.927 127.224C375.308 124.049 372.725 121.468 369.548 119.851C365.936 118.012 361.207 118.012 351.75 118.012H318.26C308.803 118.012 304.074 118.012 300.462 119.851C297.285 121.468 294.702 124.049 293.083 127.224ZM318.191 155.08C318.759 155.24 319.248 155.623 319.49 156.16C319.867 156.996 320.055 157.414 320.097 157.549C320.559 159.051 319.786 160.257 318.235 160.453C318.096 160.471 317.738 160.471 317.022 160.471C312.333 160.471 309.988 160.471 308.197 159.553C306.622 158.745 305.341 157.457 304.538 155.872C303.625 154.07 303.625 151.712 303.625 146.995V143.016C303.625 138.299 303.625 135.941 304.538 134.139C305.341 132.554 306.622 131.266 308.197 130.458C309.988 129.54 312.333 129.54 317.022 129.54C317.738 129.54 318.096 129.54 318.235 129.558C319.786 129.754 320.559 130.961 320.097 132.462C320.055 132.597 319.867 133.015 319.49 133.851C319.248 134.388 318.759 134.771 318.191 134.931C314.888 135.86 312.385 138.652 311.879 142.114C311.787 142.746 311.787 143.499 311.787 145.006C311.787 146.512 311.787 147.265 311.879 147.897C312.385 151.359 314.887 154.151 318.191 155.08ZM350.52 156.16C350.762 155.623 351.251 155.24 351.819 155.08C355.122 154.151 357.625 151.359 358.131 147.897C358.223 147.265 358.223 146.512 358.223 145.006C358.223 143.499 358.223 142.746 358.131 142.114C357.625 138.652 355.122 135.86 351.819 134.931C351.251 134.771 350.762 134.388 350.52 133.851C350.143 133.015 349.955 132.597 349.913 132.462C349.45 130.961 350.224 129.754 351.775 129.558C351.914 129.54 352.272 129.54 352.987 129.54C357.677 129.54 360.022 129.54 361.813 130.458C363.388 131.266 364.669 132.554 365.472 134.139C366.385 135.941 366.385 138.299 366.385 143.016V146.995C366.385 151.712 366.385 154.07 365.472 155.872C364.669 157.457 363.388 158.745 361.813 159.553C360.022 160.471 357.677 160.471 352.987 160.471C352.272 160.471 351.914 160.471 351.775 160.453C350.224 160.257 349.451 159.051 349.913 157.549C349.955 157.415 350.143 156.997 350.519 156.161L350.52 156.16Z" fill="url(#paint13_linear_161_2831)" fill-opacity="0.2"/>
<path fill-rule="evenodd" clip-rule="evenodd" d="M396.165 127.224C394.324 130.832 394.324 135.557 394.324 145.006C394.324 154.454 394.324 159.179 396.165 162.788C397.784 165.962 400.367 168.543 403.544 170.161C407.156 171.999 411.885 171.999 421.342 171.999H454.832C464.289 171.999 469.018 171.999 472.63 170.161C475.807 168.543 478.39 165.962 480.009 162.788C481.85 159.179 481.85 154.454 481.85 145.006C481.85 135.557 481.85 130.832 480.009 127.224C478.39 124.049 475.807 121.468 472.63 119.851C469.018 118.012 464.289 118.012 454.832 118.012H421.342C411.885 118.012 407.156 118.012 403.544 119.851C400.367 121.468 397.784 124.049 396.165 127.224ZM421.273 155.08C421.841 155.24 422.33 155.623 422.572 156.16C422.949 156.996 423.137 157.414 423.179 157.549C423.641 159.051 422.868 160.257 421.317 160.453C421.178 160.471 420.82 160.471 420.104 160.471C415.415 160.471 413.07 160.471 411.279 159.553C409.704 158.745 408.423 157.457 407.62 155.872C406.707 154.07 406.707 151.712 406.707 146.995V143.016C406.707 138.299 406.707 135.941 407.62 134.139C408.423 132.554 409.704 131.266 411.279 130.458C413.07 129.54 415.415 129.54 420.104 129.54C420.82 129.54 421.178 129.54 421.317 129.558C422.868 129.754 423.641 130.961 423.179 132.462C423.137 132.597 422.949 133.015 422.572 133.851C422.33 134.388 421.841 134.771 421.273 134.931C417.97 135.86 415.467 138.652 414.961 142.114C414.869 142.746 414.869 143.499 414.869 145.006C414.869 146.512 414.869 147.265 414.961 147.897C415.467 151.359 417.969 154.151 421.273 155.08ZM453.602 156.16C453.844 155.623 454.333 155.24 454.901 155.08C458.204 154.151 460.707 151.359 461.213 147.897C461.305 147.265 461.305 146.512 461.305 145.006C461.305 143.499 461.305 142.746 461.213 142.114C460.707 138.652 458.204 135.86 454.901 134.931C454.333 134.771 453.844 134.388 453.602 133.851C453.225 133.015 453.037 132.597 452.995 132.462C452.533 130.961 453.306 129.754 454.857 129.558C454.996 129.54 455.354 129.54 456.069 129.54C460.759 129.54 463.104 129.54 464.895 130.458C466.47 131.266 467.751 132.554 468.554 134.139C469.467 135.941 469.467 138.299 469.467 143.016V146.995C469.467 151.712 469.467 154.07 468.554 155.872C467.751 157.457 466.47 158.745 464.895 159.553C463.104 160.471 460.759 160.471 456.069 160.471C455.354 160.471 454.996 160.471 454.857 160.453C453.306 160.257 452.533 159.051 452.995 157.549C453.037 157.415 453.225 156.997 453.601 156.161L453.602 156.16Z" fill="url(#paint14_linear_161_2831)" fill-opacity="0.2"/>
<defs>
<linearGradient id="paint0_linear_161_2831" x1="231.925" y1="-28" x2="231.925" y2="140" gradientUnits="userSpaceOnUse">
<stop offset="0.081148" stop-color="white"/>
<stop offset="0.586398" stop-color="white" stop-opacity="0"/>
</linearGradient>
<linearGradient id="paint1_linear_161_2831" x1="231.925" y1="-28" x2="231.925" y2="140" gradientUnits="userSpaceOnUse">
<stop offset="0.081148" stop-color="white"/>
<stop offset="0.586398" stop-color="white" stop-opacity="0"/>
</linearGradient>
<linearGradient id="paint2_linear_161_2831" x1="231.925" y1="-28" x2="231.925" y2="140" gradientUnits="userSpaceOnUse">
<stop offset="0.081148" stop-color="white"/>
<stop offset="0.586398" stop-color="white" stop-opacity="0"/>
</linearGradient>
<linearGradient id="paint3_linear_161_2831" x1="231.925" y1="-28" x2="231.925" y2="140" gradientUnits="userSpaceOnUse">
<stop offset="0.081148" stop-color="white"/>
<stop offset="0.586398" stop-color="white" stop-opacity="0"/>
</linearGradient>
<linearGradient id="paint4_linear_161_2831" x1="231.925" y1="-28" x2="231.925" y2="140" gradientUnits="userSpaceOnUse">
<stop offset="0.081148" stop-color="white"/>
<stop offset="0.586398" stop-color="white" stop-opacity="0"/>
</linearGradient>
<linearGradient id="paint5_linear_161_2831" x1="231.925" y1="-28" x2="231.925" y2="140" gradientUnits="userSpaceOnUse">
<stop offset="0.081148" stop-color="white"/>
<stop offset="0.586398" stop-color="white" stop-opacity="0"/>
</linearGradient>
<linearGradient id="paint6_linear_161_2831" x1="231.925" y1="-28" x2="231.925" y2="140" gradientUnits="userSpaceOnUse">
<stop offset="0.081148" stop-color="white"/>
<stop offset="0.586398" stop-color="white" stop-opacity="0"/>
</linearGradient>
<linearGradient id="paint7_linear_161_2831" x1="231.925" y1="-28" x2="231.925" y2="140" gradientUnits="userSpaceOnUse">
<stop offset="0.081148" stop-color="white"/>
<stop offset="0.586398" stop-color="white" stop-opacity="0"/>
</linearGradient>
<linearGradient id="paint8_linear_161_2831" x1="231.925" y1="-28" x2="231.925" y2="140" gradientUnits="userSpaceOnUse">
<stop offset="0.081148" stop-color="white"/>
<stop offset="0.586398" stop-color="white" stop-opacity="0"/>
</linearGradient>
<linearGradient id="paint9_linear_161_2831" x1="231.925" y1="-28" x2="231.925" y2="140" gradientUnits="userSpaceOnUse">
<stop offset="0.081148" stop-color="white"/>
<stop offset="0.586398" stop-color="white" stop-opacity="0"/>
</linearGradient>
<linearGradient id="paint10_linear_161_2831" x1="231.925" y1="-28" x2="231.925" y2="140" gradientUnits="userSpaceOnUse">
<stop offset="0.081148" stop-color="white"/>
<stop offset="0.586398" stop-color="white" stop-opacity="0"/>
</linearGradient>
<linearGradient id="paint11_linear_161_2831" x1="231.925" y1="-28" x2="231.925" y2="140" gradientUnits="userSpaceOnUse">
<stop offset="0.081148" stop-color="white"/>
<stop offset="0.586398" stop-color="white" stop-opacity="0"/>
</linearGradient>
<linearGradient id="paint12_linear_161_2831" x1="231.925" y1="-28" x2="231.925" y2="140" gradientUnits="userSpaceOnUse">
<stop offset="0.081148" stop-color="white"/>
<stop offset="0.586398" stop-color="white" stop-opacity="0"/>
</linearGradient>
<linearGradient id="paint13_linear_161_2831" x1="231.925" y1="-28" x2="231.925" y2="140" gradientUnits="userSpaceOnUse">
<stop offset="0.081148" stop-color="white"/>
<stop offset="0.586398" stop-color="white" stop-opacity="0"/>
</linearGradient>
<linearGradient id="paint14_linear_161_2831" x1="231.925" y1="-28" x2="231.925" y2="140" gradientUnits="userSpaceOnUse">
<stop offset="0.081148" stop-color="white"/>
<stop offset="0.586398" stop-color="white" stop-opacity="0"/>
</linearGradient>
</defs>
</svg>
