<svg width="600" height="600" viewBox="0 0 600 600" fill="none" xmlns="http://www.w3.org/2000/svg">
<path fill-rule="evenodd" clip-rule="evenodd" d="M94.9998 212.216C86 229.931 86 253.121 86 299.5C86 345.879 86 369.069 94.9998 386.784C102.916 402.366 115.548 415.034 131.085 422.974C148.748 432 171.871 432 218.116 432H381.884C428.129 432 451.252 432 468.915 422.974C484.452 415.034 497.084 402.366 505 386.784C514 369.069 514 345.879 514 299.5C514 253.121 514 229.931 505 212.216C497.084 196.634 484.452 183.966 468.915 176.026C451.252 167 428.129 167 381.884 167H218.116C171.871 167 148.748 167 131.085 176.026C115.548 183.966 102.916 196.634 94.9998 212.216ZM217.779 348.952C220.557 349.736 222.948 351.614 224.132 354.253L224.133 354.254C225.974 358.358 226.895 360.41 227.098 361.07C229.361 368.44 225.578 374.365 217.995 375.325C217.316 375.411 215.566 375.411 212.066 375.411C189.134 375.411 177.668 375.411 168.91 370.906C161.205 366.942 154.941 360.618 151.016 352.839C146.553 343.995 146.553 332.419 146.553 309.265V289.735C146.553 266.581 146.553 255.005 151.016 246.161C154.941 238.382 161.205 232.058 168.91 228.094C177.668 223.589 189.134 223.589 212.066 223.589C215.566 223.589 217.316 223.589 217.996 223.675C225.578 224.636 229.361 230.56 227.098 237.93C226.896 238.59 225.974 240.643 224.132 244.747C222.948 247.386 220.557 249.264 217.78 250.048C201.626 254.608 189.389 268.315 186.914 285.308C186.463 288.407 186.463 292.105 186.463 299.5C186.463 306.895 186.463 310.593 186.914 313.692C189.389 330.684 201.625 344.391 217.779 348.952ZM375.868 354.253C377.052 351.614 379.443 349.736 382.221 348.952C398.375 344.391 410.611 330.684 413.086 313.692C413.537 310.593 413.537 306.895 413.537 299.5C413.537 292.105 413.537 288.407 413.086 285.308C410.611 268.315 398.374 254.608 382.22 250.048C379.443 249.264 377.052 247.386 375.868 244.747C374.025 240.643 373.104 238.59 372.902 237.93C370.639 230.56 374.422 224.636 382.004 223.675C382.684 223.589 384.434 223.589 387.934 223.589C410.866 223.589 422.332 223.589 431.09 228.094C438.795 232.058 445.059 238.382 448.984 246.161C453.447 255.005 453.447 266.581 453.447 289.735V309.265C453.447 332.419 453.447 343.995 448.984 352.839C445.059 360.618 438.795 366.942 431.09 370.906C422.332 375.411 410.866 375.411 387.934 375.411C384.434 375.411 382.684 375.411 382.005 375.325C374.422 374.365 370.639 368.44 372.902 361.07C373.105 360.41 374.025 358.359 375.865 354.259L375.867 354.254L375.868 354.253Z" fill="#39C4FF"/>
</svg>
