<svg width="2768" height="1131" viewBox="0 0 2768 1131" fill="none" xmlns="http://www.w3.org/2000/svg">
<g clip-path="url(#clip0_203_89)">
<path fill-rule="evenodd" clip-rule="evenodd" d="M633 451.216C624 468.931 624 492.121 624 538.5C624 584.879 624 608.069 633 625.784C640.916 641.366 653.548 654.034 669.085 661.974C686.748 671 709.871 671 756.116 671H919.884C966.129 671 989.252 671 1006.91 661.974C1022.45 654.034 1035.08 641.366 1043 625.784C1052 608.069 1052 584.879 1052 538.5C1052 492.121 1052 468.931 1043 451.216C1035.08 435.634 1022.45 422.966 1006.91 415.026C989.252 406 966.129 406 919.884 406H756.116C709.871 406 686.748 406 669.085 415.026C653.548 422.966 640.916 435.634 633 451.216ZM755.779 587.952C758.557 588.736 760.948 590.614 762.132 593.253L762.133 593.254C763.974 597.358 764.895 599.41 765.098 600.07C767.361 607.44 763.578 613.365 755.995 614.325C755.316 614.411 753.566 614.411 750.066 614.411C727.134 614.411 715.668 614.411 706.91 609.906C699.205 605.942 692.941 599.618 689.016 591.839C684.553 582.995 684.553 571.419 684.553 548.265V528.735C684.553 505.581 684.553 494.005 689.016 485.161C692.941 477.382 699.205 471.058 706.91 467.094C715.668 462.589 727.134 462.589 750.066 462.589C753.566 462.589 755.316 462.589 755.996 462.675C763.578 463.636 767.361 469.56 765.098 476.93C764.896 477.59 763.974 479.643 762.132 483.747C760.948 486.386 758.557 488.264 755.78 489.048C739.626 493.608 727.389 507.315 724.914 524.308C724.463 527.407 724.463 531.105 724.463 538.5C724.463 545.895 724.463 549.593 724.914 552.692C727.389 569.684 739.625 583.391 755.779 587.952ZM913.868 593.253C915.052 590.614 917.443 588.736 920.221 587.952C936.375 583.391 948.611 569.684 951.086 552.692C951.537 549.593 951.537 545.895 951.537 538.5C951.537 531.105 951.537 527.407 951.086 524.308C948.611 507.315 936.374 493.608 920.22 489.048C917.443 488.264 915.052 486.386 913.868 483.747C912.025 479.643 911.104 477.59 910.902 476.93C908.639 469.56 912.422 463.636 920.004 462.675C920.684 462.589 922.434 462.589 925.934 462.589C948.866 462.589 960.332 462.589 969.09 467.094C976.795 471.058 983.059 477.382 986.984 485.161C991.447 494.005 991.447 505.581 991.447 528.735V548.265C991.447 571.419 991.447 582.995 986.984 591.839C983.059 599.618 976.795 605.942 969.09 609.906C960.332 614.411 948.866 614.411 925.934 614.411C922.434 614.411 920.684 614.411 920.005 614.325C912.422 613.365 908.639 607.44 910.902 600.07C911.105 599.41 912.025 597.359 913.865 593.259L913.867 593.254L913.868 593.253Z" fill="#39C4FF"/>
<path d="M1314.01 656.749H1260.17C1208.78 656.749 1178.18 631.9 1178.18 578.536V514.173H1148V451.44H1178.18V416H1254.87V451.44H1314.01V514.173H1254.87V567.537C1254.87 583.832 1259.76 587.905 1277.3 587.905H1314.01V656.749Z" fill="currentColor"/>
<path d="M1398.8 660.823C1352.3 660.823 1326.2 639.64 1326.2 604.607C1326.2 575.685 1346.19 554.909 1392.69 550.428L1476.3 542.281V538.208C1476.3 517.432 1467.33 514.173 1440 514.173C1414.71 514.173 1406.96 519.062 1406.96 536.171V537.8H1330.28V536.986C1330.28 482.399 1375.96 447.367 1445.71 447.367C1517.5 447.367 1552.17 482.399 1552.17 539.837V656.749H1480.38V613.569H1476.3C1468.55 642.491 1443.27 660.823 1398.8 660.823ZM1403.29 599.719C1403.29 606.237 1409.82 607.459 1421.65 607.459C1458.76 607.459 1473.86 602.978 1475.9 584.647L1413.08 591.979C1406.15 592.794 1403.29 595.238 1403.29 599.719Z" fill="currentColor"/>
<path d="M1651.59 726H1574.9V451.44H1646.69V506.841H1650.77C1657.3 466.105 1681.77 447.367 1729.9 447.367C1792.72 447.367 1827.39 487.695 1827.39 554.095C1827.39 620.901 1793.54 660.823 1733.17 660.823C1684.63 660.823 1661.79 638.011 1655.67 603.792H1651.59V726ZM1651.59 556.539C1651.59 585.461 1667.9 591.164 1702.17 591.164C1737.65 591.164 1749.89 581.388 1749.89 554.095C1749.89 526.802 1737.65 517.432 1702.17 517.432C1667.9 517.432 1651.59 523.95 1651.59 553.687V556.539Z" fill="currentColor"/>
<path d="M1962.38 660.823C1892.63 660.823 1843.68 631.085 1843.68 554.095C1843.68 487.288 1892.22 447.367 1960.75 447.367C2031.72 447.367 2077 482.807 2077 548.799C2077 555.724 2076.59 561.02 2075.78 568.352H1914.66C1915.88 593.201 1926.89 600.126 1959.53 600.126C1990.53 600.126 1998.68 594.831 1998.68 582.61V578.129H2075.37V583.017C2075.37 628.641 2031.72 660.823 1962.38 660.823ZM1959.12 506.026C1930.97 506.026 1919.14 512.137 1915.88 529.653H2002.76C1999.91 512.137 1987.67 506.026 1959.12 506.026Z" fill="currentColor"/>
<rect x="596" y="406" width="27" height="10" fill="#39C4FF" fill-opacity="0.4"/>
<rect x="1053" y="406" width="27" height="10" fill="#39C4FF" fill-opacity="0.4"/>
<rect x="596" y="661" width="27" height="10" fill="#39C4FF" fill-opacity="0.4"/>
<rect x="1053" y="661" width="27" height="10" fill="#39C4FF" fill-opacity="0.4"/>
<rect x="595" y="405" width="1" height="321" fill="#39C4FF" fill-opacity="0.4"/>
<rect x="1052" y="405" width="1" height="321" fill="#39C4FF" fill-opacity="0.4"/>
<rect x="-42" y="406" width="0.999902" height="2837" transform="rotate(-90 -42 406)" fill="#39C4FF" fill-opacity="0.4"/>
<rect x="-42" y="661" width="0.999902" height="2837" transform="rotate(-90 -42 661)" fill="#39C4FF" fill-opacity="0.4"/>
<rect x="-42" y="672" width="0.999902" height="2837" transform="rotate(-90 -42 672)" fill="#39C4FF" fill-opacity="0.4"/>
<rect x="-42" y="727" width="0.999902" height="2837" transform="rotate(-90 -42 727)" fill="#39C4FF" fill-opacity="0.4"/>
<rect x="623" y="405" width="1" height="321" fill="#39C4FF" fill-opacity="0.4"/>
<rect x="1080" y="405" width="1" height="321" fill="#39C4FF" fill-opacity="0.4"/>
<rect x="1147" y="405" width="1" height="321" fill="#39C4FF" fill-opacity="0.4"/>
<path fill-rule="evenodd" clip-rule="evenodd" d="M1053.65 518.354C1053.45 518.159 1053.45 517.842 1053.65 517.647L1056.83 514.465C1057.02 514.27 1057.34 514.27 1057.54 514.465C1057.73 514.66 1057.73 514.977 1057.54 515.172L1055.21 517.5L1144.79 517.5L1142.46 515.172C1142.27 514.977 1142.27 514.66 1142.46 514.465C1142.66 514.27 1142.98 514.27 1143.17 514.465L1146.35 517.647C1146.55 517.842 1146.55 518.159 1146.35 518.354L1143.17 521.536C1142.98 521.731 1142.66 521.731 1142.46 521.536C1142.27 521.341 1142.27 521.024 1142.46 520.829L1144.79 518.5L1055.21 518.5L1057.54 520.829C1057.73 521.024 1057.73 521.341 1057.54 521.536C1057.34 521.731 1057.02 521.731 1056.83 521.536L1053.65 518.354Z" fill="#39C4FF" fill-opacity="0.4"/>
<path fill-rule="evenodd" clip-rule="evenodd" d="M1053.65 558.354C1053.45 558.159 1053.45 557.842 1053.65 557.647L1056.83 554.465C1057.02 554.27 1057.34 554.27 1057.54 554.465C1057.73 554.66 1057.73 554.977 1057.54 555.172L1055.21 557.5L1144.79 557.5L1142.46 555.172C1142.27 554.977 1142.27 554.66 1142.46 554.465C1142.66 554.27 1142.98 554.27 1143.17 554.465L1146.35 557.647C1146.55 557.842 1146.55 558.159 1146.35 558.354L1143.17 561.536C1142.98 561.731 1142.66 561.731 1142.46 561.536C1142.27 561.341 1142.27 561.024 1142.46 560.829L1144.79 558.5L1055.21 558.5L1057.54 560.829C1057.73 561.024 1057.73 561.341 1057.54 561.536C1057.34 561.731 1057.02 561.731 1056.83 561.536L1053.65 558.354Z" fill="#39C4FF" fill-opacity="0.4"/>
<path d="M1093.95 546.2C1090.61 546.2 1088.31 544.54 1088.31 541.82V541.66H1090.67V541.82C1090.67 543.24 1091.57 544.16 1093.95 544.16C1096.87 544.16 1097.95 542.76 1097.95 539.54V538.48H1097.77C1097.27 539.84 1095.61 540.9 1093.07 540.9C1089.77 540.9 1087.89 539.4 1087.89 536.74C1087.89 534.1 1089.97 532.4 1093.73 532.4C1098.31 532.4 1100.23 534.44 1100.23 539.26C1100.23 543.62 1097.99 546.2 1093.95 546.2ZM1093.81 539.36C1096.43 539.36 1097.69 538.46 1097.69 536.88C1097.69 535.28 1096.49 534.46 1093.83 534.46C1091.17 534.46 1090.15 535.26 1090.15 536.9C1090.15 538.56 1091.15 539.36 1093.81 539.36Z" fill="#39C4FF"/>
<path d="M1108.18 546.2C1103.6 546.2 1101.66 544.12 1101.66 539.24C1101.66 534.92 1103.94 532.4 1108.02 532.4C1111.36 532.4 1113.66 534.06 1113.66 536.78V536.94H1111.28V536.78C1111.28 535.36 1110.4 534.44 1108.02 534.44C1105.06 534.44 1103.96 535.78 1103.96 538.96V540.02H1104.14C1104.62 538.72 1106.28 537.7 1108.82 537.7C1112.12 537.7 1114 539.2 1114 541.86C1114 544.5 1111.92 546.2 1108.18 546.2ZM1108.06 544.14C1110.72 544.14 1111.76 543.34 1111.76 541.7C1111.76 540.04 1110.74 539.24 1108.08 539.24C1105.46 539.24 1104.22 540.1 1104.22 541.62C1104.22 543.3 1105.42 544.14 1108.06 544.14Z" fill="#39C4FF"/>
<path d="M1117.91 546H1115.75V532.6H1122.31C1125.29 532.6 1127.33 534.3 1127.33 537.28C1127.33 540.24 1125.29 541.96 1122.31 541.96H1117.91V546ZM1122.11 534.54H1117.91V540.02H1122.11C1124.13 540.02 1125.17 539.26 1125.17 537.28C1125.17 535.3 1124.13 534.54 1122.11 534.54Z" fill="#39C4FF"/>
<path d="M1130.42 546H1127.62L1133.02 539.34V539.18L1127.62 532.6H1130.42L1134.78 537.88H1134.94L1139.2 532.6H1142L1136.6 539.2V539.36L1142 546H1139.2L1134.86 540.62H1134.7L1130.42 546Z" fill="#39C4FF"/>
<rect x="-42" y="417" width="0.999901" height="2852" transform="rotate(-90 -42 417)" fill="#39C4FF" fill-opacity="0.4"/>
</g>
<defs>
<clipPath id="clip0_203_89">
<rect width="2768" height="1131" fill="white"/>
</clipPath>
</defs>
</svg>
