<svg width="2768" height="1131" viewBox="0 0 2768 1131" fill="none" xmlns="http://www.w3.org/2000/svg">
<path fill-rule="evenodd" clip-rule="evenodd" d="M667 451.216C658 468.931 658 492.121 658 538.5C658 584.879 658 608.069 667 625.784C674.916 641.366 687.548 654.034 703.085 661.974C720.748 671 743.871 671 790.116 671H953.884C1000.13 671 1023.25 671 1040.91 661.974C1056.45 654.034 1069.08 641.366 1077 625.784C1086 608.069 1086 584.879 1086 538.5C1086 492.121 1086 468.931 1077 451.216C1069.08 435.634 1056.45 422.966 1040.91 415.026C1023.25 406 1000.13 406 953.884 406H790.116C743.871 406 720.748 406 703.085 415.026C687.548 422.966 674.916 435.634 667 451.216ZM789.779 587.952C792.557 588.736 794.948 590.614 796.132 593.253L796.133 593.254C797.974 597.358 798.895 599.41 799.098 600.07C801.361 607.44 797.578 613.365 789.995 614.325C789.316 614.411 787.566 614.411 784.066 614.411C761.134 614.411 749.668 614.411 740.91 609.906C733.205 605.942 726.941 599.618 723.016 591.839C718.553 582.995 718.553 571.419 718.553 548.265V528.735C718.553 505.581 718.553 494.005 723.016 485.161C726.941 477.382 733.205 471.058 740.91 467.094C749.668 462.589 761.134 462.589 784.066 462.589C787.566 462.589 789.316 462.589 789.996 462.675C797.578 463.636 801.361 469.56 799.098 476.93C798.896 477.59 797.974 479.643 796.132 483.747C794.948 486.386 792.557 488.264 789.78 489.048C773.626 493.608 761.389 507.315 758.914 524.308C758.463 527.407 758.463 531.105 758.463 538.5C758.463 545.895 758.463 549.593 758.914 552.692C761.389 569.684 773.625 583.391 789.779 587.952ZM947.868 593.253C949.052 590.614 951.443 588.736 954.221 587.952C970.375 583.391 982.611 569.684 985.086 552.692C985.537 549.593 985.537 545.895 985.537 538.5C985.537 531.105 985.537 527.407 985.086 524.308C982.611 507.315 970.374 493.608 954.22 489.048C951.443 488.264 949.052 486.386 947.868 483.747C946.025 479.643 945.104 477.59 944.902 476.93C942.639 469.56 946.422 463.636 954.004 462.675C954.684 462.589 956.434 462.589 959.934 462.589C982.866 462.589 994.332 462.589 1003.09 467.094C1010.79 471.058 1017.06 477.382 1020.98 485.161C1025.45 494.005 1025.45 505.581 1025.45 528.735V548.265C1025.45 571.419 1025.45 582.995 1020.98 591.839C1017.06 599.618 1010.79 605.942 1003.09 609.906C994.332 614.411 982.866 614.411 959.934 614.411C956.434 614.411 954.684 614.411 954.005 614.325C946.422 613.365 942.639 607.44 944.902 600.07C945.105 599.41 946.025 597.359 947.865 593.259L947.867 593.254L947.868 593.253Z" fill="#39C4FF"/>
<path d="M1348.01 656.749H1294.17C1242.78 656.749 1212.18 631.9 1212.18 578.536V514.173H1182V451.44H1212.18V416H1288.87V451.44H1348.01V514.173H1288.87V567.537C1288.87 583.832 1293.76 587.905 1311.3 587.905H1348.01V656.749Z" fill="black"/>
<path d="M1432.8 660.823C1386.3 660.823 1360.2 639.64 1360.2 604.607C1360.2 575.685 1380.19 554.909 1426.69 550.428L1510.3 542.281V538.208C1510.3 517.432 1501.33 514.173 1474 514.173C1448.71 514.173 1440.96 519.062 1440.96 536.171V537.8H1364.28V536.986C1364.28 482.399 1409.96 447.367 1479.71 447.367C1551.5 447.367 1586.17 482.399 1586.17 539.837V656.749H1514.38V613.569H1510.3C1502.55 642.491 1477.27 660.823 1432.8 660.823ZM1437.29 599.719C1437.29 606.237 1443.82 607.459 1455.65 607.459C1492.76 607.459 1507.86 602.978 1509.9 584.647L1447.08 591.979C1440.15 592.794 1437.29 595.238 1437.29 599.719Z" fill="black"/>
<path d="M1685.59 726H1608.9V451.44H1680.69V506.841H1684.77C1691.3 466.105 1715.77 447.367 1763.9 447.367C1826.72 447.367 1861.39 487.695 1861.39 554.095C1861.39 620.901 1827.54 660.823 1767.17 660.823C1718.63 660.823 1695.79 638.011 1689.67 603.792H1685.59V726ZM1685.59 556.539C1685.59 585.461 1701.9 591.164 1736.17 591.164C1771.65 591.164 1783.89 581.388 1783.89 554.095C1783.89 526.802 1771.65 517.432 1736.17 517.432C1701.9 517.432 1685.59 523.95 1685.59 553.687V556.539Z" fill="black"/>
<path d="M1996.38 660.823C1926.63 660.823 1877.68 631.085 1877.68 554.095C1877.68 487.288 1926.22 447.367 1994.75 447.367C2065.72 447.367 2111 482.807 2111 548.799C2111 555.724 2110.59 561.02 2109.78 568.352H1948.66C1949.88 593.201 1960.89 600.126 1993.53 600.126C2024.53 600.126 2032.68 594.831 2032.68 582.61V578.129H2109.37V583.017C2109.37 628.641 2065.72 660.823 1996.38 660.823ZM1993.12 506.026C1964.97 506.026 1953.14 512.137 1949.88 529.653H2036.76C2033.91 512.137 2021.67 506.026 1993.12 506.026Z" fill="black"/>
</svg>
