<svg width="1586" height="432" viewBox="0 0 1586 432" fill="none" xmlns="http://www.w3.org/2000/svg">
<path fill-rule="evenodd" clip-rule="evenodd" d="M700.058 20.4754C696 28.497 696 38.998 696 60C696 81.002 696 91.5029 700.058 99.5246C703.628 106.581 709.324 112.317 716.331 115.913C724.295 120 734.722 120 755.576 120H829.424C850.278 120 860.705 120 868.67 115.913C875.676 112.317 881.372 106.581 884.942 99.5246C889 91.5029 889 81.002 889 60C889 38.998 889 28.497 884.942 20.4754C881.372 13.4193 875.676 7.68251 868.67 4.08726C860.705 0 850.278 0 829.424 0H755.576C734.722 0 724.295 0 716.331 4.08726C709.324 7.68251 703.628 13.4193 700.058 20.4754ZM755.424 82.3932C756.676 82.7483 757.755 83.599 758.289 84.7939C759.119 86.652 759.535 87.5817 759.626 87.8808C760.646 91.2181 758.94 93.9009 755.521 94.336C755.215 94.375 754.426 94.375 752.847 94.375C742.507 94.375 737.336 94.375 733.387 92.3346C729.913 90.5398 727.088 87.6759 725.318 84.1534C723.305 80.1488 723.305 74.9066 723.305 64.4221V55.5779C723.305 45.0934 723.305 39.8512 725.318 35.8466C727.088 32.3241 729.913 29.4602 733.387 27.6654C737.336 25.625 742.507 25.625 752.847 25.625C754.426 25.625 755.215 25.625 755.521 25.664C758.941 26.0991 760.647 28.7819 759.626 32.1191C759.535 32.4183 759.119 33.348 758.289 35.2063C757.755 36.4011 756.676 37.2517 755.424 37.6067C748.14 39.6718 742.622 45.8787 741.506 53.5736C741.302 54.9769 741.302 56.6512 741.302 60C741.302 63.3488 741.302 65.0231 741.506 66.4264C742.622 74.1212 748.139 80.328 755.424 82.3932ZM826.711 84.7939C827.245 83.599 828.324 82.7483 829.576 82.3932C836.861 80.328 842.378 74.1212 843.494 66.4264C843.698 65.0231 843.698 63.3488 843.698 60C843.698 56.6512 843.698 54.9769 843.494 53.5736C842.378 45.8787 836.86 39.6718 829.576 37.6067C828.324 37.2517 827.245 36.4011 826.711 35.2063C825.881 33.3476 825.465 32.4183 825.374 32.1191C824.353 28.7819 826.059 26.0991 829.479 25.664C829.785 25.625 830.574 25.625 832.153 25.625C842.493 25.625 847.664 25.625 851.613 27.6654C855.087 29.4602 857.912 32.3241 859.682 35.8466C861.695 39.8512 861.695 45.0934 861.695 55.5779V64.4221C861.695 74.9066 861.695 80.1488 859.682 84.1534C857.912 87.6759 855.087 90.5398 851.613 92.3346C847.664 94.375 842.493 94.375 832.153 94.375C830.574 94.375 829.785 94.375 829.479 94.336C826.06 93.9009 824.354 91.2181 825.374 87.8808C825.465 87.5818 825.88 86.6533 826.71 84.7964L826.711 84.7939Z" fill="#F3F4F4" fill-opacity="0.1"/>
<path fill-rule="evenodd" clip-rule="evenodd" d="M468.058 20.4754C464 28.497 464 38.998 464 60C464 81.002 464 91.5029 468.058 99.5246C471.628 106.581 477.324 112.317 484.331 115.913C492.295 120 502.722 120 523.576 120H597.424C618.278 120 628.705 120 636.67 115.913C643.676 112.317 649.372 106.581 652.942 99.5246C657 91.5029 657 81.002 657 60C657 38.998 657 28.497 652.942 20.4754C649.372 13.4193 643.676 7.68251 636.67 4.08726C628.705 0 618.278 0 597.424 0H523.576C502.722 0 492.295 0 484.331 4.08726C477.324 7.68251 471.628 13.4193 468.058 20.4754ZM523.424 82.3932C524.676 82.7483 525.755 83.599 526.289 84.7939C527.119 86.652 527.535 87.5817 527.626 87.8808C528.646 91.2181 526.94 93.9009 523.521 94.336C523.215 94.375 522.426 94.375 520.847 94.375C510.507 94.375 505.336 94.375 501.387 92.3346C497.913 90.5398 495.088 87.6759 493.318 84.1534C491.305 80.1488 491.305 74.9066 491.305 64.4221V55.5779C491.305 45.0934 491.305 39.8512 493.318 35.8466C495.088 32.3241 497.913 29.4602 501.387 27.6654C505.336 25.625 510.507 25.625 520.847 25.625C522.426 25.625 523.215 25.625 523.521 25.664C526.941 26.0991 528.647 28.7819 527.626 32.1191C527.535 32.4183 527.119 33.348 526.289 35.2063C525.755 36.4011 524.676 37.2517 523.424 37.6067C516.14 39.6718 510.622 45.8787 509.506 53.5736C509.302 54.9769 509.302 56.6512 509.302 60C509.302 63.3488 509.302 65.0231 509.506 66.4264C510.622 74.1212 516.139 80.328 523.424 82.3932ZM594.711 84.7939C595.245 83.599 596.324 82.7483 597.576 82.3932C604.861 80.328 610.378 74.1212 611.494 66.4264C611.698 65.0231 611.698 63.3488 611.698 60C611.698 56.6512 611.698 54.9769 611.494 53.5736C610.378 45.8787 604.86 39.6718 597.576 37.6067C596.324 37.2517 595.245 36.4011 594.711 35.2063C593.881 33.3476 593.465 32.4183 593.374 32.1191C592.353 28.7819 594.059 26.0991 597.479 25.664C597.785 25.625 598.574 25.625 600.153 25.625C610.493 25.625 615.664 25.625 619.613 27.6654C623.087 29.4602 625.912 32.3241 627.682 35.8466C629.695 39.8512 629.695 45.0934 629.695 55.5779V64.4221C629.695 74.9066 629.695 80.1488 627.682 84.1534C625.912 87.6759 623.087 90.5398 619.613 92.3346C615.664 94.375 610.493 94.375 600.153 94.375C598.574 94.375 597.785 94.375 597.479 94.336C594.06 93.9009 592.354 91.2181 593.374 87.8808C593.465 87.5818 593.88 86.6533 594.71 84.7964L594.711 84.7939Z" fill="#F3F4F4" fill-opacity="0.1"/>
<path fill-rule="evenodd" clip-rule="evenodd" d="M236.058 20.4754C232 28.497 232 38.998 232 60C232 81.002 232 91.5029 236.058 99.5246C239.628 106.581 245.324 112.317 252.331 115.913C260.295 120 270.722 120 291.576 120H365.424C386.278 120 396.705 120 404.67 115.913C411.676 112.317 417.372 106.581 420.942 99.5246C425 91.5029 425 81.002 425 60C425 38.998 425 28.497 420.942 20.4754C417.372 13.4193 411.676 7.68251 404.67 4.08726C396.705 0 386.278 0 365.424 0H291.576C270.722 0 260.295 0 252.331 4.08726C245.324 7.68251 239.628 13.4193 236.058 20.4754ZM291.424 82.3932C292.676 82.7483 293.755 83.599 294.289 84.7939C295.119 86.652 295.535 87.5817 295.626 87.8808C296.646 91.2181 294.94 93.9009 291.521 94.336C291.215 94.375 290.426 94.375 288.847 94.375C278.507 94.375 273.336 94.375 269.387 92.3346C265.913 90.5398 263.088 87.6759 261.318 84.1534C259.305 80.1488 259.305 74.9066 259.305 64.4221V55.5779C259.305 45.0934 259.305 39.8512 261.318 35.8466C263.088 32.3241 265.913 29.4602 269.387 27.6654C273.336 25.625 278.507 25.625 288.847 25.625C290.426 25.625 291.215 25.625 291.521 25.664C294.941 26.0991 296.647 28.7819 295.626 32.1191C295.535 32.4183 295.119 33.348 294.289 35.2063C293.755 36.4011 292.676 37.2517 291.424 37.6067C284.14 39.6718 278.622 45.8787 277.506 53.5736C277.302 54.9769 277.302 56.6512 277.302 60C277.302 63.3488 277.302 65.0231 277.506 66.4264C278.622 74.1212 284.139 80.328 291.424 82.3932ZM362.711 84.7939C363.245 83.599 364.324 82.7483 365.576 82.3932C372.861 80.328 378.378 74.1212 379.494 66.4264C379.698 65.0231 379.698 63.3488 379.698 60C379.698 56.6512 379.698 54.9769 379.494 53.5736C378.378 45.8787 372.86 39.6718 365.576 37.6067C364.324 37.2517 363.245 36.4011 362.711 35.2063C361.881 33.3476 361.465 32.4183 361.374 32.1191C360.353 28.7819 362.059 26.0991 365.479 25.664C365.785 25.625 366.574 25.625 368.153 25.625C378.493 25.625 383.664 25.625 387.613 27.6654C391.087 29.4602 393.912 32.3241 395.682 35.8466C397.695 39.8512 397.695 45.0934 397.695 55.5779V64.4221C397.695 74.9066 397.695 80.1488 395.682 84.1534C393.912 87.6759 391.087 90.5398 387.613 92.3346C383.664 94.375 378.493 94.375 368.153 94.375C366.574 94.375 365.785 94.375 365.479 94.336C362.06 93.9009 360.354 91.2181 361.374 87.8808C361.465 87.5818 361.88 86.6533 362.71 84.7964L362.711 84.7939Z" fill="#F3F4F4" fill-opacity="0.1"/>
<path fill-rule="evenodd" clip-rule="evenodd" d="M4.05834 20.4754C0 28.497 0 38.998 0 60C0 81.002 0 91.5029 4.05834 99.5246C7.62816 106.581 13.3244 112.317 20.3305 115.913C28.2955 120 38.7222 120 59.5756 120H133.424C154.278 120 164.705 120 172.67 115.913C179.676 112.317 185.372 106.581 188.942 99.5246C193 91.5029 193 81.002 193 60C193 38.998 193 28.497 188.942 20.4754C185.372 13.4193 179.676 7.68251 172.67 4.08726C164.705 0 154.278 0 133.424 0H59.5756C38.7222 0 28.2955 0 20.3305 4.08726C13.3244 7.68251 7.62816 13.4193 4.05834 20.4754ZM59.4238 82.3932C60.6762 82.7483 61.7546 83.599 62.2886 84.7939C63.119 86.652 63.5345 87.5817 63.626 87.8808C64.6464 91.2181 62.9405 93.9009 59.5212 94.336C59.2148 94.375 58.4256 94.375 56.8473 94.375C46.5067 94.375 41.3364 94.375 37.3868 92.3346C33.9126 90.5398 31.0881 87.6759 29.3179 84.1534C27.3055 80.1488 27.3055 74.9066 27.3055 64.4221V55.5779C27.3055 45.0934 27.3055 39.8512 29.3179 35.8466C31.0881 32.3241 33.9126 29.4602 37.3868 27.6654C41.3364 25.625 46.5067 25.625 56.8473 25.625C58.4257 25.625 59.215 25.625 59.5215 25.664C62.9406 26.0991 64.6466 28.7819 63.6262 32.1191C63.5347 32.4183 63.1192 33.348 62.2887 35.2063C61.7547 36.4011 60.6764 37.2517 59.4241 37.6067C52.1396 39.6718 46.6219 45.8787 45.5058 53.5736C45.3023 54.9769 45.3023 56.6512 45.3023 60C45.3023 63.3488 45.3023 65.0231 45.5058 66.4264C46.6218 74.1212 52.1395 80.328 59.4238 82.3932ZM130.711 84.7939C131.245 83.599 132.324 82.7483 133.576 82.3932C140.861 80.328 146.378 74.1212 147.494 66.4264C147.698 65.0231 147.698 63.3488 147.698 60C147.698 56.6512 147.698 54.9769 147.494 53.5736C146.378 45.8787 140.86 39.6718 133.576 37.6067C132.324 37.2517 131.245 36.4011 130.711 35.2063C129.881 33.3476 129.465 32.4183 129.374 32.1191C128.353 28.7819 130.059 26.0991 133.479 25.664C133.785 25.625 134.574 25.625 136.153 25.625C146.493 25.625 151.664 25.625 155.613 27.6654C159.087 29.4602 161.912 32.3241 163.682 35.8466C165.695 39.8512 165.695 45.0934 165.695 55.5779V64.4221C165.695 74.9066 165.695 80.1488 163.682 84.1534C161.912 87.6759 159.087 90.5398 155.613 92.3346C151.664 94.375 146.493 94.375 136.153 94.375C134.574 94.375 133.785 94.375 133.479 94.336C130.06 93.9009 128.354 91.2181 129.374 87.8808C129.465 87.5818 129.88 86.6533 130.71 84.7964L130.711 84.7939Z" fill="#F3F4F4" fill-opacity="0.1"/>
<path fill-rule="evenodd" clip-rule="evenodd" d="M700.058 173.475C696 181.497 696 191.998 696 213C696 234.002 696 244.503 700.058 252.525C703.628 259.581 709.324 265.317 716.331 268.913C724.295 273 734.722 273 755.576 273H829.424C850.278 273 860.705 273 868.67 268.913C875.676 265.317 881.372 259.581 884.942 252.525C889 244.503 889 234.002 889 213C889 191.998 889 181.497 884.942 173.475C881.372 166.419 875.676 160.683 868.67 157.087C860.705 153 850.278 153 829.424 153H755.576C734.722 153 724.295 153 716.331 157.087C709.324 160.683 703.628 166.419 700.058 173.475ZM755.424 235.393C756.676 235.748 757.755 236.599 758.289 237.794C759.119 239.652 759.535 240.582 759.626 240.881C760.646 244.218 758.94 246.901 755.521 247.336C755.215 247.375 754.426 247.375 752.847 247.375C742.507 247.375 737.336 247.375 733.387 245.335C729.913 243.54 727.088 240.676 725.318 237.153C723.305 233.149 723.305 227.907 723.305 217.422V208.578C723.305 198.093 723.305 192.851 725.318 188.847C727.088 185.324 729.913 182.46 733.387 180.665C737.336 178.625 742.507 178.625 752.847 178.625C754.426 178.625 755.215 178.625 755.521 178.664C758.941 179.099 760.647 181.782 759.626 185.119C759.535 185.418 759.119 186.348 758.289 188.206C757.755 189.401 756.676 190.252 755.424 190.607C748.14 192.672 742.622 198.879 741.506 206.574C741.302 207.977 741.302 209.651 741.302 213C741.302 216.349 741.302 218.023 741.506 219.426C742.622 227.121 748.139 233.328 755.424 235.393ZM826.711 237.794C827.245 236.599 828.324 235.748 829.576 235.393C836.861 233.328 842.378 227.121 843.494 219.426C843.698 218.023 843.698 216.349 843.698 213C843.698 209.651 843.698 207.977 843.494 206.574C842.378 198.879 836.86 192.672 829.576 190.607C828.324 190.252 827.245 189.401 826.711 188.206C825.881 186.348 825.465 185.418 825.374 185.119C824.353 181.782 826.059 179.099 829.479 178.664C829.785 178.625 830.574 178.625 832.153 178.625C842.493 178.625 847.664 178.625 851.613 180.665C855.087 182.46 857.912 185.324 859.682 188.847C861.695 192.851 861.695 198.093 861.695 208.578V217.422C861.695 227.907 861.695 233.149 859.682 237.153C857.912 240.676 855.087 243.54 851.613 245.335C847.664 247.375 842.493 247.375 832.153 247.375C830.574 247.375 829.785 247.375 829.479 247.336C826.06 246.901 824.354 244.218 825.374 240.881C825.465 240.582 825.88 239.653 826.71 237.796L826.711 237.794Z" fill="#F3F4F4" fill-opacity="0.1"/>
<path fill-rule="evenodd" clip-rule="evenodd" d="M468.058 173.475C464 181.497 464 191.998 464 213C464 234.002 464 244.503 468.058 252.525C471.628 259.581 477.324 265.317 484.331 268.913C492.295 273 502.722 273 523.576 273H597.424C618.278 273 628.705 273 636.67 268.913C643.676 265.317 649.372 259.581 652.942 252.525C657 244.503 657 234.002 657 213C657 191.998 657 181.497 652.942 173.475C649.372 166.419 643.676 160.683 636.67 157.087C628.705 153 618.278 153 597.424 153H523.576C502.722 153 492.295 153 484.331 157.087C477.324 160.683 471.628 166.419 468.058 173.475ZM523.424 235.393C524.676 235.748 525.755 236.599 526.289 237.794C527.119 239.652 527.535 240.582 527.626 240.881C528.646 244.218 526.94 246.901 523.521 247.336C523.215 247.375 522.426 247.375 520.847 247.375C510.507 247.375 505.336 247.375 501.387 245.335C497.913 243.54 495.088 240.676 493.318 237.153C491.305 233.149 491.305 227.907 491.305 217.422V208.578C491.305 198.093 491.305 192.851 493.318 188.847C495.088 185.324 497.913 182.46 501.387 180.665C505.336 178.625 510.507 178.625 520.847 178.625C522.426 178.625 523.215 178.625 523.521 178.664C526.941 179.099 528.647 181.782 527.626 185.119C527.535 185.418 527.119 186.348 526.289 188.206C525.755 189.401 524.676 190.252 523.424 190.607C516.14 192.672 510.622 198.879 509.506 206.574C509.302 207.977 509.302 209.651 509.302 213C509.302 216.349 509.302 218.023 509.506 219.426C510.622 227.121 516.139 233.328 523.424 235.393ZM594.711 237.794C595.245 236.599 596.324 235.748 597.576 235.393C604.861 233.328 610.378 227.121 611.494 219.426C611.698 218.023 611.698 216.349 611.698 213C611.698 209.651 611.698 207.977 611.494 206.574C610.378 198.879 604.86 192.672 597.576 190.607C596.324 190.252 595.245 189.401 594.711 188.206C593.881 186.348 593.465 185.418 593.374 185.119C592.353 181.782 594.059 179.099 597.479 178.664C597.785 178.625 598.574 178.625 600.153 178.625C610.493 178.625 615.664 178.625 619.613 180.665C623.087 182.46 625.912 185.324 627.682 188.847C629.695 192.851 629.695 198.093 629.695 208.578V217.422C629.695 227.907 629.695 233.149 627.682 237.153C625.912 240.676 623.087 243.54 619.613 245.335C615.664 247.375 610.493 247.375 600.153 247.375C598.574 247.375 597.785 247.375 597.479 247.336C594.06 246.901 592.354 244.218 593.374 240.881C593.465 240.582 593.88 239.653 594.71 237.796L594.711 237.794Z" fill="#F3F4F4" fill-opacity="0.1"/>
<path fill-rule="evenodd" clip-rule="evenodd" d="M236.058 173.475C232 181.497 232 191.998 232 213C232 234.002 232 244.503 236.058 252.525C239.628 259.581 245.324 265.317 252.331 268.913C260.295 273 270.722 273 291.576 273H365.424C386.278 273 396.705 273 404.67 268.913C411.676 265.317 417.372 259.581 420.942 252.525C425 244.503 425 234.002 425 213C425 191.998 425 181.497 420.942 173.475C417.372 166.419 411.676 160.683 404.67 157.087C396.705 153 386.278 153 365.424 153H291.576C270.722 153 260.295 153 252.331 157.087C245.324 160.683 239.628 166.419 236.058 173.475ZM291.424 235.393C292.676 235.748 293.755 236.599 294.289 237.794C295.119 239.652 295.535 240.582 295.626 240.881C296.646 244.218 294.94 246.901 291.521 247.336C291.215 247.375 290.426 247.375 288.847 247.375C278.507 247.375 273.336 247.375 269.387 245.335C265.913 243.54 263.088 240.676 261.318 237.153C259.305 233.149 259.305 227.907 259.305 217.422V208.578C259.305 198.093 259.305 192.851 261.318 188.847C263.088 185.324 265.913 182.46 269.387 180.665C273.336 178.625 278.507 178.625 288.847 178.625C290.426 178.625 291.215 178.625 291.521 178.664C294.941 179.099 296.647 181.782 295.626 185.119C295.535 185.418 295.119 186.348 294.289 188.206C293.755 189.401 292.676 190.252 291.424 190.607C284.14 192.672 278.622 198.879 277.506 206.574C277.302 207.977 277.302 209.651 277.302 213C277.302 216.349 277.302 218.023 277.506 219.426C278.622 227.121 284.139 233.328 291.424 235.393ZM362.711 237.794C363.245 236.599 364.324 235.748 365.576 235.393C372.861 233.328 378.378 227.121 379.494 219.426C379.698 218.023 379.698 216.349 379.698 213C379.698 209.651 379.698 207.977 379.494 206.574C378.378 198.879 372.86 192.672 365.576 190.607C364.324 190.252 363.245 189.401 362.711 188.206C361.881 186.348 361.465 185.418 361.374 185.119C360.353 181.782 362.059 179.099 365.479 178.664C365.785 178.625 366.574 178.625 368.153 178.625C378.493 178.625 383.664 178.625 387.613 180.665C391.087 182.46 393.912 185.324 395.682 188.847C397.695 192.851 397.695 198.093 397.695 208.578V217.422C397.695 227.907 397.695 233.149 395.682 237.153C393.912 240.676 391.087 243.54 387.613 245.335C383.664 247.375 378.493 247.375 368.153 247.375C366.574 247.375 365.785 247.375 365.479 247.336C362.06 246.901 360.354 244.218 361.374 240.881C361.465 240.582 361.88 239.653 362.71 237.796L362.711 237.794Z" fill="#F3F4F4" fill-opacity="0.1"/>
<path fill-rule="evenodd" clip-rule="evenodd" d="M4.05834 173.475C0 181.497 0 191.998 0 213C0 234.002 0 244.503 4.05834 252.525C7.62816 259.581 13.3244 265.317 20.3305 268.913C28.2955 273 38.7222 273 59.5756 273H133.424C154.278 273 164.705 273 172.67 268.913C179.676 265.317 185.372 259.581 188.942 252.525C193 244.503 193 234.002 193 213C193 191.998 193 181.497 188.942 173.475C185.372 166.419 179.676 160.683 172.67 157.087C164.705 153 154.278 153 133.424 153H59.5756C38.7222 153 28.2955 153 20.3305 157.087C13.3244 160.683 7.62816 166.419 4.05834 173.475ZM59.4238 235.393C60.6762 235.748 61.7546 236.599 62.2886 237.794C63.119 239.652 63.5345 240.582 63.626 240.881C64.6464 244.218 62.9405 246.901 59.5212 247.336C59.2148 247.375 58.4256 247.375 56.8473 247.375C46.5067 247.375 41.3364 247.375 37.3868 245.335C33.9126 243.54 31.0881 240.676 29.3179 237.153C27.3055 233.149 27.3055 227.907 27.3055 217.422V208.578C27.3055 198.093 27.3055 192.851 29.3179 188.847C31.0881 185.324 33.9126 182.46 37.3868 180.665C41.3364 178.625 46.5067 178.625 56.8473 178.625C58.4257 178.625 59.215 178.625 59.5215 178.664C62.9406 179.099 64.6466 181.782 63.6262 185.119C63.5347 185.418 63.1192 186.348 62.2887 188.206C61.7547 189.401 60.6764 190.252 59.4241 190.607C52.1396 192.672 46.6219 198.879 45.5058 206.574C45.3023 207.977 45.3023 209.651 45.3023 213C45.3023 216.349 45.3023 218.023 45.5058 219.426C46.6218 227.121 52.1395 233.328 59.4238 235.393ZM130.711 237.794C131.245 236.599 132.324 235.748 133.576 235.393C140.861 233.328 146.378 227.121 147.494 219.426C147.698 218.023 147.698 216.349 147.698 213C147.698 209.651 147.698 207.977 147.494 206.574C146.378 198.879 140.86 192.672 133.576 190.607C132.324 190.252 131.245 189.401 130.711 188.206C129.881 186.348 129.465 185.418 129.374 185.119C128.353 181.782 130.059 179.099 133.479 178.664C133.785 178.625 134.574 178.625 136.153 178.625C146.493 178.625 151.664 178.625 155.613 180.665C159.087 182.46 161.912 185.324 163.682 188.847C165.695 192.851 165.695 198.093 165.695 208.578V217.422C165.695 227.907 165.695 233.149 163.682 237.153C161.912 240.676 159.087 243.54 155.613 245.335C151.664 247.375 146.493 247.375 136.153 247.375C134.574 247.375 133.785 247.375 133.479 247.336C130.06 246.901 128.354 244.218 129.374 240.881C129.465 240.582 129.88 239.653 130.71 237.796L130.711 237.794Z" fill="#F3F4F4" fill-opacity="0.1"/>
<path fill-rule="evenodd" clip-rule="evenodd" d="M932.058 20.4754C928 28.497 928 38.998 928 60C928 81.002 928 91.5029 932.058 99.5246C935.628 106.581 941.324 112.317 948.331 115.913C956.295 120 966.722 120 987.576 120H1061.42C1082.28 120 1092.7 120 1100.67 115.913C1107.68 112.317 1113.37 106.581 1116.94 99.5246C1121 91.5029 1121 81.002 1121 60C1121 38.998 1121 28.497 1116.94 20.4754C1113.37 13.4193 1107.68 7.68251 1100.67 4.08726C1092.7 0 1082.28 0 1061.42 0H987.576C966.722 0 956.295 0 948.331 4.08726C941.324 7.68251 935.628 13.4193 932.058 20.4754ZM987.424 82.3932C988.676 82.7483 989.755 83.599 990.289 84.7939C991.119 86.652 991.535 87.5817 991.626 87.8808C992.646 91.2181 990.94 93.9009 987.521 94.336C987.215 94.375 986.426 94.375 984.847 94.375C974.507 94.375 969.336 94.375 965.387 92.3346C961.913 90.5398 959.088 87.6759 957.318 84.1534C955.305 80.1488 955.305 74.9066 955.305 64.4221V55.5779C955.305 45.0934 955.305 39.8512 957.318 35.8466C959.088 32.3241 961.913 29.4602 965.387 27.6654C969.336 25.625 974.507 25.625 984.847 25.625C986.426 25.625 987.215 25.625 987.521 25.664C990.941 26.0991 992.647 28.7819 991.626 32.1191C991.535 32.4183 991.119 33.348 990.289 35.2063C989.755 36.4011 988.676 37.2517 987.424 37.6067C980.14 39.6718 974.622 45.8787 973.506 53.5736C973.302 54.9769 973.302 56.6512 973.302 60C973.302 63.3488 973.302 65.0231 973.506 66.4264C974.622 74.1212 980.139 80.328 987.424 82.3932ZM1058.71 84.7939C1059.25 83.599 1060.32 82.7483 1061.58 82.3932C1068.86 80.328 1074.38 74.1212 1075.49 66.4264C1075.7 65.0231 1075.7 63.3488 1075.7 60C1075.7 56.6512 1075.7 54.9769 1075.49 53.5736C1074.38 45.8787 1068.86 39.6718 1061.58 37.6067C1060.32 37.2517 1059.25 36.4011 1058.71 35.2063C1057.88 33.3476 1057.47 32.4183 1057.37 32.1191C1056.35 28.7819 1058.06 26.0991 1061.48 25.664C1061.79 25.625 1062.57 25.625 1064.15 25.625C1074.49 25.625 1079.66 25.625 1083.61 27.6654C1087.09 29.4602 1089.91 32.3241 1091.68 35.8466C1093.69 39.8512 1093.69 45.0934 1093.69 55.5779V64.4221C1093.69 74.9066 1093.69 80.1488 1091.68 84.1534C1089.91 87.6759 1087.09 90.5398 1083.61 92.3346C1079.66 94.375 1074.49 94.375 1064.15 94.375C1062.57 94.375 1061.79 94.375 1061.48 94.336C1058.06 93.9009 1056.35 91.2181 1057.37 87.8808C1057.47 87.5818 1057.88 86.6533 1058.71 84.7964L1058.71 84.7939Z" fill="#F3F4F4" fill-opacity="0.1"/>
<path fill-rule="evenodd" clip-rule="evenodd" d="M932.058 173.475C928 181.497 928 191.998 928 213C928 234.002 928 244.503 932.058 252.525C935.628 259.581 941.324 265.317 948.331 268.913C956.295 273 966.722 273 987.576 273H1061.42C1082.28 273 1092.7 273 1100.67 268.913C1107.68 265.317 1113.37 259.581 1116.94 252.525C1121 244.503 1121 234.002 1121 213C1121 191.998 1121 181.497 1116.94 173.475C1113.37 166.419 1107.68 160.683 1100.67 157.087C1092.7 153 1082.28 153 1061.42 153H987.576C966.722 153 956.295 153 948.331 157.087C941.324 160.683 935.628 166.419 932.058 173.475ZM987.424 235.393C988.676 235.748 989.755 236.599 990.289 237.794C991.119 239.652 991.535 240.582 991.626 240.881C992.646 244.218 990.94 246.901 987.521 247.336C987.215 247.375 986.426 247.375 984.847 247.375C974.507 247.375 969.336 247.375 965.387 245.335C961.913 243.54 959.088 240.676 957.318 237.153C955.305 233.149 955.305 227.907 955.305 217.422V208.578C955.305 198.093 955.305 192.851 957.318 188.847C959.088 185.324 961.913 182.46 965.387 180.665C969.336 178.625 974.507 178.625 984.847 178.625C986.426 178.625 987.215 178.625 987.521 178.664C990.941 179.099 992.647 181.782 991.626 185.119C991.535 185.418 991.119 186.348 990.289 188.206C989.755 189.401 988.676 190.252 987.424 190.607C980.14 192.672 974.622 198.879 973.506 206.574C973.302 207.977 973.302 209.651 973.302 213C973.302 216.349 973.302 218.023 973.506 219.426C974.622 227.121 980.139 233.328 987.424 235.393ZM1058.71 237.794C1059.25 236.599 1060.32 235.748 1061.58 235.393C1068.86 233.328 1074.38 227.121 1075.49 219.426C1075.7 218.023 1075.7 216.349 1075.7 213C1075.7 209.651 1075.7 207.977 1075.49 206.574C1074.38 198.879 1068.86 192.672 1061.58 190.607C1060.32 190.252 1059.25 189.401 1058.71 188.206C1057.88 186.348 1057.47 185.418 1057.37 185.119C1056.35 181.782 1058.06 179.099 1061.48 178.664C1061.79 178.625 1062.57 178.625 1064.15 178.625C1074.49 178.625 1079.66 178.625 1083.61 180.665C1087.09 182.46 1089.91 185.324 1091.68 188.847C1093.69 192.851 1093.69 198.093 1093.69 208.578V217.422C1093.69 227.907 1093.69 233.149 1091.68 237.153C1089.91 240.676 1087.09 243.54 1083.61 245.335C1079.66 247.375 1074.49 247.375 1064.15 247.375C1062.57 247.375 1061.79 247.375 1061.48 247.336C1058.06 246.901 1056.35 244.218 1057.37 240.881C1057.47 240.582 1057.88 239.653 1058.71 237.796L1058.71 237.794Z" fill="#F3F4F4" fill-opacity="0.1"/>
<path fill-rule="evenodd" clip-rule="evenodd" d="M1164.06 173.475C1160 181.497 1160 191.998 1160 213C1160 234.002 1160 244.503 1164.06 252.525C1167.63 259.581 1173.32 265.317 1180.33 268.913C1188.3 273 1198.72 273 1219.58 273H1293.42C1314.28 273 1324.7 273 1332.67 268.913C1339.68 265.317 1345.37 259.581 1348.94 252.525C1353 244.503 1353 234.002 1353 213C1353 191.998 1353 181.497 1348.94 173.475C1345.37 166.419 1339.68 160.683 1332.67 157.087C1324.7 153 1314.28 153 1293.42 153H1219.58C1198.72 153 1188.3 153 1180.33 157.087C1173.32 160.683 1167.63 166.419 1164.06 173.475ZM1219.42 235.393C1220.68 235.748 1221.75 236.599 1222.29 237.794C1223.12 239.652 1223.53 240.582 1223.63 240.881C1224.65 244.218 1222.94 246.901 1219.52 247.336C1219.21 247.375 1218.43 247.375 1216.85 247.375C1206.51 247.375 1201.34 247.375 1197.39 245.335C1193.91 243.54 1191.09 240.676 1189.32 237.153C1187.31 233.149 1187.31 227.907 1187.31 217.422V208.578C1187.31 198.093 1187.31 192.851 1189.32 188.847C1191.09 185.324 1193.91 182.46 1197.39 180.665C1201.34 178.625 1206.51 178.625 1216.85 178.625C1218.43 178.625 1219.21 178.625 1219.52 178.664C1222.94 179.099 1224.65 181.782 1223.63 185.119C1223.53 185.418 1223.12 186.348 1222.29 188.206C1221.75 189.401 1220.68 190.252 1219.42 190.607C1212.14 192.672 1206.62 198.879 1205.51 206.574C1205.3 207.977 1205.3 209.651 1205.3 213C1205.3 216.349 1205.3 218.023 1205.51 219.426C1206.62 227.121 1212.14 233.328 1219.42 235.393ZM1290.71 237.794C1291.25 236.599 1292.32 235.748 1293.58 235.393C1300.86 233.328 1306.38 227.121 1307.49 219.426C1307.7 218.023 1307.7 216.349 1307.7 213C1307.7 209.651 1307.7 207.977 1307.49 206.574C1306.38 198.879 1300.86 192.672 1293.58 190.607C1292.32 190.252 1291.25 189.401 1290.71 188.206C1289.88 186.348 1289.47 185.418 1289.37 185.119C1288.35 181.782 1290.06 179.099 1293.48 178.664C1293.79 178.625 1294.57 178.625 1296.15 178.625C1306.49 178.625 1311.66 178.625 1315.61 180.665C1319.09 182.46 1321.91 185.324 1323.68 188.847C1325.69 192.851 1325.69 198.093 1325.69 208.578V217.422C1325.69 227.907 1325.69 233.149 1323.68 237.153C1321.91 240.676 1319.09 243.54 1315.61 245.335C1311.66 247.375 1306.49 247.375 1296.15 247.375C1294.57 247.375 1293.79 247.375 1293.48 247.336C1290.06 246.901 1288.35 244.218 1289.37 240.881C1289.47 240.582 1289.88 239.653 1290.71 237.796L1290.71 237.794Z" fill="#F3F4F4" fill-opacity="0.1"/>
<path fill-rule="evenodd" clip-rule="evenodd" d="M1164.06 20.4754C1160 28.497 1160 38.998 1160 60C1160 81.002 1160 91.5029 1164.06 99.5246C1167.63 106.581 1173.32 112.317 1180.33 115.913C1188.3 120 1198.72 120 1219.58 120H1293.42C1314.28 120 1324.7 120 1332.67 115.913C1339.68 112.317 1345.37 106.581 1348.94 99.5246C1353 91.5029 1353 81.002 1353 60C1353 38.998 1353 28.497 1348.94 20.4754C1345.37 13.4193 1339.68 7.68251 1332.67 4.08726C1324.7 0 1314.28 0 1293.42 0H1219.58C1198.72 0 1188.3 0 1180.33 4.08726C1173.32 7.68251 1167.63 13.4193 1164.06 20.4754ZM1219.42 82.3932C1220.68 82.7483 1221.75 83.599 1222.29 84.7939C1223.12 86.652 1223.53 87.5817 1223.63 87.8808C1224.65 91.2181 1222.94 93.9009 1219.52 94.336C1219.21 94.375 1218.43 94.375 1216.85 94.375C1206.51 94.375 1201.34 94.375 1197.39 92.3346C1193.91 90.5398 1191.09 87.6759 1189.32 84.1534C1187.31 80.1488 1187.31 74.9066 1187.31 64.4221V55.5779C1187.31 45.0934 1187.31 39.8512 1189.32 35.8466C1191.09 32.3241 1193.91 29.4602 1197.39 27.6654C1201.34 25.625 1206.51 25.625 1216.85 25.625C1218.43 25.625 1219.21 25.625 1219.52 25.664C1222.94 26.0991 1224.65 28.7819 1223.63 32.1191C1223.53 32.4183 1223.12 33.348 1222.29 35.2063C1221.75 36.4011 1220.68 37.2517 1219.42 37.6067C1212.14 39.6718 1206.62 45.8787 1205.51 53.5736C1205.3 54.9769 1205.3 56.6512 1205.3 60C1205.3 63.3488 1205.3 65.0231 1205.51 66.4264C1206.62 74.1212 1212.14 80.328 1219.42 82.3932ZM1290.71 84.7939C1291.25 83.599 1292.32 82.7483 1293.58 82.3932C1300.86 80.328 1306.38 74.1212 1307.49 66.4264C1307.7 65.0231 1307.7 63.3488 1307.7 60C1307.7 56.6512 1307.7 54.9769 1307.49 53.5736C1306.38 45.8787 1300.86 39.6718 1293.58 37.6067C1292.32 37.2517 1291.25 36.4011 1290.71 35.2063C1289.88 33.3476 1289.47 32.4183 1289.37 32.1191C1288.35 28.7819 1290.06 26.0991 1293.48 25.664C1293.79 25.625 1294.57 25.625 1296.15 25.625C1306.49 25.625 1311.66 25.625 1315.61 27.6654C1319.09 29.4602 1321.91 32.3241 1323.68 35.8466C1325.69 39.8512 1325.69 45.0934 1325.69 55.5779V64.4221C1325.69 74.9066 1325.69 80.1488 1323.68 84.1534C1321.91 87.6759 1319.09 90.5398 1315.61 92.3346C1311.66 94.375 1306.49 94.375 1296.15 94.375C1294.57 94.375 1293.79 94.375 1293.48 94.336C1290.06 93.9009 1288.35 91.2181 1289.37 87.8808C1289.47 87.5818 1289.88 86.6533 1290.71 84.7964L1290.71 84.7939Z" fill="#F3F4F4" fill-opacity="0.1"/>
<path fill-rule="evenodd" clip-rule="evenodd" d="M1397.06 20.4754C1393 28.497 1393 38.998 1393 60C1393 81.002 1393 91.5029 1397.06 99.5246C1400.63 106.581 1406.32 112.317 1413.33 115.913C1421.3 120 1431.72 120 1452.58 120H1526.42C1547.28 120 1557.7 120 1565.67 115.913C1572.68 112.317 1578.37 106.581 1581.94 99.5246C1586 91.5029 1586 81.002 1586 60C1586 38.998 1586 28.497 1581.94 20.4754C1578.37 13.4193 1572.68 7.68251 1565.67 4.08726C1557.7 0 1547.28 0 1526.42 0H1452.58C1431.72 0 1421.3 0 1413.33 4.08726C1406.32 7.68251 1400.63 13.4193 1397.06 20.4754ZM1452.42 82.3932C1453.68 82.7483 1454.75 83.599 1455.29 84.7939C1456.12 86.652 1456.53 87.5817 1456.63 87.8808C1457.65 91.2181 1455.94 93.9009 1452.52 94.336C1452.21 94.375 1451.43 94.375 1449.85 94.375C1439.51 94.375 1434.34 94.375 1430.39 92.3346C1426.91 90.5398 1424.09 87.6759 1422.32 84.1534C1420.31 80.1488 1420.31 74.9066 1420.31 64.4221V55.5779C1420.31 45.0934 1420.31 39.8512 1422.32 35.8466C1424.09 32.3241 1426.91 29.4602 1430.39 27.6654C1434.34 25.625 1439.51 25.625 1449.85 25.625C1451.43 25.625 1452.21 25.625 1452.52 25.664C1455.94 26.0991 1457.65 28.7819 1456.63 32.1191C1456.53 32.4183 1456.12 33.348 1455.29 35.2063C1454.75 36.4011 1453.68 37.2517 1452.42 37.6067C1445.14 39.6718 1439.62 45.8787 1438.51 53.5736C1438.3 54.9769 1438.3 56.6512 1438.3 60C1438.3 63.3488 1438.3 65.0231 1438.51 66.4264C1439.62 74.1212 1445.14 80.328 1452.42 82.3932ZM1523.71 84.7939C1524.25 83.599 1525.32 82.7483 1526.58 82.3932C1533.86 80.328 1539.38 74.1212 1540.49 66.4264C1540.7 65.0231 1540.7 63.3488 1540.7 60C1540.7 56.6512 1540.7 54.9769 1540.49 53.5736C1539.38 45.8787 1533.86 39.6718 1526.58 37.6067C1525.32 37.2517 1524.25 36.4011 1523.71 35.2063C1522.88 33.3476 1522.47 32.4183 1522.37 32.1191C1521.35 28.7819 1523.06 26.0991 1526.48 25.664C1526.79 25.625 1527.57 25.625 1529.15 25.625C1539.49 25.625 1544.66 25.625 1548.61 27.6654C1552.09 29.4602 1554.91 32.3241 1556.68 35.8466C1558.69 39.8512 1558.69 45.0934 1558.69 55.5779V64.4221C1558.69 74.9066 1558.69 80.1488 1556.68 84.1534C1554.91 87.6759 1552.09 90.5398 1548.61 92.3346C1544.66 94.375 1539.49 94.375 1529.15 94.375C1527.57 94.375 1526.79 94.375 1526.48 94.336C1523.06 93.9009 1521.35 91.2181 1522.37 87.8808C1522.47 87.5818 1522.88 86.6533 1523.71 84.7964L1523.71 84.7939Z" fill="#F3F4F4" fill-opacity="0.1"/>
<path fill-rule="evenodd" clip-rule="evenodd" d="M700.058 332.475C696 340.497 696 350.998 696 372C696 393.002 696 403.503 700.058 411.525C703.628 418.581 709.324 424.317 716.331 427.913C724.295 432 734.722 432 755.576 432H829.424C850.278 432 860.705 432 868.67 427.913C875.676 424.317 881.372 418.581 884.942 411.525C889 403.503 889 393.002 889 372C889 350.998 889 340.497 884.942 332.475C881.372 325.419 875.676 319.683 868.67 316.087C860.705 312 850.278 312 829.424 312H755.576C734.722 312 724.295 312 716.331 316.087C709.324 319.683 703.628 325.419 700.058 332.475ZM755.424 394.393C756.676 394.748 757.755 395.599 758.289 396.794C759.119 398.652 759.535 399.582 759.626 399.881C760.646 403.218 758.94 405.901 755.521 406.336C755.215 406.375 754.426 406.375 752.847 406.375C742.507 406.375 737.336 406.375 733.387 404.335C729.913 402.54 727.088 399.676 725.318 396.153C723.305 392.149 723.305 386.907 723.305 376.422V367.578C723.305 357.093 723.305 351.851 725.318 347.847C727.088 344.324 729.913 341.46 733.387 339.665C737.336 337.625 742.507 337.625 752.847 337.625C754.426 337.625 755.215 337.625 755.521 337.664C758.941 338.099 760.647 340.782 759.626 344.119C759.535 344.418 759.119 345.348 758.289 347.206C757.755 348.401 756.676 349.252 755.424 349.607C748.14 351.672 742.622 357.879 741.506 365.574C741.302 366.977 741.302 368.651 741.302 372C741.302 375.349 741.302 377.023 741.506 378.426C742.622 386.121 748.139 392.328 755.424 394.393ZM826.711 396.794C827.245 395.599 828.324 394.748 829.576 394.393C836.861 392.328 842.378 386.121 843.494 378.426C843.698 377.023 843.698 375.349 843.698 372C843.698 368.651 843.698 366.977 843.494 365.574C842.378 357.879 836.86 351.672 829.576 349.607C828.324 349.252 827.245 348.401 826.711 347.206C825.881 345.348 825.465 344.418 825.374 344.119C824.353 340.782 826.059 338.099 829.479 337.664C829.785 337.625 830.574 337.625 832.153 337.625C842.493 337.625 847.664 337.625 851.613 339.665C855.087 341.46 857.912 344.324 859.682 347.847C861.695 351.851 861.695 357.093 861.695 367.578V376.422C861.695 386.907 861.695 392.149 859.682 396.153C857.912 399.676 855.087 402.54 851.613 404.335C847.664 406.375 842.493 406.375 832.153 406.375C830.574 406.375 829.785 406.375 829.479 406.336C826.06 405.901 824.354 403.218 825.374 399.881C825.465 399.582 825.88 398.653 826.71 396.796L826.711 396.794Z" fill="#F3F4F4" fill-opacity="0.1"/>
<path fill-rule="evenodd" clip-rule="evenodd" d="M468.058 332.475C464 340.497 464 350.998 464 372C464 393.002 464 403.503 468.058 411.525C471.628 418.581 477.324 424.317 484.331 427.913C492.295 432 502.722 432 523.576 432H597.424C618.278 432 628.705 432 636.67 427.913C643.676 424.317 649.372 418.581 652.942 411.525C657 403.503 657 393.002 657 372C657 350.998 657 340.497 652.942 332.475C649.372 325.419 643.676 319.683 636.67 316.087C628.705 312 618.278 312 597.424 312H523.576C502.722 312 492.295 312 484.331 316.087C477.324 319.683 471.628 325.419 468.058 332.475ZM523.424 394.393C524.676 394.748 525.755 395.599 526.289 396.794C527.119 398.652 527.535 399.582 527.626 399.881C528.646 403.218 526.94 405.901 523.521 406.336C523.215 406.375 522.426 406.375 520.847 406.375C510.507 406.375 505.336 406.375 501.387 404.335C497.913 402.54 495.088 399.676 493.318 396.153C491.305 392.149 491.305 386.907 491.305 376.422V367.578C491.305 357.093 491.305 351.851 493.318 347.847C495.088 344.324 497.913 341.46 501.387 339.665C505.336 337.625 510.507 337.625 520.847 337.625C522.426 337.625 523.215 337.625 523.521 337.664C526.941 338.099 528.647 340.782 527.626 344.119C527.535 344.418 527.119 345.348 526.289 347.206C525.755 348.401 524.676 349.252 523.424 349.607C516.14 351.672 510.622 357.879 509.506 365.574C509.302 366.977 509.302 368.651 509.302 372C509.302 375.349 509.302 377.023 509.506 378.426C510.622 386.121 516.139 392.328 523.424 394.393ZM594.711 396.794C595.245 395.599 596.324 394.748 597.576 394.393C604.861 392.328 610.378 386.121 611.494 378.426C611.698 377.023 611.698 375.349 611.698 372C611.698 368.651 611.698 366.977 611.494 365.574C610.378 357.879 604.86 351.672 597.576 349.607C596.324 349.252 595.245 348.401 594.711 347.206C593.881 345.348 593.465 344.418 593.374 344.119C592.353 340.782 594.059 338.099 597.479 337.664C597.785 337.625 598.574 337.625 600.153 337.625C610.493 337.625 615.664 337.625 619.613 339.665C623.087 341.46 625.912 344.324 627.682 347.847C629.695 351.851 629.695 357.093 629.695 367.578V376.422C629.695 386.907 629.695 392.149 627.682 396.153C625.912 399.676 623.087 402.54 619.613 404.335C615.664 406.375 610.493 406.375 600.153 406.375C598.574 406.375 597.785 406.375 597.479 406.336C594.06 405.901 592.354 403.218 593.374 399.881C593.465 399.582 593.88 398.653 594.71 396.796L594.711 396.794Z" fill="#F3F4F4" fill-opacity="0.1"/>
<path fill-rule="evenodd" clip-rule="evenodd" d="M236.058 332.475C232 340.497 232 350.998 232 372C232 393.002 232 403.503 236.058 411.525C239.628 418.581 245.324 424.317 252.331 427.913C260.295 432 270.722 432 291.576 432H365.424C386.278 432 396.705 432 404.67 427.913C411.676 424.317 417.372 418.581 420.942 411.525C425 403.503 425 393.002 425 372C425 350.998 425 340.497 420.942 332.475C417.372 325.419 411.676 319.683 404.67 316.087C396.705 312 386.278 312 365.424 312H291.576C270.722 312 260.295 312 252.331 316.087C245.324 319.683 239.628 325.419 236.058 332.475ZM291.424 394.393C292.676 394.748 293.755 395.599 294.289 396.794C295.119 398.652 295.535 399.582 295.626 399.881C296.646 403.218 294.94 405.901 291.521 406.336C291.215 406.375 290.426 406.375 288.847 406.375C278.507 406.375 273.336 406.375 269.387 404.335C265.913 402.54 263.088 399.676 261.318 396.153C259.305 392.149 259.305 386.907 259.305 376.422V367.578C259.305 357.093 259.305 351.851 261.318 347.847C263.088 344.324 265.913 341.46 269.387 339.665C273.336 337.625 278.507 337.625 288.847 337.625C290.426 337.625 291.215 337.625 291.521 337.664C294.941 338.099 296.647 340.782 295.626 344.119C295.535 344.418 295.119 345.348 294.289 347.206C293.755 348.401 292.676 349.252 291.424 349.607C284.14 351.672 278.622 357.879 277.506 365.574C277.302 366.977 277.302 368.651 277.302 372C277.302 375.349 277.302 377.023 277.506 378.426C278.622 386.121 284.139 392.328 291.424 394.393ZM362.711 396.794C363.245 395.599 364.324 394.748 365.576 394.393C372.861 392.328 378.378 386.121 379.494 378.426C379.698 377.023 379.698 375.349 379.698 372C379.698 368.651 379.698 366.977 379.494 365.574C378.378 357.879 372.86 351.672 365.576 349.607C364.324 349.252 363.245 348.401 362.711 347.206C361.881 345.348 361.465 344.418 361.374 344.119C360.353 340.782 362.059 338.099 365.479 337.664C365.785 337.625 366.574 337.625 368.153 337.625C378.493 337.625 383.664 337.625 387.613 339.665C391.087 341.46 393.912 344.324 395.682 347.847C397.695 351.851 397.695 357.093 397.695 367.578V376.422C397.695 386.907 397.695 392.149 395.682 396.153C393.912 399.676 391.087 402.54 387.613 404.335C383.664 406.375 378.493 406.375 368.153 406.375C366.574 406.375 365.785 406.375 365.479 406.336C362.06 405.901 360.354 403.218 361.374 399.881C361.465 399.582 361.88 398.653 362.71 396.796L362.711 396.794Z" fill="#F3F4F4" fill-opacity="0.1"/>
<path fill-rule="evenodd" clip-rule="evenodd" d="M4.05834 332.475C0 340.497 0 350.998 0 372C0 393.002 0 403.503 4.05834 411.525C7.62816 418.581 13.3244 424.317 20.3305 427.913C28.2955 432 38.7222 432 59.5756 432H133.424C154.278 432 164.705 432 172.67 427.913C179.676 424.317 185.372 418.581 188.942 411.525C193 403.503 193 393.002 193 372C193 350.998 193 340.497 188.942 332.475C185.372 325.419 179.676 319.683 172.67 316.087C164.705 312 154.278 312 133.424 312H59.5756C38.7222 312 28.2955 312 20.3305 316.087C13.3244 319.683 7.62816 325.419 4.05834 332.475ZM59.4238 394.393C60.6762 394.748 61.7546 395.599 62.2886 396.794C63.119 398.652 63.5345 399.582 63.626 399.881C64.6464 403.218 62.9405 405.901 59.5212 406.336C59.2148 406.375 58.4256 406.375 56.8473 406.375C46.5067 406.375 41.3364 406.375 37.3868 404.335C33.9126 402.54 31.0881 399.676 29.3179 396.153C27.3055 392.149 27.3055 386.907 27.3055 376.422V367.578C27.3055 357.093 27.3055 351.851 29.3179 347.847C31.0881 344.324 33.9126 341.46 37.3868 339.665C41.3364 337.625 46.5067 337.625 56.8473 337.625C58.4257 337.625 59.215 337.625 59.5215 337.664C62.9406 338.099 64.6466 340.782 63.6262 344.119C63.5347 344.418 63.1192 345.348 62.2887 347.206C61.7547 348.401 60.6764 349.252 59.4241 349.607C52.1396 351.672 46.6219 357.879 45.5058 365.574C45.3023 366.977 45.3023 368.651 45.3023 372C45.3023 375.349 45.3023 377.023 45.5058 378.426C46.6218 386.121 52.1395 392.328 59.4238 394.393ZM130.711 396.794C131.245 395.599 132.324 394.748 133.576 394.393C140.861 392.328 146.378 386.121 147.494 378.426C147.698 377.023 147.698 375.349 147.698 372C147.698 368.651 147.698 366.977 147.494 365.574C146.378 357.879 140.86 351.672 133.576 349.607C132.324 349.252 131.245 348.401 130.711 347.206C129.881 345.348 129.465 344.418 129.374 344.119C128.353 340.782 130.059 338.099 133.479 337.664C133.785 337.625 134.574 337.625 136.153 337.625C146.493 337.625 151.664 337.625 155.613 339.665C159.087 341.46 161.912 344.324 163.682 347.847C165.695 351.851 165.695 357.093 165.695 367.578V376.422C165.695 386.907 165.695 392.149 163.682 396.153C161.912 399.676 159.087 402.54 155.613 404.335C151.664 406.375 146.493 406.375 136.153 406.375C134.574 406.375 133.785 406.375 133.479 406.336C130.06 405.901 128.354 403.218 129.374 399.881C129.465 399.582 129.88 398.653 130.71 396.796L130.711 396.794Z" fill="#F3F4F4" fill-opacity="0.1"/>
<path fill-rule="evenodd" clip-rule="evenodd" d="M932.058 332.475C928 340.497 928 350.998 928 372C928 393.002 928 403.503 932.058 411.525C935.628 418.581 941.324 424.317 948.331 427.913C956.295 432 966.722 432 987.576 432H1061.42C1082.28 432 1092.7 432 1100.67 427.913C1107.68 424.317 1113.37 418.581 1116.94 411.525C1121 403.503 1121 393.002 1121 372C1121 350.998 1121 340.497 1116.94 332.475C1113.37 325.419 1107.68 319.683 1100.67 316.087C1092.7 312 1082.28 312 1061.42 312H987.576C966.722 312 956.295 312 948.331 316.087C941.324 319.683 935.628 325.419 932.058 332.475ZM987.424 394.393C988.676 394.748 989.755 395.599 990.289 396.794C991.119 398.652 991.535 399.582 991.626 399.881C992.646 403.218 990.94 405.901 987.521 406.336C987.215 406.375 986.426 406.375 984.847 406.375C974.507 406.375 969.336 406.375 965.387 404.335C961.913 402.54 959.088 399.676 957.318 396.153C955.305 392.149 955.305 386.907 955.305 376.422V367.578C955.305 357.093 955.305 351.851 957.318 347.847C959.088 344.324 961.913 341.46 965.387 339.665C969.336 337.625 974.507 337.625 984.847 337.625C986.426 337.625 987.215 337.625 987.521 337.664C990.941 338.099 992.647 340.782 991.626 344.119C991.535 344.418 991.119 345.348 990.289 347.206C989.755 348.401 988.676 349.252 987.424 349.607C980.14 351.672 974.622 357.879 973.506 365.574C973.302 366.977 973.302 368.651 973.302 372C973.302 375.349 973.302 377.023 973.506 378.426C974.622 386.121 980.139 392.328 987.424 394.393ZM1058.71 396.794C1059.25 395.599 1060.32 394.748 1061.58 394.393C1068.86 392.328 1074.38 386.121 1075.49 378.426C1075.7 377.023 1075.7 375.349 1075.7 372C1075.7 368.651 1075.7 366.977 1075.49 365.574C1074.38 357.879 1068.86 351.672 1061.58 349.607C1060.32 349.252 1059.25 348.401 1058.71 347.206C1057.88 345.348 1057.47 344.418 1057.37 344.119C1056.35 340.782 1058.06 338.099 1061.48 337.664C1061.79 337.625 1062.57 337.625 1064.15 337.625C1074.49 337.625 1079.66 337.625 1083.61 339.665C1087.09 341.46 1089.91 344.324 1091.68 347.847C1093.69 351.851 1093.69 357.093 1093.69 367.578V376.422C1093.69 386.907 1093.69 392.149 1091.68 396.153C1089.91 399.676 1087.09 402.54 1083.61 404.335C1079.66 406.375 1074.49 406.375 1064.15 406.375C1062.57 406.375 1061.79 406.375 1061.48 406.336C1058.06 405.901 1056.35 403.218 1057.37 399.881C1057.47 399.582 1057.88 398.653 1058.71 396.796L1058.71 396.794Z" fill="#F3F4F4" fill-opacity="0.1"/>
<path fill-rule="evenodd" clip-rule="evenodd" d="M1164.06 332.475C1160 340.497 1160 350.998 1160 372C1160 393.002 1160 403.503 1164.06 411.525C1167.63 418.581 1173.32 424.317 1180.33 427.913C1188.3 432 1198.72 432 1219.58 432H1293.42C1314.28 432 1324.7 432 1332.67 427.913C1339.68 424.317 1345.37 418.581 1348.94 411.525C1353 403.503 1353 393.002 1353 372C1353 350.998 1353 340.497 1348.94 332.475C1345.37 325.419 1339.68 319.683 1332.67 316.087C1324.7 312 1314.28 312 1293.42 312H1219.58C1198.72 312 1188.3 312 1180.33 316.087C1173.32 319.683 1167.63 325.419 1164.06 332.475ZM1219.42 394.393C1220.68 394.748 1221.75 395.599 1222.29 396.794C1223.12 398.652 1223.53 399.582 1223.63 399.881C1224.65 403.218 1222.94 405.901 1219.52 406.336C1219.21 406.375 1218.43 406.375 1216.85 406.375C1206.51 406.375 1201.34 406.375 1197.39 404.335C1193.91 402.54 1191.09 399.676 1189.32 396.153C1187.31 392.149 1187.31 386.907 1187.31 376.422V367.578C1187.31 357.093 1187.31 351.851 1189.32 347.847C1191.09 344.324 1193.91 341.46 1197.39 339.665C1201.34 337.625 1206.51 337.625 1216.85 337.625C1218.43 337.625 1219.21 337.625 1219.52 337.664C1222.94 338.099 1224.65 340.782 1223.63 344.119C1223.53 344.418 1223.12 345.348 1222.29 347.206C1221.75 348.401 1220.68 349.252 1219.42 349.607C1212.14 351.672 1206.62 357.879 1205.51 365.574C1205.3 366.977 1205.3 368.651 1205.3 372C1205.3 375.349 1205.3 377.023 1205.51 378.426C1206.62 386.121 1212.14 392.328 1219.42 394.393ZM1290.71 396.794C1291.25 395.599 1292.32 394.748 1293.58 394.393C1300.86 392.328 1306.38 386.121 1307.49 378.426C1307.7 377.023 1307.7 375.349 1307.7 372C1307.7 368.651 1307.7 366.977 1307.49 365.574C1306.38 357.879 1300.86 351.672 1293.58 349.607C1292.32 349.252 1291.25 348.401 1290.71 347.206C1289.88 345.348 1289.47 344.418 1289.37 344.119C1288.35 340.782 1290.06 338.099 1293.48 337.664C1293.79 337.625 1294.57 337.625 1296.15 337.625C1306.49 337.625 1311.66 337.625 1315.61 339.665C1319.09 341.46 1321.91 344.324 1323.68 347.847C1325.69 351.851 1325.69 357.093 1325.69 367.578V376.422C1325.69 386.907 1325.69 392.149 1323.68 396.153C1321.91 399.676 1319.09 402.54 1315.61 404.335C1311.66 406.375 1306.49 406.375 1296.15 406.375C1294.57 406.375 1293.79 406.375 1293.48 406.336C1290.06 405.901 1288.35 403.218 1289.37 399.881C1289.47 399.582 1289.88 398.653 1290.71 396.796L1290.71 396.794Z" fill="#F3F4F4" fill-opacity="0.1"/>
<path fill-rule="evenodd" clip-rule="evenodd" d="M1397.06 332.475C1393 340.497 1393 350.998 1393 372C1393 393.002 1393 403.503 1397.06 411.525C1400.63 418.581 1406.32 424.317 1413.33 427.913C1421.3 432 1431.72 432 1452.58 432H1526.42C1547.28 432 1557.7 432 1565.67 427.913C1572.68 424.317 1578.37 418.581 1581.94 411.525C1586 403.503 1586 393.002 1586 372C1586 350.998 1586 340.497 1581.94 332.475C1578.37 325.419 1572.68 319.683 1565.67 316.087C1557.7 312 1547.28 312 1526.42 312H1452.58C1431.72 312 1421.3 312 1413.33 316.087C1406.32 319.683 1400.63 325.419 1397.06 332.475ZM1452.42 394.393C1453.68 394.748 1454.75 395.599 1455.29 396.794C1456.12 398.652 1456.53 399.582 1456.63 399.881C1457.65 403.218 1455.94 405.901 1452.52 406.336C1452.21 406.375 1451.43 406.375 1449.85 406.375C1439.51 406.375 1434.34 406.375 1430.39 404.335C1426.91 402.54 1424.09 399.676 1422.32 396.153C1420.31 392.149 1420.31 386.907 1420.31 376.422V367.578C1420.31 357.093 1420.31 351.851 1422.32 347.847C1424.09 344.324 1426.91 341.46 1430.39 339.665C1434.34 337.625 1439.51 337.625 1449.85 337.625C1451.43 337.625 1452.21 337.625 1452.52 337.664C1455.94 338.099 1457.65 340.782 1456.63 344.119C1456.53 344.418 1456.12 345.348 1455.29 347.206C1454.75 348.401 1453.68 349.252 1452.42 349.607C1445.14 351.672 1439.62 357.879 1438.51 365.574C1438.3 366.977 1438.3 368.651 1438.3 372C1438.3 375.349 1438.3 377.023 1438.51 378.426C1439.62 386.121 1445.14 392.328 1452.42 394.393ZM1523.71 396.794C1524.25 395.599 1525.32 394.748 1526.58 394.393C1533.86 392.328 1539.38 386.121 1540.49 378.426C1540.7 377.023 1540.7 375.349 1540.7 372C1540.7 368.651 1540.7 366.977 1540.49 365.574C1539.38 357.879 1533.86 351.672 1526.58 349.607C1525.32 349.252 1524.25 348.401 1523.71 347.206C1522.88 345.348 1522.47 344.418 1522.37 344.119C1521.35 340.782 1523.06 338.099 1526.48 337.664C1526.79 337.625 1527.57 337.625 1529.15 337.625C1539.49 337.625 1544.66 337.625 1548.61 339.665C1552.09 341.46 1554.91 344.324 1556.68 347.847C1558.69 351.851 1558.69 357.093 1558.69 367.578V376.422C1558.69 386.907 1558.69 392.149 1556.68 396.153C1554.91 399.676 1552.09 402.54 1548.61 404.335C1544.66 406.375 1539.49 406.375 1529.15 406.375C1527.57 406.375 1526.79 406.375 1526.48 406.336C1523.06 405.901 1521.35 403.218 1522.37 399.881C1522.47 399.582 1522.88 398.653 1523.71 396.796L1523.71 396.794Z" fill="#F3F4F4" fill-opacity="0.1"/>
<path fill-rule="evenodd" clip-rule="evenodd" d="M1397.06 173.475C1393 181.497 1393 191.998 1393 213C1393 234.002 1393 244.503 1397.06 252.525C1400.63 259.581 1406.32 265.317 1413.33 268.913C1421.3 273 1431.72 273 1452.58 273H1526.42C1547.28 273 1557.7 273 1565.67 268.913C1572.68 265.317 1578.37 259.581 1581.94 252.525C1586 244.503 1586 234.002 1586 213C1586 191.998 1586 181.497 1581.94 173.475C1578.37 166.419 1572.68 160.683 1565.67 157.087C1557.7 153 1547.28 153 1526.42 153H1452.58C1431.72 153 1421.3 153 1413.33 157.087C1406.32 160.683 1400.63 166.419 1397.06 173.475ZM1452.42 235.393C1453.68 235.748 1454.75 236.599 1455.29 237.794C1456.12 239.652 1456.53 240.582 1456.63 240.881C1457.65 244.218 1455.94 246.901 1452.52 247.336C1452.21 247.375 1451.43 247.375 1449.85 247.375C1439.51 247.375 1434.34 247.375 1430.39 245.335C1426.91 243.54 1424.09 240.676 1422.32 237.153C1420.31 233.149 1420.31 227.907 1420.31 217.422V208.578C1420.31 198.093 1420.31 192.851 1422.32 188.847C1424.09 185.324 1426.91 182.46 1430.39 180.665C1434.34 178.625 1439.51 178.625 1449.85 178.625C1451.43 178.625 1452.21 178.625 1452.52 178.664C1455.94 179.099 1457.65 181.782 1456.63 185.119C1456.53 185.418 1456.12 186.348 1455.29 188.206C1454.75 189.401 1453.68 190.252 1452.42 190.607C1445.14 192.672 1439.62 198.879 1438.51 206.574C1438.3 207.977 1438.3 209.651 1438.3 213C1438.3 216.349 1438.3 218.023 1438.51 219.426C1439.62 227.121 1445.14 233.328 1452.42 235.393ZM1523.71 237.794C1524.25 236.599 1525.32 235.748 1526.58 235.393C1533.86 233.328 1539.38 227.121 1540.49 219.426C1540.7 218.023 1540.7 216.349 1540.7 213C1540.7 209.651 1540.7 207.977 1540.49 206.574C1539.38 198.879 1533.86 192.672 1526.58 190.607C1525.32 190.252 1524.25 189.401 1523.71 188.206C1522.88 186.348 1522.47 185.418 1522.37 185.119C1521.35 181.782 1523.06 179.099 1526.48 178.664C1526.79 178.625 1527.57 178.625 1529.15 178.625C1539.49 178.625 1544.66 178.625 1548.61 180.665C1552.09 182.46 1554.91 185.324 1556.68 188.847C1558.69 192.851 1558.69 198.093 1558.69 208.578V217.422C1558.69 227.907 1558.69 233.149 1556.68 237.153C1554.91 240.676 1552.09 243.54 1548.61 245.335C1544.66 247.375 1539.49 247.375 1529.15 247.375C1527.57 247.375 1526.79 247.375 1526.48 247.336C1523.06 246.901 1521.35 244.218 1522.37 240.881C1522.47 240.582 1522.88 239.653 1523.71 237.796L1523.71 237.794Z" fill="#F3F4F4" fill-opacity="0.1"/>
</svg>
