<svg width="1622" height="288" viewBox="0 0 1622 288" fill="none" xmlns="http://www.w3.org/2000/svg">
<path fill-rule="evenodd" clip-rule="evenodd" d="M451.607 13.309C449 18.5231 449 25.3487 449 39C449 52.6513 449 59.4769 451.607 64.691C453.901 69.2775 457.561 73.0064 462.062 75.3433C467.179 78 473.878 78 487.277 78H534.723C548.122 78 554.821 78 559.938 75.3433C564.439 73.0064 568.099 69.2775 570.393 64.691C573 59.4769 573 52.6513 573 39C573 25.3487 573 18.5231 570.393 13.309C568.099 8.72253 564.439 4.99363 559.938 2.65672C554.821 0 548.122 0 534.723 0H487.277C473.878 0 467.179 0 462.062 2.65672C457.561 4.99363 453.901 8.72253 451.607 13.309ZM487.179 53.5556C487.984 53.7864 488.677 54.3393 489.02 55.116C489.553 56.3238 489.82 56.9281 489.879 57.1225C490.534 59.2918 489.438 61.0356 487.242 61.3184C487.045 61.3438 486.538 61.3438 485.524 61.3438C478.88 61.3438 475.558 61.3438 473.021 60.0175C470.788 58.8509 468.974 56.9893 467.836 54.6997C466.543 52.0967 466.543 48.6893 466.543 41.8743V36.1257C466.543 29.3107 466.543 25.9033 467.836 23.3003C468.974 21.0107 470.788 19.1491 473.021 17.9825C475.558 16.6563 478.88 16.6562 485.524 16.6562C486.538 16.6562 487.045 16.6563 487.242 16.6816C489.439 16.9644 490.535 18.7082 489.879 20.8774C489.82 21.0719 489.553 21.6762 489.02 22.8841C488.677 23.6607 487.984 24.2136 487.179 24.4444C482.499 25.7866 478.954 29.8211 478.237 34.8228C478.106 35.735 478.106 36.8233 478.106 39C478.106 41.1767 478.106 42.265 478.237 43.1772C478.954 48.1788 482.499 52.2132 487.179 53.5556ZM532.98 55.116C533.323 54.3393 534.016 53.7864 534.821 53.5556C539.501 52.2132 543.046 48.1788 543.763 43.1772C543.894 42.265 543.894 41.1767 543.894 39C543.894 36.8233 543.894 35.735 543.763 34.8228C543.046 29.8211 539.501 25.7866 534.821 24.4444C534.016 24.2136 533.323 23.6607 532.98 22.8841C532.447 21.676 532.18 21.0719 532.121 20.8774C531.465 18.7082 532.561 16.9644 534.758 16.6816C534.955 16.6563 535.462 16.6562 536.476 16.6562C543.12 16.6562 546.442 16.6563 548.979 17.9825C551.212 19.1491 553.026 21.0107 554.164 23.3003C555.457 25.9033 555.457 29.3107 555.457 36.1257V41.8743C555.457 48.6893 555.457 52.0967 554.164 54.6997C553.026 56.9893 551.212 58.8509 548.979 60.0175C546.442 61.3438 543.12 61.3438 536.476 61.3438C535.462 61.3438 534.955 61.3438 534.758 61.3184C532.562 61.0356 531.465 59.2918 532.121 57.1225C532.18 56.9282 532.446 56.3246 532.98 55.1177L532.98 55.116Z" fill="#F3F4F4" fill-opacity="0.1"/>
<path fill-rule="evenodd" clip-rule="evenodd" d="M301.628 13.309C299 18.5231 299 25.3487 299 39C299 52.6513 299 59.4769 301.628 64.691C303.941 69.2775 307.63 73.0064 312.167 75.3433C317.326 78 324.079 78 337.585 78H385.415C398.921 78 405.674 78 410.833 75.3433C415.37 73.0064 419.059 69.2775 421.372 64.691C424 59.4769 424 52.6513 424 39C424 25.3487 424 18.5231 421.372 13.309C419.059 8.72253 415.37 4.99363 410.833 2.65672C405.674 0 398.921 0 385.415 0H337.585C324.079 0 317.326 0 312.167 2.65672C307.63 4.99363 303.941 8.72253 301.628 13.309ZM337.487 53.5556C338.298 53.7864 338.996 54.3393 339.342 55.116C339.88 56.3238 340.149 56.9281 340.209 57.1225C340.869 59.2918 339.765 61.0356 337.55 61.3184C337.352 61.3438 336.84 61.3438 335.818 61.3438C329.121 61.3438 325.772 61.3438 323.214 60.0175C320.964 58.8509 319.135 56.9893 317.988 54.6997C316.685 52.0967 316.685 48.6893 316.685 41.8743V36.1257C316.685 29.3107 316.685 25.9033 317.988 23.3003C319.135 21.0107 320.964 19.1491 323.214 17.9825C325.772 16.6563 329.121 16.6562 335.818 16.6562C336.841 16.6562 337.352 16.6563 337.55 16.6816C339.765 16.9644 340.87 18.7082 340.209 20.8774C340.149 21.0719 339.88 21.6762 339.342 22.8841C338.997 23.6607 338.298 24.2136 337.487 24.4444C332.769 25.7866 329.196 29.8211 328.473 34.8228C328.341 35.735 328.341 36.8233 328.341 39C328.341 41.1767 328.341 42.265 328.473 43.1772C329.195 48.1788 332.769 52.2132 337.487 53.5556ZM383.658 55.116C384.004 54.3393 384.702 53.7864 385.513 53.5556C390.231 52.2132 393.805 48.1788 394.527 43.1772C394.659 42.265 394.659 41.1767 394.659 39C394.659 36.8233 394.659 35.735 394.527 34.8228C393.805 29.8211 390.231 25.7866 385.513 24.4444C384.702 24.2136 384.003 23.6607 383.658 22.8841C383.12 21.676 382.851 21.0719 382.791 20.8774C382.13 18.7082 383.235 16.9644 385.45 16.6816C385.648 16.6563 386.16 16.6562 387.182 16.6562C393.879 16.6562 397.228 16.6563 399.786 17.9825C402.036 19.1491 403.865 21.0107 405.012 23.3003C406.315 25.9033 406.315 29.3107 406.315 36.1257V41.8743C406.315 48.6893 406.315 52.0967 405.012 54.6997C403.865 56.9893 402.036 58.8509 399.786 60.0175C397.228 61.3438 393.879 61.3438 387.182 61.3438C386.16 61.3438 385.648 61.3438 385.45 61.3184C383.235 61.0356 382.131 59.2918 382.791 57.1225C382.851 56.9282 383.119 56.3246 383.657 55.1177L383.658 55.116Z" fill="#F3F4F4" fill-opacity="0.1"/>
<path fill-rule="evenodd" clip-rule="evenodd" d="M152.607 13.309C150 18.5231 150 25.3487 150 39C150 52.6513 150 59.4769 152.607 64.691C154.901 69.2775 158.561 73.0064 163.062 75.3433C168.179 78 174.878 78 188.277 78H235.723C249.122 78 255.821 78 260.938 75.3433C265.439 73.0064 269.099 69.2775 271.393 64.691C274 59.4769 274 52.6513 274 39C274 25.3487 274 18.5231 271.393 13.309C269.099 8.72253 265.439 4.99363 260.938 2.65672C255.821 0 249.122 0 235.723 0H188.277C174.878 0 168.179 0 163.062 2.65672C158.561 4.99363 154.901 8.72253 152.607 13.309ZM188.179 53.5556C188.984 53.7864 189.677 54.3393 190.02 55.116C190.553 56.3238 190.82 56.9281 190.879 57.1225C191.534 59.2918 190.438 61.0356 188.242 61.3184C188.045 61.3438 187.538 61.3438 186.524 61.3438C179.88 61.3438 176.558 61.3438 174.021 60.0175C171.788 58.8509 169.974 56.9893 168.836 54.6997C167.543 52.0967 167.543 48.6893 167.543 41.8743V36.1257C167.543 29.3107 167.543 25.9033 168.836 23.3003C169.974 21.0107 171.788 19.1491 174.021 17.9825C176.558 16.6563 179.88 16.6562 186.524 16.6562C187.538 16.6562 188.045 16.6563 188.242 16.6816C190.439 16.9644 191.535 18.7082 190.879 20.8774C190.82 21.0719 190.553 21.6762 190.02 22.8841C189.677 23.6607 188.984 24.2136 188.179 24.4444C183.499 25.7866 179.954 29.8211 179.237 34.8228C179.106 35.735 179.106 36.8233 179.106 39C179.106 41.1767 179.106 42.265 179.237 43.1772C179.954 48.1788 183.499 52.2132 188.179 53.5556ZM233.98 55.116C234.323 54.3393 235.016 53.7864 235.821 53.5556C240.501 52.2132 244.046 48.1788 244.763 43.1772C244.894 42.265 244.894 41.1767 244.894 39C244.894 36.8233 244.894 35.735 244.763 34.8228C244.046 29.8211 240.501 25.7866 235.821 24.4444C235.016 24.2136 234.323 23.6607 233.98 22.8841C233.447 21.676 233.18 21.0719 233.121 20.8774C232.465 18.7082 233.561 16.9644 235.758 16.6816C235.955 16.6563 236.462 16.6562 237.476 16.6562C244.12 16.6562 247.442 16.6563 249.979 17.9825C252.212 19.1491 254.026 21.0107 255.164 23.3003C256.457 25.9033 256.457 29.3107 256.457 36.1257V41.8743C256.457 48.6893 256.457 52.0967 255.164 54.6997C254.026 56.9893 252.212 58.8509 249.979 60.0175C247.442 61.3438 244.12 61.3438 237.476 61.3438C236.462 61.3438 235.955 61.3438 235.758 61.3184C233.562 61.0356 232.465 59.2918 233.121 57.1225C233.18 56.9282 233.446 56.3246 233.98 55.1177L233.98 55.116Z" fill="#F3F4F4" fill-opacity="0.1"/>
<path fill-rule="evenodd" clip-rule="evenodd" d="M2.60743 13.309C0 18.5231 0 25.3487 0 39C0 52.6513 0 59.4769 2.60743 64.691C4.90099 69.2775 8.56072 73.0064 13.0621 75.3433C18.1795 78 24.8785 78 38.2765 78H85.7235C99.1215 78 105.821 78 110.938 75.3433C115.439 73.0064 119.099 69.2775 121.393 64.691C124 59.4769 124 52.6513 124 39C124 25.3487 124 18.5231 121.393 13.309C119.099 8.72253 115.439 4.99363 110.938 2.65672C105.821 0 99.1215 0 85.7235 0H38.2765C24.8785 0 18.1795 0 13.0621 2.65672C8.56072 4.99363 4.90099 8.72253 2.60743 13.309ZM38.179 53.5556C38.9837 53.7864 39.6765 54.3393 40.0196 55.116C40.5531 56.3238 40.8201 56.9281 40.8789 57.1225C41.5345 59.2918 40.4384 61.0356 38.2416 61.3184C38.0447 61.3438 37.5377 61.3438 36.5237 61.3438C29.8799 61.3438 26.5581 61.3438 24.0205 60.0175C21.7884 58.8509 19.9737 56.9893 18.8364 54.6997C17.5434 52.0967 17.5434 48.6893 17.5434 41.8743V36.1257C17.5434 29.3107 17.5434 25.9033 18.8364 23.3003C19.9737 21.0107 21.7884 19.1491 24.0205 17.9825C26.5581 16.6563 29.8799 16.6562 36.5237 16.6562C37.5378 16.6562 38.0448 16.6563 38.2418 16.6816C40.4385 16.9644 41.5346 18.7082 40.879 20.8774C40.8202 21.0719 40.5533 21.6762 40.0197 22.8841C39.6766 23.6607 38.9838 24.2136 38.1792 24.4444C33.499 25.7866 29.9539 29.8211 29.2369 34.8228C29.1061 35.735 29.1061 36.8233 29.1061 39C29.1061 41.1767 29.1061 42.265 29.2369 43.1772C29.9539 48.1788 33.4989 52.2132 38.179 53.5556ZM83.9804 55.116C84.3235 54.3393 85.0163 53.7864 85.821 53.5556C90.5011 52.2132 94.0461 48.1788 94.7631 43.1772C94.8939 42.265 94.8939 41.1767 94.8939 39C94.8939 36.8233 94.8939 35.735 94.7631 34.8228C94.0461 29.8211 90.5009 25.7866 85.8208 24.4444C85.0162 24.2136 84.3234 23.6607 83.9803 22.8841C83.4466 21.676 83.1798 21.0719 83.121 20.8774C82.4654 18.7082 83.5615 16.9644 85.7582 16.6816C85.9552 16.6563 86.4622 16.6562 87.4763 16.6562C94.12 16.6562 97.4419 16.6563 99.9795 17.9825C102.212 19.1491 104.026 21.0107 105.164 23.3003C106.457 25.9033 106.457 29.3107 106.457 36.1257V41.8743C106.457 48.6893 106.457 52.0967 105.164 54.6997C104.026 56.9893 102.212 58.8509 99.9795 60.0175C97.4419 61.3438 94.1201 61.3438 87.4763 61.3438C86.4623 61.3438 85.9553 61.3438 85.7584 61.3184C83.5616 61.0356 82.4655 59.2918 83.1211 57.1225C83.1798 56.9282 83.4465 56.3246 83.9796 55.1177L83.9804 55.116Z" fill="#F3F4F4" fill-opacity="0.1"/>
<path fill-rule="evenodd" clip-rule="evenodd" d="M601.607 13.309C599 18.5231 599 25.3487 599 39C599 52.6513 599 59.4769 601.607 64.691C603.901 69.2775 607.561 73.0064 612.062 75.3433C617.179 78 623.878 78 637.277 78H684.723C698.122 78 704.821 78 709.938 75.3433C714.439 73.0064 718.099 69.2775 720.393 64.691C723 59.4769 723 52.6513 723 39C723 25.3487 723 18.5231 720.393 13.309C718.099 8.72253 714.439 4.99363 709.938 2.65672C704.821 0 698.122 0 684.723 0H637.277C623.878 0 617.179 0 612.062 2.65672C607.561 4.99363 603.901 8.72253 601.607 13.309ZM637.179 53.5556C637.984 53.7864 638.677 54.3393 639.02 55.116C639.553 56.3238 639.82 56.9281 639.879 57.1225C640.534 59.2918 639.438 61.0356 637.242 61.3184C637.045 61.3438 636.538 61.3438 635.524 61.3438C628.88 61.3438 625.558 61.3438 623.021 60.0175C620.788 58.8509 618.974 56.9893 617.836 54.6997C616.543 52.0967 616.543 48.6893 616.543 41.8743V36.1257C616.543 29.3107 616.543 25.9033 617.836 23.3003C618.974 21.0107 620.788 19.1491 623.021 17.9825C625.558 16.6563 628.88 16.6562 635.524 16.6562C636.538 16.6562 637.045 16.6563 637.242 16.6816C639.439 16.9644 640.535 18.7082 639.879 20.8774C639.82 21.0719 639.553 21.6762 639.02 22.8841C638.677 23.6607 637.984 24.2136 637.179 24.4444C632.499 25.7866 628.954 29.8211 628.237 34.8228C628.106 35.735 628.106 36.8233 628.106 39C628.106 41.1767 628.106 42.265 628.237 43.1772C628.954 48.1788 632.499 52.2132 637.179 53.5556ZM682.98 55.116C683.323 54.3393 684.016 53.7864 684.821 53.5556C689.501 52.2132 693.046 48.1788 693.763 43.1772C693.894 42.265 693.894 41.1767 693.894 39C693.894 36.8233 693.894 35.735 693.763 34.8228C693.046 29.8211 689.501 25.7866 684.821 24.4444C684.016 24.2136 683.323 23.6607 682.98 22.8841C682.447 21.676 682.18 21.0719 682.121 20.8774C681.465 18.7082 682.561 16.9644 684.758 16.6816C684.955 16.6563 685.462 16.6562 686.476 16.6562C693.12 16.6562 696.442 16.6563 698.979 17.9825C701.212 19.1491 703.026 21.0107 704.164 23.3003C705.457 25.9033 705.457 29.3107 705.457 36.1257V41.8743C705.457 48.6893 705.457 52.0967 704.164 54.6997C703.026 56.9893 701.212 58.8509 698.979 60.0175C696.442 61.3438 693.12 61.3438 686.476 61.3438C685.462 61.3438 684.955 61.3438 684.758 61.3184C682.562 61.0356 681.465 59.2918 682.121 57.1225C682.18 56.9282 682.446 56.3246 682.98 55.1177L682.98 55.116Z" fill="#F3F4F4" fill-opacity="0.1"/>
<path fill-rule="evenodd" clip-rule="evenodd" d="M750.628 13.309C748 18.5231 748 25.3487 748 39C748 52.6513 748 59.4769 750.628 64.691C752.941 69.2775 756.63 73.0064 761.167 75.3433C766.326 78 773.079 78 786.585 78H834.415C847.921 78 854.674 78 859.833 75.3433C864.37 73.0064 868.059 69.2775 870.372 64.691C873 59.4769 873 52.6513 873 39C873 25.3487 873 18.5231 870.372 13.309C868.059 8.72253 864.37 4.99363 859.833 2.65672C854.674 0 847.921 0 834.415 0H786.585C773.079 0 766.326 0 761.167 2.65672C756.63 4.99363 752.941 8.72253 750.628 13.309ZM786.487 53.5556C787.298 53.7864 787.996 54.3393 788.342 55.116C788.88 56.3238 789.149 56.9281 789.209 57.1225C789.869 59.2918 788.765 61.0356 786.55 61.3184C786.352 61.3438 785.84 61.3438 784.818 61.3438C778.121 61.3438 774.772 61.3438 772.214 60.0175C769.964 58.8509 768.135 56.9893 766.988 54.6997C765.685 52.0967 765.685 48.6893 765.685 41.8743V36.1257C765.685 29.3107 765.685 25.9033 766.988 23.3003C768.135 21.0107 769.964 19.1491 772.214 17.9825C774.772 16.6563 778.121 16.6562 784.818 16.6562C785.841 16.6562 786.352 16.6563 786.55 16.6816C788.765 16.9644 789.87 18.7082 789.209 20.8774C789.149 21.0719 788.88 21.6762 788.342 22.8841C787.997 23.6607 787.298 24.2136 786.487 24.4444C781.769 25.7866 778.196 29.8211 777.473 34.8228C777.341 35.735 777.341 36.8233 777.341 39C777.341 41.1767 777.341 42.265 777.473 43.1772C778.195 48.1788 781.769 52.2132 786.487 53.5556ZM832.658 55.116C833.004 54.3393 833.702 53.7864 834.513 53.5556C839.231 52.2132 842.805 48.1788 843.527 43.1772C843.659 42.265 843.659 41.1767 843.659 39C843.659 36.8233 843.659 35.735 843.527 34.8228C842.805 29.8211 839.231 25.7866 834.513 24.4444C833.702 24.2136 833.003 23.6607 832.658 22.8841C832.12 21.676 831.851 21.0719 831.791 20.8774C831.13 18.7082 832.235 16.9644 834.45 16.6816C834.648 16.6563 835.16 16.6562 836.182 16.6562C842.879 16.6562 846.228 16.6563 848.786 17.9825C851.036 19.1491 852.865 21.0107 854.012 23.3003C855.315 25.9033 855.315 29.3107 855.315 36.1257V41.8743C855.315 48.6893 855.315 52.0967 854.012 54.6997C852.865 56.9893 851.036 58.8509 848.786 60.0175C846.228 61.3438 842.879 61.3438 836.182 61.3438C835.16 61.3438 834.648 61.3438 834.45 61.3184C832.235 61.0356 831.131 59.2918 831.791 57.1225C831.851 56.9282 832.119 56.3246 832.657 55.1177L832.658 55.116Z" fill="#F3F4F4" fill-opacity="0.1"/>
<path fill-rule="evenodd" clip-rule="evenodd" d="M901.607 13.309C899 18.5231 899 25.3487 899 39C899 52.6513 899 59.4769 901.607 64.691C903.901 69.2775 907.561 73.0064 912.062 75.3433C917.179 78 923.878 78 937.277 78H984.723C998.122 78 1004.82 78 1009.94 75.3433C1014.44 73.0064 1018.1 69.2775 1020.39 64.691C1023 59.4769 1023 52.6513 1023 39C1023 25.3487 1023 18.5231 1020.39 13.309C1018.1 8.72253 1014.44 4.99363 1009.94 2.65672C1004.82 0 998.122 0 984.723 0H937.277C923.878 0 917.179 0 912.062 2.65672C907.561 4.99363 903.901 8.72253 901.607 13.309ZM937.179 53.5556C937.984 53.7864 938.677 54.3393 939.02 55.116C939.553 56.3238 939.82 56.9281 939.879 57.1225C940.534 59.2918 939.438 61.0356 937.242 61.3184C937.045 61.3438 936.538 61.3438 935.524 61.3438C928.88 61.3438 925.558 61.3438 923.021 60.0175C920.788 58.8509 918.974 56.9893 917.836 54.6997C916.543 52.0967 916.543 48.6893 916.543 41.8743V36.1257C916.543 29.3107 916.543 25.9033 917.836 23.3003C918.974 21.0107 920.788 19.1491 923.021 17.9825C925.558 16.6563 928.88 16.6562 935.524 16.6562C936.538 16.6562 937.045 16.6563 937.242 16.6816C939.439 16.9644 940.535 18.7082 939.879 20.8774C939.82 21.0719 939.553 21.6762 939.02 22.8841C938.677 23.6607 937.984 24.2136 937.179 24.4444C932.499 25.7866 928.954 29.8211 928.237 34.8228C928.106 35.735 928.106 36.8233 928.106 39C928.106 41.1767 928.106 42.265 928.237 43.1772C928.954 48.1788 932.499 52.2132 937.179 53.5556ZM982.98 55.116C983.323 54.3393 984.016 53.7864 984.821 53.5556C989.501 52.2132 993.046 48.1788 993.763 43.1772C993.894 42.265 993.894 41.1767 993.894 39C993.894 36.8233 993.894 35.735 993.763 34.8228C993.046 29.8211 989.501 25.7866 984.821 24.4444C984.016 24.2136 983.323 23.6607 982.98 22.8841C982.447 21.676 982.18 21.0719 982.121 20.8774C981.465 18.7082 982.561 16.9644 984.758 16.6816C984.955 16.6563 985.462 16.6562 986.476 16.6562C993.12 16.6562 996.442 16.6563 998.979 17.9825C1001.21 19.1491 1003.03 21.0107 1004.16 23.3003C1005.46 25.9033 1005.46 29.3107 1005.46 36.1257V41.8743C1005.46 48.6893 1005.46 52.0967 1004.16 54.6997C1003.03 56.9893 1001.21 58.8509 998.979 60.0175C996.442 61.3438 993.12 61.3438 986.476 61.3438C985.462 61.3438 984.955 61.3438 984.758 61.3184C982.562 61.0356 981.465 59.2918 982.121 57.1225C982.18 56.9282 982.446 56.3246 982.98 55.1177L982.98 55.116Z" fill="#F3F4F4" fill-opacity="0.1"/>
<path fill-rule="evenodd" clip-rule="evenodd" d="M451.607 118.309C449 123.523 449 130.349 449 144C449 157.651 449 164.477 451.607 169.691C453.901 174.277 457.561 178.006 462.062 180.343C467.179 183 473.878 183 487.277 183H534.723C548.122 183 554.821 183 559.938 180.343C564.439 178.006 568.099 174.277 570.393 169.691C573 164.477 573 157.651 573 144C573 130.349 573 123.523 570.393 118.309C568.099 113.723 564.439 109.994 559.938 107.657C554.821 105 548.122 105 534.723 105H487.277C473.878 105 467.179 105 462.062 107.657C457.561 109.994 453.901 113.723 451.607 118.309ZM487.179 158.556C487.984 158.786 488.677 159.339 489.02 160.116C489.553 161.324 489.82 161.928 489.879 162.123C490.534 164.292 489.438 166.036 487.242 166.318C487.045 166.344 486.538 166.344 485.524 166.344C478.88 166.344 475.558 166.344 473.021 165.017C470.788 163.851 468.974 161.989 467.836 159.7C466.543 157.097 466.543 153.689 466.543 146.874V141.126C466.543 134.311 466.543 130.903 467.836 128.3C468.974 126.011 470.788 124.149 473.021 122.983C475.558 121.656 478.88 121.656 485.524 121.656C486.538 121.656 487.045 121.656 487.242 121.682C489.439 121.964 490.535 123.708 489.879 125.877C489.82 126.072 489.553 126.676 489.02 127.884C488.677 128.661 487.984 129.214 487.179 129.444C482.499 130.787 478.954 134.821 478.237 139.823C478.106 140.735 478.106 141.823 478.106 144C478.106 146.177 478.106 147.265 478.237 148.177C478.954 153.179 482.499 157.213 487.179 158.556ZM532.98 160.116C533.323 159.339 534.016 158.786 534.821 158.556C539.501 157.213 543.046 153.179 543.763 148.177C543.894 147.265 543.894 146.177 543.894 144C543.894 141.823 543.894 140.735 543.763 139.823C543.046 134.821 539.501 130.787 534.821 129.444C534.016 129.214 533.323 128.661 532.98 127.884C532.447 126.676 532.18 126.072 532.121 125.877C531.465 123.708 532.561 121.964 534.758 121.682C534.955 121.656 535.462 121.656 536.476 121.656C543.12 121.656 546.442 121.656 548.979 122.983C551.212 124.149 553.026 126.011 554.164 128.3C555.457 130.903 555.457 134.311 555.457 141.126V146.874C555.457 153.689 555.457 157.097 554.164 159.7C553.026 161.989 551.212 163.851 548.979 165.017C546.442 166.344 543.12 166.344 536.476 166.344C535.462 166.344 534.955 166.344 534.758 166.318C532.562 166.036 531.465 164.292 532.121 162.123C532.18 161.928 532.446 161.325 532.98 160.118L532.98 160.116Z" fill="#F3F4F4" fill-opacity="0.1"/>
<path fill-rule="evenodd" clip-rule="evenodd" d="M301.628 118.309C299 123.523 299 130.349 299 144C299 157.651 299 164.477 301.628 169.691C303.941 174.277 307.63 178.006 312.167 180.343C317.326 183 324.079 183 337.585 183H385.415C398.921 183 405.674 183 410.833 180.343C415.37 178.006 419.059 174.277 421.372 169.691C424 164.477 424 157.651 424 144C424 130.349 424 123.523 421.372 118.309C419.059 113.723 415.37 109.994 410.833 107.657C405.674 105 398.921 105 385.415 105H337.585C324.079 105 317.326 105 312.167 107.657C307.63 109.994 303.941 113.723 301.628 118.309ZM337.487 158.556C338.298 158.786 338.996 159.339 339.342 160.116C339.88 161.324 340.149 161.928 340.209 162.123C340.869 164.292 339.765 166.036 337.55 166.318C337.352 166.344 336.84 166.344 335.818 166.344C329.121 166.344 325.772 166.344 323.214 165.017C320.964 163.851 319.135 161.989 317.988 159.7C316.685 157.097 316.685 153.689 316.685 146.874V141.126C316.685 134.311 316.685 130.903 317.988 128.3C319.135 126.011 320.964 124.149 323.214 122.983C325.772 121.656 329.121 121.656 335.818 121.656C336.841 121.656 337.352 121.656 337.55 121.682C339.765 121.964 340.87 123.708 340.209 125.877C340.149 126.072 339.88 126.676 339.342 127.884C338.997 128.661 338.298 129.214 337.487 129.444C332.769 130.787 329.196 134.821 328.473 139.823C328.341 140.735 328.341 141.823 328.341 144C328.341 146.177 328.341 147.265 328.473 148.177C329.195 153.179 332.769 157.213 337.487 158.556ZM383.658 160.116C384.004 159.339 384.702 158.786 385.513 158.556C390.231 157.213 393.805 153.179 394.527 148.177C394.659 147.265 394.659 146.177 394.659 144C394.659 141.823 394.659 140.735 394.527 139.823C393.805 134.821 390.231 130.787 385.513 129.444C384.702 129.214 384.003 128.661 383.658 127.884C383.12 126.676 382.851 126.072 382.791 125.877C382.13 123.708 383.235 121.964 385.45 121.682C385.648 121.656 386.16 121.656 387.182 121.656C393.879 121.656 397.228 121.656 399.786 122.983C402.036 124.149 403.865 126.011 405.012 128.3C406.315 130.903 406.315 134.311 406.315 141.126V146.874C406.315 153.689 406.315 157.097 405.012 159.7C403.865 161.989 402.036 163.851 399.786 165.017C397.228 166.344 393.879 166.344 387.182 166.344C386.16 166.344 385.648 166.344 385.45 166.318C383.235 166.036 382.131 164.292 382.791 162.123C382.851 161.928 383.119 161.325 383.657 160.118L383.658 160.116Z" fill="#F3F4F4" fill-opacity="0.1"/>
<path fill-rule="evenodd" clip-rule="evenodd" d="M152.607 118.309C150 123.523 150 130.349 150 144C150 157.651 150 164.477 152.607 169.691C154.901 174.277 158.561 178.006 163.062 180.343C168.179 183 174.878 183 188.277 183H235.723C249.122 183 255.821 183 260.938 180.343C265.439 178.006 269.099 174.277 271.393 169.691C274 164.477 274 157.651 274 144C274 130.349 274 123.523 271.393 118.309C269.099 113.723 265.439 109.994 260.938 107.657C255.821 105 249.122 105 235.723 105H188.277C174.878 105 168.179 105 163.062 107.657C158.561 109.994 154.901 113.723 152.607 118.309ZM188.179 158.556C188.984 158.786 189.677 159.339 190.02 160.116C190.553 161.324 190.82 161.928 190.879 162.123C191.534 164.292 190.438 166.036 188.242 166.318C188.045 166.344 187.538 166.344 186.524 166.344C179.88 166.344 176.558 166.344 174.021 165.017C171.788 163.851 169.974 161.989 168.836 159.7C167.543 157.097 167.543 153.689 167.543 146.874V141.126C167.543 134.311 167.543 130.903 168.836 128.3C169.974 126.011 171.788 124.149 174.021 122.983C176.558 121.656 179.88 121.656 186.524 121.656C187.538 121.656 188.045 121.656 188.242 121.682C190.439 121.964 191.535 123.708 190.879 125.877C190.82 126.072 190.553 126.676 190.02 127.884C189.677 128.661 188.984 129.214 188.179 129.444C183.499 130.787 179.954 134.821 179.237 139.823C179.106 140.735 179.106 141.823 179.106 144C179.106 146.177 179.106 147.265 179.237 148.177C179.954 153.179 183.499 157.213 188.179 158.556ZM233.98 160.116C234.323 159.339 235.016 158.786 235.821 158.556C240.501 157.213 244.046 153.179 244.763 148.177C244.894 147.265 244.894 146.177 244.894 144C244.894 141.823 244.894 140.735 244.763 139.823C244.046 134.821 240.501 130.787 235.821 129.444C235.016 129.214 234.323 128.661 233.98 127.884C233.447 126.676 233.18 126.072 233.121 125.877C232.465 123.708 233.561 121.964 235.758 121.682C235.955 121.656 236.462 121.656 237.476 121.656C244.12 121.656 247.442 121.656 249.979 122.983C252.212 124.149 254.026 126.011 255.164 128.3C256.457 130.903 256.457 134.311 256.457 141.126V146.874C256.457 153.689 256.457 157.097 255.164 159.7C254.026 161.989 252.212 163.851 249.979 165.017C247.442 166.344 244.12 166.344 237.476 166.344C236.462 166.344 235.955 166.344 235.758 166.318C233.562 166.036 232.465 164.292 233.121 162.123C233.18 161.928 233.446 161.325 233.98 160.118L233.98 160.116Z" fill="#F3F4F4" fill-opacity="0.1"/>
<path fill-rule="evenodd" clip-rule="evenodd" d="M2.60743 118.309C0 123.523 0 130.349 0 144C0 157.651 0 164.477 2.60743 169.691C4.90099 174.277 8.56072 178.006 13.0621 180.343C18.1795 183 24.8785 183 38.2765 183H85.7235C99.1215 183 105.821 183 110.938 180.343C115.439 178.006 119.099 174.277 121.393 169.691C124 164.477 124 157.651 124 144C124 130.349 124 123.523 121.393 118.309C119.099 113.723 115.439 109.994 110.938 107.657C105.821 105 99.1215 105 85.7235 105H38.2765C24.8785 105 18.1795 105 13.0621 107.657C8.56072 109.994 4.90099 113.723 2.60743 118.309ZM38.179 158.556C38.9837 158.786 39.6765 159.339 40.0196 160.116C40.5531 161.324 40.8201 161.928 40.8789 162.123C41.5345 164.292 40.4384 166.036 38.2416 166.318C38.0447 166.344 37.5377 166.344 36.5237 166.344C29.8799 166.344 26.5581 166.344 24.0205 165.017C21.7884 163.851 19.9737 161.989 18.8364 159.7C17.5434 157.097 17.5434 153.689 17.5434 146.874V141.126C17.5434 134.311 17.5434 130.903 18.8364 128.3C19.9737 126.011 21.7884 124.149 24.0205 122.983C26.5581 121.656 29.8799 121.656 36.5237 121.656C37.5378 121.656 38.0448 121.656 38.2418 121.682C40.4385 121.964 41.5346 123.708 40.879 125.877C40.8202 126.072 40.5533 126.676 40.0197 127.884C39.6766 128.661 38.9838 129.214 38.1792 129.444C33.499 130.787 29.9539 134.821 29.2369 139.823C29.1061 140.735 29.1061 141.823 29.1061 144C29.1061 146.177 29.1061 147.265 29.2369 148.177C29.9539 153.179 33.4989 157.213 38.179 158.556ZM83.9804 160.116C84.3235 159.339 85.0163 158.786 85.821 158.556C90.5011 157.213 94.0461 153.179 94.7631 148.177C94.8939 147.265 94.8939 146.177 94.8939 144C94.8939 141.823 94.8939 140.735 94.7631 139.823C94.0461 134.821 90.5009 130.787 85.8208 129.444C85.0162 129.214 84.3234 128.661 83.9803 127.884C83.4466 126.676 83.1798 126.072 83.121 125.877C82.4654 123.708 83.5615 121.964 85.7582 121.682C85.9552 121.656 86.4622 121.656 87.4763 121.656C94.12 121.656 97.4419 121.656 99.9795 122.983C102.212 124.149 104.026 126.011 105.164 128.3C106.457 130.903 106.457 134.311 106.457 141.126V146.874C106.457 153.689 106.457 157.097 105.164 159.7C104.026 161.989 102.212 163.851 99.9795 165.017C97.4419 166.344 94.1201 166.344 87.4763 166.344C86.4623 166.344 85.9553 166.344 85.7584 166.318C83.5616 166.036 82.4655 164.292 83.1211 162.123C83.1798 161.928 83.4465 161.325 83.9796 160.118L83.9804 160.116Z" fill="#F3F4F4" fill-opacity="0.1"/>
<path fill-rule="evenodd" clip-rule="evenodd" d="M601.607 118.309C599 123.523 599 130.349 599 144C599 157.651 599 164.477 601.607 169.691C603.901 174.277 607.561 178.006 612.062 180.343C617.179 183 623.878 183 637.277 183H684.723C698.122 183 704.821 183 709.938 180.343C714.439 178.006 718.099 174.277 720.393 169.691C723 164.477 723 157.651 723 144C723 130.349 723 123.523 720.393 118.309C718.099 113.723 714.439 109.994 709.938 107.657C704.821 105 698.122 105 684.723 105H637.277C623.878 105 617.179 105 612.062 107.657C607.561 109.994 603.901 113.723 601.607 118.309ZM637.179 158.556C637.984 158.786 638.677 159.339 639.02 160.116C639.553 161.324 639.82 161.928 639.879 162.123C640.534 164.292 639.438 166.036 637.242 166.318C637.045 166.344 636.538 166.344 635.524 166.344C628.88 166.344 625.558 166.344 623.021 165.017C620.788 163.851 618.974 161.989 617.836 159.7C616.543 157.097 616.543 153.689 616.543 146.874V141.126C616.543 134.311 616.543 130.903 617.836 128.3C618.974 126.011 620.788 124.149 623.021 122.983C625.558 121.656 628.88 121.656 635.524 121.656C636.538 121.656 637.045 121.656 637.242 121.682C639.439 121.964 640.535 123.708 639.879 125.877C639.82 126.072 639.553 126.676 639.02 127.884C638.677 128.661 637.984 129.214 637.179 129.444C632.499 130.787 628.954 134.821 628.237 139.823C628.106 140.735 628.106 141.823 628.106 144C628.106 146.177 628.106 147.265 628.237 148.177C628.954 153.179 632.499 157.213 637.179 158.556ZM682.98 160.116C683.323 159.339 684.016 158.786 684.821 158.556C689.501 157.213 693.046 153.179 693.763 148.177C693.894 147.265 693.894 146.177 693.894 144C693.894 141.823 693.894 140.735 693.763 139.823C693.046 134.821 689.501 130.787 684.821 129.444C684.016 129.214 683.323 128.661 682.98 127.884C682.447 126.676 682.18 126.072 682.121 125.877C681.465 123.708 682.561 121.964 684.758 121.682C684.955 121.656 685.462 121.656 686.476 121.656C693.12 121.656 696.442 121.656 698.979 122.983C701.212 124.149 703.026 126.011 704.164 128.3C705.457 130.903 705.457 134.311 705.457 141.126V146.874C705.457 153.689 705.457 157.097 704.164 159.7C703.026 161.989 701.212 163.851 698.979 165.017C696.442 166.344 693.12 166.344 686.476 166.344C685.462 166.344 684.955 166.344 684.758 166.318C682.562 166.036 681.465 164.292 682.121 162.123C682.18 161.928 682.446 161.325 682.98 160.118L682.98 160.116Z" fill="#F3F4F4" fill-opacity="0.1"/>
<path fill-rule="evenodd" clip-rule="evenodd" d="M750.628 118.309C748 123.523 748 130.349 748 144C748 157.651 748 164.477 750.628 169.691C752.941 174.277 756.63 178.006 761.167 180.343C766.326 183 773.079 183 786.585 183H834.415C847.921 183 854.674 183 859.833 180.343C864.37 178.006 868.059 174.277 870.372 169.691C873 164.477 873 157.651 873 144C873 130.349 873 123.523 870.372 118.309C868.059 113.723 864.37 109.994 859.833 107.657C854.674 105 847.921 105 834.415 105H786.585C773.079 105 766.326 105 761.167 107.657C756.63 109.994 752.941 113.723 750.628 118.309ZM786.487 158.556C787.298 158.786 787.996 159.339 788.342 160.116C788.88 161.324 789.149 161.928 789.209 162.123C789.869 164.292 788.765 166.036 786.55 166.318C786.352 166.344 785.84 166.344 784.818 166.344C778.121 166.344 774.772 166.344 772.214 165.017C769.964 163.851 768.135 161.989 766.988 159.7C765.685 157.097 765.685 153.689 765.685 146.874V141.126C765.685 134.311 765.685 130.903 766.988 128.3C768.135 126.011 769.964 124.149 772.214 122.983C774.772 121.656 778.121 121.656 784.818 121.656C785.841 121.656 786.352 121.656 786.55 121.682C788.765 121.964 789.87 123.708 789.209 125.877C789.149 126.072 788.88 126.676 788.342 127.884C787.997 128.661 787.298 129.214 786.487 129.444C781.769 130.787 778.196 134.821 777.473 139.823C777.341 140.735 777.341 141.823 777.341 144C777.341 146.177 777.341 147.265 777.473 148.177C778.195 153.179 781.769 157.213 786.487 158.556ZM832.658 160.116C833.004 159.339 833.702 158.786 834.513 158.556C839.231 157.213 842.805 153.179 843.527 148.177C843.659 147.265 843.659 146.177 843.659 144C843.659 141.823 843.659 140.735 843.527 139.823C842.805 134.821 839.231 130.787 834.513 129.444C833.702 129.214 833.003 128.661 832.658 127.884C832.12 126.676 831.851 126.072 831.791 125.877C831.13 123.708 832.235 121.964 834.45 121.682C834.648 121.656 835.16 121.656 836.182 121.656C842.879 121.656 846.228 121.656 848.786 122.983C851.036 124.149 852.865 126.011 854.012 128.3C855.315 130.903 855.315 134.311 855.315 141.126V146.874C855.315 153.689 855.315 157.097 854.012 159.7C852.865 161.989 851.036 163.851 848.786 165.017C846.228 166.344 842.879 166.344 836.182 166.344C835.16 166.344 834.648 166.344 834.45 166.318C832.235 166.036 831.131 164.292 831.791 162.123C831.851 161.928 832.119 161.325 832.657 160.118L832.658 160.116Z" fill="#F3F4F4" fill-opacity="0.1"/>
<path fill-rule="evenodd" clip-rule="evenodd" d="M901.607 118.309C899 123.523 899 130.349 899 144C899 157.651 899 164.477 901.607 169.691C903.901 174.277 907.561 178.006 912.062 180.343C917.179 183 923.878 183 937.277 183H984.723C998.122 183 1004.82 183 1009.94 180.343C1014.44 178.006 1018.1 174.277 1020.39 169.691C1023 164.477 1023 157.651 1023 144C1023 130.349 1023 123.523 1020.39 118.309C1018.1 113.723 1014.44 109.994 1009.94 107.657C1004.82 105 998.122 105 984.723 105H937.277C923.878 105 917.179 105 912.062 107.657C907.561 109.994 903.901 113.723 901.607 118.309ZM937.179 158.556C937.984 158.786 938.677 159.339 939.02 160.116C939.553 161.324 939.82 161.928 939.879 162.123C940.534 164.292 939.438 166.036 937.242 166.318C937.045 166.344 936.538 166.344 935.524 166.344C928.88 166.344 925.558 166.344 923.021 165.017C920.788 163.851 918.974 161.989 917.836 159.7C916.543 157.097 916.543 153.689 916.543 146.874V141.126C916.543 134.311 916.543 130.903 917.836 128.3C918.974 126.011 920.788 124.149 923.021 122.983C925.558 121.656 928.88 121.656 935.524 121.656C936.538 121.656 937.045 121.656 937.242 121.682C939.439 121.964 940.535 123.708 939.879 125.877C939.82 126.072 939.553 126.676 939.02 127.884C938.677 128.661 937.984 129.214 937.179 129.444C932.499 130.787 928.954 134.821 928.237 139.823C928.106 140.735 928.106 141.823 928.106 144C928.106 146.177 928.106 147.265 928.237 148.177C928.954 153.179 932.499 157.213 937.179 158.556ZM982.98 160.116C983.323 159.339 984.016 158.786 984.821 158.556C989.501 157.213 993.046 153.179 993.763 148.177C993.894 147.265 993.894 146.177 993.894 144C993.894 141.823 993.894 140.735 993.763 139.823C993.046 134.821 989.501 130.787 984.821 129.444C984.016 129.214 983.323 128.661 982.98 127.884C982.447 126.676 982.18 126.072 982.121 125.877C981.465 123.708 982.561 121.964 984.758 121.682C984.955 121.656 985.462 121.656 986.476 121.656C993.12 121.656 996.442 121.656 998.979 122.983C1001.21 124.149 1003.03 126.011 1004.16 128.3C1005.46 130.903 1005.46 134.311 1005.46 141.126V146.874C1005.46 153.689 1005.46 157.097 1004.16 159.7C1003.03 161.989 1001.21 163.851 998.979 165.017C996.442 166.344 993.12 166.344 986.476 166.344C985.462 166.344 984.955 166.344 984.758 166.318C982.562 166.036 981.465 164.292 982.121 162.123C982.18 161.928 982.446 161.325 982.98 160.118L982.98 160.116Z" fill="#F3F4F4" fill-opacity="0.1"/>
<path fill-rule="evenodd" clip-rule="evenodd" d="M451.607 223.309C449 228.523 449 235.349 449 249C449 262.651 449 269.477 451.607 274.691C453.901 279.277 457.561 283.006 462.062 285.343C467.179 288 473.878 288 487.277 288H534.723C548.122 288 554.821 288 559.938 285.343C564.439 283.006 568.099 279.277 570.393 274.691C573 269.477 573 262.651 573 249C573 235.349 573 228.523 570.393 223.309C568.099 218.723 564.439 214.994 559.938 212.657C554.821 210 548.122 210 534.723 210H487.277C473.878 210 467.179 210 462.062 212.657C457.561 214.994 453.901 218.723 451.607 223.309ZM487.179 263.556C487.984 263.786 488.677 264.339 489.02 265.116C489.553 266.324 489.82 266.928 489.879 267.123C490.534 269.292 489.438 271.036 487.242 271.318C487.045 271.344 486.538 271.344 485.524 271.344C478.88 271.344 475.558 271.344 473.021 270.017C470.788 268.851 468.974 266.989 467.836 264.7C466.543 262.097 466.543 258.689 466.543 251.874V246.126C466.543 239.311 466.543 235.903 467.836 233.3C468.974 231.011 470.788 229.149 473.021 227.983C475.558 226.656 478.88 226.656 485.524 226.656C486.538 226.656 487.045 226.656 487.242 226.682C489.439 226.964 490.535 228.708 489.879 230.877C489.82 231.072 489.553 231.676 489.02 232.884C488.677 233.661 487.984 234.214 487.179 234.444C482.499 235.787 478.954 239.821 478.237 244.823C478.106 245.735 478.106 246.823 478.106 249C478.106 251.177 478.106 252.265 478.237 253.177C478.954 258.179 482.499 262.213 487.179 263.556ZM532.98 265.116C533.323 264.339 534.016 263.786 534.821 263.556C539.501 262.213 543.046 258.179 543.763 253.177C543.894 252.265 543.894 251.177 543.894 249C543.894 246.823 543.894 245.735 543.763 244.823C543.046 239.821 539.501 235.787 534.821 234.444C534.016 234.214 533.323 233.661 532.98 232.884C532.447 231.676 532.18 231.072 532.121 230.877C531.465 228.708 532.561 226.964 534.758 226.682C534.955 226.656 535.462 226.656 536.476 226.656C543.12 226.656 546.442 226.656 548.979 227.983C551.212 229.149 553.026 231.011 554.164 233.3C555.457 235.903 555.457 239.311 555.457 246.126V251.874C555.457 258.689 555.457 262.097 554.164 264.7C553.026 266.989 551.212 268.851 548.979 270.017C546.442 271.344 543.12 271.344 536.476 271.344C535.462 271.344 534.955 271.344 534.758 271.318C532.562 271.036 531.465 269.292 532.121 267.123C532.18 266.928 532.446 266.325 532.98 265.118L532.98 265.116Z" fill="#F3F4F4" fill-opacity="0.1"/>
<path fill-rule="evenodd" clip-rule="evenodd" d="M301.628 223.309C299 228.523 299 235.349 299 249C299 262.651 299 269.477 301.628 274.691C303.941 279.277 307.63 283.006 312.167 285.343C317.326 288 324.079 288 337.585 288H385.415C398.921 288 405.674 288 410.833 285.343C415.37 283.006 419.059 279.277 421.372 274.691C424 269.477 424 262.651 424 249C424 235.349 424 228.523 421.372 223.309C419.059 218.723 415.37 214.994 410.833 212.657C405.674 210 398.921 210 385.415 210H337.585C324.079 210 317.326 210 312.167 212.657C307.63 214.994 303.941 218.723 301.628 223.309ZM337.487 263.556C338.298 263.786 338.996 264.339 339.342 265.116C339.88 266.324 340.149 266.928 340.209 267.123C340.869 269.292 339.765 271.036 337.55 271.318C337.352 271.344 336.84 271.344 335.818 271.344C329.121 271.344 325.772 271.344 323.214 270.017C320.964 268.851 319.135 266.989 317.988 264.7C316.685 262.097 316.685 258.689 316.685 251.874V246.126C316.685 239.311 316.685 235.903 317.988 233.3C319.135 231.011 320.964 229.149 323.214 227.983C325.772 226.656 329.121 226.656 335.818 226.656C336.841 226.656 337.352 226.656 337.55 226.682C339.765 226.964 340.87 228.708 340.209 230.877C340.149 231.072 339.88 231.676 339.342 232.884C338.997 233.661 338.298 234.214 337.487 234.444C332.769 235.787 329.196 239.821 328.473 244.823C328.341 245.735 328.341 246.823 328.341 249C328.341 251.177 328.341 252.265 328.473 253.177C329.195 258.179 332.769 262.213 337.487 263.556ZM383.658 265.116C384.004 264.339 384.702 263.786 385.513 263.556C390.231 262.213 393.805 258.179 394.527 253.177C394.659 252.265 394.659 251.177 394.659 249C394.659 246.823 394.659 245.735 394.527 244.823C393.805 239.821 390.231 235.787 385.513 234.444C384.702 234.214 384.003 233.661 383.658 232.884C383.12 231.676 382.851 231.072 382.791 230.877C382.13 228.708 383.235 226.964 385.45 226.682C385.648 226.656 386.16 226.656 387.182 226.656C393.879 226.656 397.228 226.656 399.786 227.983C402.036 229.149 403.865 231.011 405.012 233.3C406.315 235.903 406.315 239.311 406.315 246.126V251.874C406.315 258.689 406.315 262.097 405.012 264.7C403.865 266.989 402.036 268.851 399.786 270.017C397.228 271.344 393.879 271.344 387.182 271.344C386.16 271.344 385.648 271.344 385.45 271.318C383.235 271.036 382.131 269.292 382.791 267.123C382.851 266.928 383.119 266.325 383.657 265.118L383.658 265.116Z" fill="#F3F4F4" fill-opacity="0.1"/>
<path fill-rule="evenodd" clip-rule="evenodd" d="M152.607 223.309C150 228.523 150 235.349 150 249C150 262.651 150 269.477 152.607 274.691C154.901 279.277 158.561 283.006 163.062 285.343C168.179 288 174.878 288 188.277 288H235.723C249.122 288 255.821 288 260.938 285.343C265.439 283.006 269.099 279.277 271.393 274.691C274 269.477 274 262.651 274 249C274 235.349 274 228.523 271.393 223.309C269.099 218.723 265.439 214.994 260.938 212.657C255.821 210 249.122 210 235.723 210H188.277C174.878 210 168.179 210 163.062 212.657C158.561 214.994 154.901 218.723 152.607 223.309ZM188.179 263.556C188.984 263.786 189.677 264.339 190.02 265.116C190.553 266.324 190.82 266.928 190.879 267.123C191.534 269.292 190.438 271.036 188.242 271.318C188.045 271.344 187.538 271.344 186.524 271.344C179.88 271.344 176.558 271.344 174.021 270.017C171.788 268.851 169.974 266.989 168.836 264.7C167.543 262.097 167.543 258.689 167.543 251.874V246.126C167.543 239.311 167.543 235.903 168.836 233.3C169.974 231.011 171.788 229.149 174.021 227.983C176.558 226.656 179.88 226.656 186.524 226.656C187.538 226.656 188.045 226.656 188.242 226.682C190.439 226.964 191.535 228.708 190.879 230.877C190.82 231.072 190.553 231.676 190.02 232.884C189.677 233.661 188.984 234.214 188.179 234.444C183.499 235.787 179.954 239.821 179.237 244.823C179.106 245.735 179.106 246.823 179.106 249C179.106 251.177 179.106 252.265 179.237 253.177C179.954 258.179 183.499 262.213 188.179 263.556ZM233.98 265.116C234.323 264.339 235.016 263.786 235.821 263.556C240.501 262.213 244.046 258.179 244.763 253.177C244.894 252.265 244.894 251.177 244.894 249C244.894 246.823 244.894 245.735 244.763 244.823C244.046 239.821 240.501 235.787 235.821 234.444C235.016 234.214 234.323 233.661 233.98 232.884C233.447 231.676 233.18 231.072 233.121 230.877C232.465 228.708 233.561 226.964 235.758 226.682C235.955 226.656 236.462 226.656 237.476 226.656C244.12 226.656 247.442 226.656 249.979 227.983C252.212 229.149 254.026 231.011 255.164 233.3C256.457 235.903 256.457 239.311 256.457 246.126V251.874C256.457 258.689 256.457 262.097 255.164 264.7C254.026 266.989 252.212 268.851 249.979 270.017C247.442 271.344 244.12 271.344 237.476 271.344C236.462 271.344 235.955 271.344 235.758 271.318C233.562 271.036 232.465 269.292 233.121 267.123C233.18 266.928 233.446 266.325 233.98 265.118L233.98 265.116Z" fill="#F3F4F4" fill-opacity="0.1"/>
<path fill-rule="evenodd" clip-rule="evenodd" d="M2.60743 223.309C0 228.523 0 235.349 0 249C0 262.651 0 269.477 2.60743 274.691C4.90099 279.277 8.56072 283.006 13.0621 285.343C18.1795 288 24.8785 288 38.2765 288H85.7235C99.1215 288 105.821 288 110.938 285.343C115.439 283.006 119.099 279.277 121.393 274.691C124 269.477 124 262.651 124 249C124 235.349 124 228.523 121.393 223.309C119.099 218.723 115.439 214.994 110.938 212.657C105.821 210 99.1215 210 85.7235 210H38.2765C24.8785 210 18.1795 210 13.0621 212.657C8.56072 214.994 4.90099 218.723 2.60743 223.309ZM38.179 263.556C38.9837 263.786 39.6765 264.339 40.0196 265.116C40.5531 266.324 40.8201 266.928 40.8789 267.123C41.5345 269.292 40.4384 271.036 38.2416 271.318C38.0447 271.344 37.5377 271.344 36.5237 271.344C29.8799 271.344 26.5581 271.344 24.0205 270.017C21.7884 268.851 19.9737 266.989 18.8364 264.7C17.5434 262.097 17.5434 258.689 17.5434 251.874V246.126C17.5434 239.311 17.5434 235.903 18.8364 233.3C19.9737 231.011 21.7884 229.149 24.0205 227.983C26.5581 226.656 29.8799 226.656 36.5237 226.656C37.5378 226.656 38.0448 226.656 38.2418 226.682C40.4385 226.964 41.5346 228.708 40.879 230.877C40.8202 231.072 40.5533 231.676 40.0197 232.884C39.6766 233.661 38.9838 234.214 38.1792 234.444C33.499 235.787 29.9539 239.821 29.2369 244.823C29.1061 245.735 29.1061 246.823 29.1061 249C29.1061 251.177 29.1061 252.265 29.2369 253.177C29.9539 258.179 33.4989 262.213 38.179 263.556ZM83.9804 265.116C84.3235 264.339 85.0163 263.786 85.821 263.556C90.5011 262.213 94.0461 258.179 94.7631 253.177C94.8939 252.265 94.8939 251.177 94.8939 249C94.8939 246.823 94.8939 245.735 94.7631 244.823C94.0461 239.821 90.5009 235.787 85.8208 234.444C85.0162 234.214 84.3234 233.661 83.9803 232.884C83.4466 231.676 83.1798 231.072 83.121 230.877C82.4654 228.708 83.5615 226.964 85.7582 226.682C85.9552 226.656 86.4622 226.656 87.4763 226.656C94.12 226.656 97.4419 226.656 99.9795 227.983C102.212 229.149 104.026 231.011 105.164 233.3C106.457 235.903 106.457 239.311 106.457 246.126V251.874C106.457 258.689 106.457 262.097 105.164 264.7C104.026 266.989 102.212 268.851 99.9795 270.017C97.4419 271.344 94.1201 271.344 87.4763 271.344C86.4623 271.344 85.9553 271.344 85.7584 271.318C83.5616 271.036 82.4655 269.292 83.1211 267.123C83.1798 266.928 83.4465 266.325 83.9796 265.118L83.9804 265.116Z" fill="#F3F4F4" fill-opacity="0.1"/>
<path fill-rule="evenodd" clip-rule="evenodd" d="M601.607 223.309C599 228.523 599 235.349 599 249C599 262.651 599 269.477 601.607 274.691C603.901 279.277 607.561 283.006 612.062 285.343C617.179 288 623.878 288 637.277 288H684.723C698.122 288 704.821 288 709.938 285.343C714.439 283.006 718.099 279.277 720.393 274.691C723 269.477 723 262.651 723 249C723 235.349 723 228.523 720.393 223.309C718.099 218.723 714.439 214.994 709.938 212.657C704.821 210 698.122 210 684.723 210H637.277C623.878 210 617.179 210 612.062 212.657C607.561 214.994 603.901 218.723 601.607 223.309ZM637.179 263.556C637.984 263.786 638.677 264.339 639.02 265.116C639.553 266.324 639.82 266.928 639.879 267.123C640.534 269.292 639.438 271.036 637.242 271.318C637.045 271.344 636.538 271.344 635.524 271.344C628.88 271.344 625.558 271.344 623.021 270.017C620.788 268.851 618.974 266.989 617.836 264.7C616.543 262.097 616.543 258.689 616.543 251.874V246.126C616.543 239.311 616.543 235.903 617.836 233.3C618.974 231.011 620.788 229.149 623.021 227.983C625.558 226.656 628.88 226.656 635.524 226.656C636.538 226.656 637.045 226.656 637.242 226.682C639.439 226.964 640.535 228.708 639.879 230.877C639.82 231.072 639.553 231.676 639.02 232.884C638.677 233.661 637.984 234.214 637.179 234.444C632.499 235.787 628.954 239.821 628.237 244.823C628.106 245.735 628.106 246.823 628.106 249C628.106 251.177 628.106 252.265 628.237 253.177C628.954 258.179 632.499 262.213 637.179 263.556ZM682.98 265.116C683.323 264.339 684.016 263.786 684.821 263.556C689.501 262.213 693.046 258.179 693.763 253.177C693.894 252.265 693.894 251.177 693.894 249C693.894 246.823 693.894 245.735 693.763 244.823C693.046 239.821 689.501 235.787 684.821 234.444C684.016 234.214 683.323 233.661 682.98 232.884C682.447 231.676 682.18 231.072 682.121 230.877C681.465 228.708 682.561 226.964 684.758 226.682C684.955 226.656 685.462 226.656 686.476 226.656C693.12 226.656 696.442 226.656 698.979 227.983C701.212 229.149 703.026 231.011 704.164 233.3C705.457 235.903 705.457 239.311 705.457 246.126V251.874C705.457 258.689 705.457 262.097 704.164 264.7C703.026 266.989 701.212 268.851 698.979 270.017C696.442 271.344 693.12 271.344 686.476 271.344C685.462 271.344 684.955 271.344 684.758 271.318C682.562 271.036 681.465 269.292 682.121 267.123C682.18 266.928 682.446 266.325 682.98 265.118L682.98 265.116Z" fill="#F3F4F4" fill-opacity="0.1"/>
<path fill-rule="evenodd" clip-rule="evenodd" d="M750.628 223.309C748 228.523 748 235.349 748 249C748 262.651 748 269.477 750.628 274.691C752.941 279.277 756.63 283.006 761.167 285.343C766.326 288 773.079 288 786.585 288H834.415C847.921 288 854.674 288 859.833 285.343C864.37 283.006 868.059 279.277 870.372 274.691C873 269.477 873 262.651 873 249C873 235.349 873 228.523 870.372 223.309C868.059 218.723 864.37 214.994 859.833 212.657C854.674 210 847.921 210 834.415 210H786.585C773.079 210 766.326 210 761.167 212.657C756.63 214.994 752.941 218.723 750.628 223.309ZM786.487 263.556C787.298 263.786 787.996 264.339 788.342 265.116C788.88 266.324 789.149 266.928 789.209 267.123C789.869 269.292 788.765 271.036 786.55 271.318C786.352 271.344 785.84 271.344 784.818 271.344C778.121 271.344 774.772 271.344 772.214 270.017C769.964 268.851 768.135 266.989 766.988 264.7C765.685 262.097 765.685 258.689 765.685 251.874V246.126C765.685 239.311 765.685 235.903 766.988 233.3C768.135 231.011 769.964 229.149 772.214 227.983C774.772 226.656 778.121 226.656 784.818 226.656C785.841 226.656 786.352 226.656 786.55 226.682C788.765 226.964 789.87 228.708 789.209 230.877C789.149 231.072 788.88 231.676 788.342 232.884C787.997 233.661 787.298 234.214 786.487 234.444C781.769 235.787 778.196 239.821 777.473 244.823C777.341 245.735 777.341 246.823 777.341 249C777.341 251.177 777.341 252.265 777.473 253.177C778.195 258.179 781.769 262.213 786.487 263.556ZM832.658 265.116C833.004 264.339 833.702 263.786 834.513 263.556C839.231 262.213 842.805 258.179 843.527 253.177C843.659 252.265 843.659 251.177 843.659 249C843.659 246.823 843.659 245.735 843.527 244.823C842.805 239.821 839.231 235.787 834.513 234.444C833.702 234.214 833.003 233.661 832.658 232.884C832.12 231.676 831.851 231.072 831.791 230.877C831.13 228.708 832.235 226.964 834.45 226.682C834.648 226.656 835.16 226.656 836.182 226.656C842.879 226.656 846.228 226.656 848.786 227.983C851.036 229.149 852.865 231.011 854.012 233.3C855.315 235.903 855.315 239.311 855.315 246.126V251.874C855.315 258.689 855.315 262.097 854.012 264.7C852.865 266.989 851.036 268.851 848.786 270.017C846.228 271.344 842.879 271.344 836.182 271.344C835.16 271.344 834.648 271.344 834.45 271.318C832.235 271.036 831.131 269.292 831.791 267.123C831.851 266.928 832.119 266.325 832.657 265.118L832.658 265.116Z" fill="#F3F4F4" fill-opacity="0.1"/>
<path fill-rule="evenodd" clip-rule="evenodd" d="M901.607 223.309C899 228.523 899 235.349 899 249C899 262.651 899 269.477 901.607 274.691C903.901 279.277 907.561 283.006 912.062 285.343C917.179 288 923.878 288 937.277 288H984.723C998.122 288 1004.82 288 1009.94 285.343C1014.44 283.006 1018.1 279.277 1020.39 274.691C1023 269.477 1023 262.651 1023 249C1023 235.349 1023 228.523 1020.39 223.309C1018.1 218.723 1014.44 214.994 1009.94 212.657C1004.82 210 998.122 210 984.723 210H937.277C923.878 210 917.179 210 912.062 212.657C907.561 214.994 903.901 218.723 901.607 223.309ZM937.179 263.556C937.984 263.786 938.677 264.339 939.02 265.116C939.553 266.324 939.82 266.928 939.879 267.123C940.534 269.292 939.438 271.036 937.242 271.318C937.045 271.344 936.538 271.344 935.524 271.344C928.88 271.344 925.558 271.344 923.021 270.017C920.788 268.851 918.974 266.989 917.836 264.7C916.543 262.097 916.543 258.689 916.543 251.874V246.126C916.543 239.311 916.543 235.903 917.836 233.3C918.974 231.011 920.788 229.149 923.021 227.983C925.558 226.656 928.88 226.656 935.524 226.656C936.538 226.656 937.045 226.656 937.242 226.682C939.439 226.964 940.535 228.708 939.879 230.877C939.82 231.072 939.553 231.676 939.02 232.884C938.677 233.661 937.984 234.214 937.179 234.444C932.499 235.787 928.954 239.821 928.237 244.823C928.106 245.735 928.106 246.823 928.106 249C928.106 251.177 928.106 252.265 928.237 253.177C928.954 258.179 932.499 262.213 937.179 263.556ZM982.98 265.116C983.323 264.339 984.016 263.786 984.821 263.556C989.501 262.213 993.046 258.179 993.763 253.177C993.894 252.265 993.894 251.177 993.894 249C993.894 246.823 993.894 245.735 993.763 244.823C993.046 239.821 989.501 235.787 984.821 234.444C984.016 234.214 983.323 233.661 982.98 232.884C982.447 231.676 982.18 231.072 982.121 230.877C981.465 228.708 982.561 226.964 984.758 226.682C984.955 226.656 985.462 226.656 986.476 226.656C993.12 226.656 996.442 226.656 998.979 227.983C1001.21 229.149 1003.03 231.011 1004.16 233.3C1005.46 235.903 1005.46 239.311 1005.46 246.126V251.874C1005.46 258.689 1005.46 262.097 1004.16 264.7C1003.03 266.989 1001.21 268.851 998.979 270.017C996.442 271.344 993.12 271.344 986.476 271.344C985.462 271.344 984.955 271.344 984.758 271.318C982.562 271.036 981.465 269.292 982.121 267.123C982.18 266.928 982.446 266.325 982.98 265.118L982.98 265.116Z" fill="#F3F4F4" fill-opacity="0.1"/>
<path fill-rule="evenodd" clip-rule="evenodd" d="M1050.61 13.309C1048 18.5231 1048 25.3487 1048 39C1048 52.6513 1048 59.4769 1050.61 64.691C1052.9 69.2775 1056.56 73.0064 1061.06 75.3433C1066.18 78 1072.88 78 1086.28 78H1133.72C1147.12 78 1153.82 78 1158.94 75.3433C1163.44 73.0064 1167.1 69.2775 1169.39 64.691C1172 59.4769 1172 52.6513 1172 39C1172 25.3487 1172 18.5231 1169.39 13.309C1167.1 8.72253 1163.44 4.99363 1158.94 2.65672C1153.82 0 1147.12 0 1133.72 0H1086.28C1072.88 0 1066.18 0 1061.06 2.65672C1056.56 4.99363 1052.9 8.72253 1050.61 13.309ZM1086.18 53.5556C1086.98 53.7864 1087.68 54.3393 1088.02 55.116C1088.55 56.3238 1088.82 56.9281 1088.88 57.1225C1089.53 59.2918 1088.44 61.0356 1086.24 61.3184C1086.04 61.3438 1085.54 61.3438 1084.52 61.3438C1077.88 61.3438 1074.56 61.3438 1072.02 60.0175C1069.79 58.8509 1067.97 56.9893 1066.84 54.6997C1065.54 52.0967 1065.54 48.6893 1065.54 41.8743V36.1257C1065.54 29.3107 1065.54 25.9033 1066.84 23.3003C1067.97 21.0107 1069.79 19.1491 1072.02 17.9825C1074.56 16.6563 1077.88 16.6562 1084.52 16.6562C1085.54 16.6562 1086.04 16.6563 1086.24 16.6816C1088.44 16.9644 1089.53 18.7082 1088.88 20.8774C1088.82 21.0719 1088.55 21.6762 1088.02 22.8841C1087.68 23.6607 1086.98 24.2136 1086.18 24.4444C1081.5 25.7866 1077.95 29.8211 1077.24 34.8228C1077.11 35.735 1077.11 36.8233 1077.11 39C1077.11 41.1767 1077.11 42.265 1077.24 43.1772C1077.95 48.1788 1081.5 52.2132 1086.18 53.5556ZM1131.98 55.116C1132.32 54.3393 1133.02 53.7864 1133.82 53.5556C1138.5 52.2132 1142.05 48.1788 1142.76 43.1772C1142.89 42.265 1142.89 41.1767 1142.89 39C1142.89 36.8233 1142.89 35.735 1142.76 34.8228C1142.05 29.8211 1138.5 25.7866 1133.82 24.4444C1133.02 24.2136 1132.32 23.6607 1131.98 22.8841C1131.45 21.676 1131.18 21.0719 1131.12 20.8774C1130.47 18.7082 1131.56 16.9644 1133.76 16.6816C1133.96 16.6563 1134.46 16.6562 1135.48 16.6562C1142.12 16.6562 1145.44 16.6563 1147.98 17.9825C1150.21 19.1491 1152.03 21.0107 1153.16 23.3003C1154.46 25.9033 1154.46 29.3107 1154.46 36.1257V41.8743C1154.46 48.6893 1154.46 52.0967 1153.16 54.6997C1152.03 56.9893 1150.21 58.8509 1147.98 60.0175C1145.44 61.3438 1142.12 61.3438 1135.48 61.3438C1134.46 61.3438 1133.96 61.3438 1133.76 61.3184C1131.56 61.0356 1130.47 59.2918 1131.12 57.1225C1131.18 56.9282 1131.45 56.3246 1131.98 55.1177L1131.98 55.116Z" fill="#F3F4F4" fill-opacity="0.1"/>
<path fill-rule="evenodd" clip-rule="evenodd" d="M1200.61 13.309C1198 18.5231 1198 25.3487 1198 39C1198 52.6513 1198 59.4769 1200.61 64.691C1202.9 69.2775 1206.56 73.0064 1211.06 75.3433C1216.18 78 1222.88 78 1236.28 78H1283.72C1297.12 78 1303.82 78 1308.94 75.3433C1313.44 73.0064 1317.1 69.2775 1319.39 64.691C1322 59.4769 1322 52.6513 1322 39C1322 25.3487 1322 18.5231 1319.39 13.309C1317.1 8.72253 1313.44 4.99363 1308.94 2.65672C1303.82 0 1297.12 0 1283.72 0H1236.28C1222.88 0 1216.18 0 1211.06 2.65672C1206.56 4.99363 1202.9 8.72253 1200.61 13.309ZM1236.18 53.5556C1236.98 53.7864 1237.68 54.3393 1238.02 55.116C1238.55 56.3238 1238.82 56.9281 1238.88 57.1225C1239.53 59.2918 1238.44 61.0356 1236.24 61.3184C1236.04 61.3438 1235.54 61.3438 1234.52 61.3438C1227.88 61.3438 1224.56 61.3438 1222.02 60.0175C1219.79 58.8509 1217.97 56.9893 1216.84 54.6997C1215.54 52.0967 1215.54 48.6893 1215.54 41.8743V36.1257C1215.54 29.3107 1215.54 25.9033 1216.84 23.3003C1217.97 21.0107 1219.79 19.1491 1222.02 17.9825C1224.56 16.6563 1227.88 16.6562 1234.52 16.6562C1235.54 16.6562 1236.04 16.6563 1236.24 16.6816C1238.44 16.9644 1239.53 18.7082 1238.88 20.8774C1238.82 21.0719 1238.55 21.6762 1238.02 22.8841C1237.68 23.6607 1236.98 24.2136 1236.18 24.4444C1231.5 25.7866 1227.95 29.8211 1227.24 34.8228C1227.11 35.735 1227.11 36.8233 1227.11 39C1227.11 41.1767 1227.11 42.265 1227.24 43.1772C1227.95 48.1788 1231.5 52.2132 1236.18 53.5556ZM1281.98 55.116C1282.32 54.3393 1283.02 53.7864 1283.82 53.5556C1288.5 52.2132 1292.05 48.1788 1292.76 43.1772C1292.89 42.265 1292.89 41.1767 1292.89 39C1292.89 36.8233 1292.89 35.735 1292.76 34.8228C1292.05 29.8211 1288.5 25.7866 1283.82 24.4444C1283.02 24.2136 1282.32 23.6607 1281.98 22.8841C1281.45 21.676 1281.18 21.0719 1281.12 20.8774C1280.47 18.7082 1281.56 16.9644 1283.76 16.6816C1283.96 16.6563 1284.46 16.6562 1285.48 16.6562C1292.12 16.6562 1295.44 16.6563 1297.98 17.9825C1300.21 19.1491 1302.03 21.0107 1303.16 23.3003C1304.46 25.9033 1304.46 29.3107 1304.46 36.1257V41.8743C1304.46 48.6893 1304.46 52.0967 1303.16 54.6997C1302.03 56.9893 1300.21 58.8509 1297.98 60.0175C1295.44 61.3438 1292.12 61.3438 1285.48 61.3438C1284.46 61.3438 1283.96 61.3438 1283.76 61.3184C1281.56 61.0356 1280.47 59.2918 1281.12 57.1225C1281.18 56.9282 1281.45 56.3246 1281.98 55.1177L1281.98 55.116Z" fill="#F3F4F4" fill-opacity="0.1"/>
<path fill-rule="evenodd" clip-rule="evenodd" d="M1349.63 13.309C1347 18.5231 1347 25.3487 1347 39C1347 52.6513 1347 59.4769 1349.63 64.691C1351.94 69.2775 1355.63 73.0064 1360.17 75.3433C1365.33 78 1372.08 78 1385.59 78H1433.41C1446.92 78 1453.67 78 1458.83 75.3433C1463.37 73.0064 1467.06 69.2775 1469.37 64.691C1472 59.4769 1472 52.6513 1472 39C1472 25.3487 1472 18.5231 1469.37 13.309C1467.06 8.72253 1463.37 4.99363 1458.83 2.65672C1453.67 0 1446.92 0 1433.41 0H1385.59C1372.08 0 1365.33 0 1360.17 2.65672C1355.63 4.99363 1351.94 8.72253 1349.63 13.309ZM1385.49 53.5556C1386.3 53.7864 1387 54.3393 1387.34 55.116C1387.88 56.3238 1388.15 56.9281 1388.21 57.1225C1388.87 59.2918 1387.76 61.0356 1385.55 61.3184C1385.35 61.3438 1384.84 61.3438 1383.82 61.3438C1377.12 61.3438 1373.77 61.3438 1371.21 60.0175C1368.96 58.8509 1367.13 56.9893 1365.99 54.6997C1364.68 52.0967 1364.68 48.6893 1364.68 41.8743V36.1257C1364.68 29.3107 1364.68 25.9033 1365.99 23.3003C1367.13 21.0107 1368.96 19.1491 1371.21 17.9825C1373.77 16.6563 1377.12 16.6562 1383.82 16.6562C1384.84 16.6562 1385.35 16.6563 1385.55 16.6816C1387.76 16.9644 1388.87 18.7082 1388.21 20.8774C1388.15 21.0719 1387.88 21.6762 1387.34 22.8841C1387 23.6607 1386.3 24.2136 1385.49 24.4444C1380.77 25.7866 1377.2 29.8211 1376.47 34.8228C1376.34 35.735 1376.34 36.8233 1376.34 39C1376.34 41.1767 1376.34 42.265 1376.47 43.1772C1377.2 48.1788 1380.77 52.2132 1385.49 53.5556ZM1431.66 55.116C1432 54.3393 1432.7 53.7864 1433.51 53.5556C1438.23 52.2132 1441.8 48.1788 1442.53 43.1772C1442.66 42.265 1442.66 41.1767 1442.66 39C1442.66 36.8233 1442.66 35.735 1442.53 34.8228C1441.8 29.8211 1438.23 25.7866 1433.51 24.4444C1432.7 24.2136 1432 23.6607 1431.66 22.8841C1431.12 21.676 1430.85 21.0719 1430.79 20.8774C1430.13 18.7082 1431.24 16.9644 1433.45 16.6816C1433.65 16.6563 1434.16 16.6562 1435.18 16.6562C1441.88 16.6562 1445.23 16.6563 1447.79 17.9825C1450.04 19.1491 1451.87 21.0107 1453.01 23.3003C1454.32 25.9033 1454.32 29.3107 1454.32 36.1257V41.8743C1454.32 48.6893 1454.32 52.0967 1453.01 54.6997C1451.87 56.9893 1450.04 58.8509 1447.79 60.0175C1445.23 61.3438 1441.88 61.3438 1435.18 61.3438C1434.16 61.3438 1433.65 61.3438 1433.45 61.3184C1431.24 61.0356 1430.13 59.2918 1430.79 57.1225C1430.85 56.9282 1431.12 56.3246 1431.66 55.1177L1431.66 55.116Z" fill="#F3F4F4" fill-opacity="0.1"/>
<path fill-rule="evenodd" clip-rule="evenodd" d="M1500.61 13.309C1498 18.5231 1498 25.3487 1498 39C1498 52.6513 1498 59.4769 1500.61 64.691C1502.9 69.2775 1506.56 73.0064 1511.06 75.3433C1516.18 78 1522.88 78 1536.28 78H1583.72C1597.12 78 1603.82 78 1608.94 75.3433C1613.44 73.0064 1617.1 69.2775 1619.39 64.691C1622 59.4769 1622 52.6513 1622 39C1622 25.3487 1622 18.5231 1619.39 13.309C1617.1 8.72253 1613.44 4.99363 1608.94 2.65672C1603.82 0 1597.12 0 1583.72 0H1536.28C1522.88 0 1516.18 0 1511.06 2.65672C1506.56 4.99363 1502.9 8.72253 1500.61 13.309ZM1536.18 53.5556C1536.98 53.7864 1537.68 54.3393 1538.02 55.116C1538.55 56.3238 1538.82 56.9281 1538.88 57.1225C1539.53 59.2918 1538.44 61.0356 1536.24 61.3184C1536.04 61.3438 1535.54 61.3438 1534.52 61.3438C1527.88 61.3438 1524.56 61.3438 1522.02 60.0175C1519.79 58.8509 1517.97 56.9893 1516.84 54.6997C1515.54 52.0967 1515.54 48.6893 1515.54 41.8743V36.1257C1515.54 29.3107 1515.54 25.9033 1516.84 23.3003C1517.97 21.0107 1519.79 19.1491 1522.02 17.9825C1524.56 16.6563 1527.88 16.6562 1534.52 16.6562C1535.54 16.6562 1536.04 16.6563 1536.24 16.6816C1538.44 16.9644 1539.53 18.7082 1538.88 20.8774C1538.82 21.0719 1538.55 21.6762 1538.02 22.8841C1537.68 23.6607 1536.98 24.2136 1536.18 24.4444C1531.5 25.7866 1527.95 29.8211 1527.24 34.8228C1527.11 35.735 1527.11 36.8233 1527.11 39C1527.11 41.1767 1527.11 42.265 1527.24 43.1772C1527.95 48.1788 1531.5 52.2132 1536.18 53.5556ZM1581.98 55.116C1582.32 54.3393 1583.02 53.7864 1583.82 53.5556C1588.5 52.2132 1592.05 48.1788 1592.76 43.1772C1592.89 42.265 1592.89 41.1767 1592.89 39C1592.89 36.8233 1592.89 35.735 1592.76 34.8228C1592.05 29.8211 1588.5 25.7866 1583.82 24.4444C1583.02 24.2136 1582.32 23.6607 1581.98 22.8841C1581.45 21.676 1581.18 21.0719 1581.12 20.8774C1580.47 18.7082 1581.56 16.9644 1583.76 16.6816C1583.96 16.6563 1584.46 16.6562 1585.48 16.6562C1592.12 16.6562 1595.44 16.6563 1597.98 17.9825C1600.21 19.1491 1602.03 21.0107 1603.16 23.3003C1604.46 25.9033 1604.46 29.3107 1604.46 36.1257V41.8743C1604.46 48.6893 1604.46 52.0967 1603.16 54.6997C1602.03 56.9893 1600.21 58.8509 1597.98 60.0175C1595.44 61.3438 1592.12 61.3438 1585.48 61.3438C1584.46 61.3438 1583.96 61.3438 1583.76 61.3184C1581.56 61.0356 1580.47 59.2918 1581.12 57.1225C1581.18 56.9282 1581.45 56.3246 1581.98 55.1177L1581.98 55.116Z" fill="#F3F4F4" fill-opacity="0.1"/>
<path fill-rule="evenodd" clip-rule="evenodd" d="M1050.61 118.309C1048 123.523 1048 130.349 1048 144C1048 157.651 1048 164.477 1050.61 169.691C1052.9 174.277 1056.56 178.006 1061.06 180.343C1066.18 183 1072.88 183 1086.28 183H1133.72C1147.12 183 1153.82 183 1158.94 180.343C1163.44 178.006 1167.1 174.277 1169.39 169.691C1172 164.477 1172 157.651 1172 144C1172 130.349 1172 123.523 1169.39 118.309C1167.1 113.723 1163.44 109.994 1158.94 107.657C1153.82 105 1147.12 105 1133.72 105H1086.28C1072.88 105 1066.18 105 1061.06 107.657C1056.56 109.994 1052.9 113.723 1050.61 118.309ZM1086.18 158.556C1086.98 158.786 1087.68 159.339 1088.02 160.116C1088.55 161.324 1088.82 161.928 1088.88 162.123C1089.53 164.292 1088.44 166.036 1086.24 166.318C1086.04 166.344 1085.54 166.344 1084.52 166.344C1077.88 166.344 1074.56 166.344 1072.02 165.017C1069.79 163.851 1067.97 161.989 1066.84 159.7C1065.54 157.097 1065.54 153.689 1065.54 146.874V141.126C1065.54 134.311 1065.54 130.903 1066.84 128.3C1067.97 126.011 1069.79 124.149 1072.02 122.983C1074.56 121.656 1077.88 121.656 1084.52 121.656C1085.54 121.656 1086.04 121.656 1086.24 121.682C1088.44 121.964 1089.53 123.708 1088.88 125.877C1088.82 126.072 1088.55 126.676 1088.02 127.884C1087.68 128.661 1086.98 129.214 1086.18 129.444C1081.5 130.787 1077.95 134.821 1077.24 139.823C1077.11 140.735 1077.11 141.823 1077.11 144C1077.11 146.177 1077.11 147.265 1077.24 148.177C1077.95 153.179 1081.5 157.213 1086.18 158.556ZM1131.98 160.116C1132.32 159.339 1133.02 158.786 1133.82 158.556C1138.5 157.213 1142.05 153.179 1142.76 148.177C1142.89 147.265 1142.89 146.177 1142.89 144C1142.89 141.823 1142.89 140.735 1142.76 139.823C1142.05 134.821 1138.5 130.787 1133.82 129.444C1133.02 129.214 1132.32 128.661 1131.98 127.884C1131.45 126.676 1131.18 126.072 1131.12 125.877C1130.47 123.708 1131.56 121.964 1133.76 121.682C1133.96 121.656 1134.46 121.656 1135.48 121.656C1142.12 121.656 1145.44 121.656 1147.98 122.983C1150.21 124.149 1152.03 126.011 1153.16 128.3C1154.46 130.903 1154.46 134.311 1154.46 141.126V146.874C1154.46 153.689 1154.46 157.097 1153.16 159.7C1152.03 161.989 1150.21 163.851 1147.98 165.017C1145.44 166.344 1142.12 166.344 1135.48 166.344C1134.46 166.344 1133.96 166.344 1133.76 166.318C1131.56 166.036 1130.47 164.292 1131.12 162.123C1131.18 161.928 1131.45 161.325 1131.98 160.118L1131.98 160.116Z" fill="#F3F4F4" fill-opacity="0.1"/>
<path fill-rule="evenodd" clip-rule="evenodd" d="M1200.61 118.309C1198 123.523 1198 130.349 1198 144C1198 157.651 1198 164.477 1200.61 169.691C1202.9 174.277 1206.56 178.006 1211.06 180.343C1216.18 183 1222.88 183 1236.28 183H1283.72C1297.12 183 1303.82 183 1308.94 180.343C1313.44 178.006 1317.1 174.277 1319.39 169.691C1322 164.477 1322 157.651 1322 144C1322 130.349 1322 123.523 1319.39 118.309C1317.1 113.723 1313.44 109.994 1308.94 107.657C1303.82 105 1297.12 105 1283.72 105H1236.28C1222.88 105 1216.18 105 1211.06 107.657C1206.56 109.994 1202.9 113.723 1200.61 118.309ZM1236.18 158.556C1236.98 158.786 1237.68 159.339 1238.02 160.116C1238.55 161.324 1238.82 161.928 1238.88 162.123C1239.53 164.292 1238.44 166.036 1236.24 166.318C1236.04 166.344 1235.54 166.344 1234.52 166.344C1227.88 166.344 1224.56 166.344 1222.02 165.017C1219.79 163.851 1217.97 161.989 1216.84 159.7C1215.54 157.097 1215.54 153.689 1215.54 146.874V141.126C1215.54 134.311 1215.54 130.903 1216.84 128.3C1217.97 126.011 1219.79 124.149 1222.02 122.983C1224.56 121.656 1227.88 121.656 1234.52 121.656C1235.54 121.656 1236.04 121.656 1236.24 121.682C1238.44 121.964 1239.53 123.708 1238.88 125.877C1238.82 126.072 1238.55 126.676 1238.02 127.884C1237.68 128.661 1236.98 129.214 1236.18 129.444C1231.5 130.787 1227.95 134.821 1227.24 139.823C1227.11 140.735 1227.11 141.823 1227.11 144C1227.11 146.177 1227.11 147.265 1227.24 148.177C1227.95 153.179 1231.5 157.213 1236.18 158.556ZM1281.98 160.116C1282.32 159.339 1283.02 158.786 1283.82 158.556C1288.5 157.213 1292.05 153.179 1292.76 148.177C1292.89 147.265 1292.89 146.177 1292.89 144C1292.89 141.823 1292.89 140.735 1292.76 139.823C1292.05 134.821 1288.5 130.787 1283.82 129.444C1283.02 129.214 1282.32 128.661 1281.98 127.884C1281.45 126.676 1281.18 126.072 1281.12 125.877C1280.47 123.708 1281.56 121.964 1283.76 121.682C1283.96 121.656 1284.46 121.656 1285.48 121.656C1292.12 121.656 1295.44 121.656 1297.98 122.983C1300.21 124.149 1302.03 126.011 1303.16 128.3C1304.46 130.903 1304.46 134.311 1304.46 141.126V146.874C1304.46 153.689 1304.46 157.097 1303.16 159.7C1302.03 161.989 1300.21 163.851 1297.98 165.017C1295.44 166.344 1292.12 166.344 1285.48 166.344C1284.46 166.344 1283.96 166.344 1283.76 166.318C1281.56 166.036 1280.47 164.292 1281.12 162.123C1281.18 161.928 1281.45 161.325 1281.98 160.118L1281.98 160.116Z" fill="#F3F4F4" fill-opacity="0.1"/>
<path fill-rule="evenodd" clip-rule="evenodd" d="M1349.63 118.309C1347 123.523 1347 130.349 1347 144C1347 157.651 1347 164.477 1349.63 169.691C1351.94 174.277 1355.63 178.006 1360.17 180.343C1365.33 183 1372.08 183 1385.59 183H1433.41C1446.92 183 1453.67 183 1458.83 180.343C1463.37 178.006 1467.06 174.277 1469.37 169.691C1472 164.477 1472 157.651 1472 144C1472 130.349 1472 123.523 1469.37 118.309C1467.06 113.723 1463.37 109.994 1458.83 107.657C1453.67 105 1446.92 105 1433.41 105H1385.59C1372.08 105 1365.33 105 1360.17 107.657C1355.63 109.994 1351.94 113.723 1349.63 118.309ZM1385.49 158.556C1386.3 158.786 1387 159.339 1387.34 160.116C1387.88 161.324 1388.15 161.928 1388.21 162.123C1388.87 164.292 1387.76 166.036 1385.55 166.318C1385.35 166.344 1384.84 166.344 1383.82 166.344C1377.12 166.344 1373.77 166.344 1371.21 165.017C1368.96 163.851 1367.13 161.989 1365.99 159.7C1364.68 157.097 1364.68 153.689 1364.68 146.874V141.126C1364.68 134.311 1364.68 130.903 1365.99 128.3C1367.13 126.011 1368.96 124.149 1371.21 122.983C1373.77 121.656 1377.12 121.656 1383.82 121.656C1384.84 121.656 1385.35 121.656 1385.55 121.682C1387.76 121.964 1388.87 123.708 1388.21 125.877C1388.15 126.072 1387.88 126.676 1387.34 127.884C1387 128.661 1386.3 129.214 1385.49 129.444C1380.77 130.787 1377.2 134.821 1376.47 139.823C1376.34 140.735 1376.34 141.823 1376.34 144C1376.34 146.177 1376.34 147.265 1376.47 148.177C1377.2 153.179 1380.77 157.213 1385.49 158.556ZM1431.66 160.116C1432 159.339 1432.7 158.786 1433.51 158.556C1438.23 157.213 1441.8 153.179 1442.53 148.177C1442.66 147.265 1442.66 146.177 1442.66 144C1442.66 141.823 1442.66 140.735 1442.53 139.823C1441.8 134.821 1438.23 130.787 1433.51 129.444C1432.7 129.214 1432 128.661 1431.66 127.884C1431.12 126.676 1430.85 126.072 1430.79 125.877C1430.13 123.708 1431.24 121.964 1433.45 121.682C1433.65 121.656 1434.16 121.656 1435.18 121.656C1441.88 121.656 1445.23 121.656 1447.79 122.983C1450.04 124.149 1451.87 126.011 1453.01 128.3C1454.32 130.903 1454.32 134.311 1454.32 141.126V146.874C1454.32 153.689 1454.32 157.097 1453.01 159.7C1451.87 161.989 1450.04 163.851 1447.79 165.017C1445.23 166.344 1441.88 166.344 1435.18 166.344C1434.16 166.344 1433.65 166.344 1433.45 166.318C1431.24 166.036 1430.13 164.292 1430.79 162.123C1430.85 161.928 1431.12 161.325 1431.66 160.118L1431.66 160.116Z" fill="#F3F4F4" fill-opacity="0.1"/>
<path fill-rule="evenodd" clip-rule="evenodd" d="M1500.61 118.309C1498 123.523 1498 130.349 1498 144C1498 157.651 1498 164.477 1500.61 169.691C1502.9 174.277 1506.56 178.006 1511.06 180.343C1516.18 183 1522.88 183 1536.28 183H1583.72C1597.12 183 1603.82 183 1608.94 180.343C1613.44 178.006 1617.1 174.277 1619.39 169.691C1622 164.477 1622 157.651 1622 144C1622 130.349 1622 123.523 1619.39 118.309C1617.1 113.723 1613.44 109.994 1608.94 107.657C1603.82 105 1597.12 105 1583.72 105H1536.28C1522.88 105 1516.18 105 1511.06 107.657C1506.56 109.994 1502.9 113.723 1500.61 118.309ZM1536.18 158.556C1536.98 158.786 1537.68 159.339 1538.02 160.116C1538.55 161.324 1538.82 161.928 1538.88 162.123C1539.53 164.292 1538.44 166.036 1536.24 166.318C1536.04 166.344 1535.54 166.344 1534.52 166.344C1527.88 166.344 1524.56 166.344 1522.02 165.017C1519.79 163.851 1517.97 161.989 1516.84 159.7C1515.54 157.097 1515.54 153.689 1515.54 146.874V141.126C1515.54 134.311 1515.54 130.903 1516.84 128.3C1517.97 126.011 1519.79 124.149 1522.02 122.983C1524.56 121.656 1527.88 121.656 1534.52 121.656C1535.54 121.656 1536.04 121.656 1536.24 121.682C1538.44 121.964 1539.53 123.708 1538.88 125.877C1538.82 126.072 1538.55 126.676 1538.02 127.884C1537.68 128.661 1536.98 129.214 1536.18 129.444C1531.5 130.787 1527.95 134.821 1527.24 139.823C1527.11 140.735 1527.11 141.823 1527.11 144C1527.11 146.177 1527.11 147.265 1527.24 148.177C1527.95 153.179 1531.5 157.213 1536.18 158.556ZM1581.98 160.116C1582.32 159.339 1583.02 158.786 1583.82 158.556C1588.5 157.213 1592.05 153.179 1592.76 148.177C1592.89 147.265 1592.89 146.177 1592.89 144C1592.89 141.823 1592.89 140.735 1592.76 139.823C1592.05 134.821 1588.5 130.787 1583.82 129.444C1583.02 129.214 1582.32 128.661 1581.98 127.884C1581.45 126.676 1581.18 126.072 1581.12 125.877C1580.47 123.708 1581.56 121.964 1583.76 121.682C1583.96 121.656 1584.46 121.656 1585.48 121.656C1592.12 121.656 1595.44 121.656 1597.98 122.983C1600.21 124.149 1602.03 126.011 1603.16 128.3C1604.46 130.903 1604.46 134.311 1604.46 141.126V146.874C1604.46 153.689 1604.46 157.097 1603.16 159.7C1602.03 161.989 1600.21 163.851 1597.98 165.017C1595.44 166.344 1592.12 166.344 1585.48 166.344C1584.46 166.344 1583.96 166.344 1583.76 166.318C1581.56 166.036 1580.47 164.292 1581.12 162.123C1581.18 161.928 1581.45 161.325 1581.98 160.118L1581.98 160.116Z" fill="#F3F4F4" fill-opacity="0.1"/>
<path fill-rule="evenodd" clip-rule="evenodd" d="M1050.61 223.309C1048 228.523 1048 235.349 1048 249C1048 262.651 1048 269.477 1050.61 274.691C1052.9 279.277 1056.56 283.006 1061.06 285.343C1066.18 288 1072.88 288 1086.28 288H1133.72C1147.12 288 1153.82 288 1158.94 285.343C1163.44 283.006 1167.1 279.277 1169.39 274.691C1172 269.477 1172 262.651 1172 249C1172 235.349 1172 228.523 1169.39 223.309C1167.1 218.723 1163.44 214.994 1158.94 212.657C1153.82 210 1147.12 210 1133.72 210H1086.28C1072.88 210 1066.18 210 1061.06 212.657C1056.56 214.994 1052.9 218.723 1050.61 223.309ZM1086.18 263.556C1086.98 263.786 1087.68 264.339 1088.02 265.116C1088.55 266.324 1088.82 266.928 1088.88 267.123C1089.53 269.292 1088.44 271.036 1086.24 271.318C1086.04 271.344 1085.54 271.344 1084.52 271.344C1077.88 271.344 1074.56 271.344 1072.02 270.017C1069.79 268.851 1067.97 266.989 1066.84 264.7C1065.54 262.097 1065.54 258.689 1065.54 251.874V246.126C1065.54 239.311 1065.54 235.903 1066.84 233.3C1067.97 231.011 1069.79 229.149 1072.02 227.983C1074.56 226.656 1077.88 226.656 1084.52 226.656C1085.54 226.656 1086.04 226.656 1086.24 226.682C1088.44 226.964 1089.53 228.708 1088.88 230.877C1088.82 231.072 1088.55 231.676 1088.02 232.884C1087.68 233.661 1086.98 234.214 1086.18 234.444C1081.5 235.787 1077.95 239.821 1077.24 244.823C1077.11 245.735 1077.11 246.823 1077.11 249C1077.11 251.177 1077.11 252.265 1077.24 253.177C1077.95 258.179 1081.5 262.213 1086.18 263.556ZM1131.98 265.116C1132.32 264.339 1133.02 263.786 1133.82 263.556C1138.5 262.213 1142.05 258.179 1142.76 253.177C1142.89 252.265 1142.89 251.177 1142.89 249C1142.89 246.823 1142.89 245.735 1142.76 244.823C1142.05 239.821 1138.5 235.787 1133.82 234.444C1133.02 234.214 1132.32 233.661 1131.98 232.884C1131.45 231.676 1131.18 231.072 1131.12 230.877C1130.47 228.708 1131.56 226.964 1133.76 226.682C1133.96 226.656 1134.46 226.656 1135.48 226.656C1142.12 226.656 1145.44 226.656 1147.98 227.983C1150.21 229.149 1152.03 231.011 1153.16 233.3C1154.46 235.903 1154.46 239.311 1154.46 246.126V251.874C1154.46 258.689 1154.46 262.097 1153.16 264.7C1152.03 266.989 1150.21 268.851 1147.98 270.017C1145.44 271.344 1142.12 271.344 1135.48 271.344C1134.46 271.344 1133.96 271.344 1133.76 271.318C1131.56 271.036 1130.47 269.292 1131.12 267.123C1131.18 266.928 1131.45 266.325 1131.98 265.118L1131.98 265.116Z" fill="#F3F4F4" fill-opacity="0.1"/>
<path fill-rule="evenodd" clip-rule="evenodd" d="M1200.61 223.309C1198 228.523 1198 235.349 1198 249C1198 262.651 1198 269.477 1200.61 274.691C1202.9 279.277 1206.56 283.006 1211.06 285.343C1216.18 288 1222.88 288 1236.28 288H1283.72C1297.12 288 1303.82 288 1308.94 285.343C1313.44 283.006 1317.1 279.277 1319.39 274.691C1322 269.477 1322 262.651 1322 249C1322 235.349 1322 228.523 1319.39 223.309C1317.1 218.723 1313.44 214.994 1308.94 212.657C1303.82 210 1297.12 210 1283.72 210H1236.28C1222.88 210 1216.18 210 1211.06 212.657C1206.56 214.994 1202.9 218.723 1200.61 223.309ZM1236.18 263.556C1236.98 263.786 1237.68 264.339 1238.02 265.116C1238.55 266.324 1238.82 266.928 1238.88 267.123C1239.53 269.292 1238.44 271.036 1236.24 271.318C1236.04 271.344 1235.54 271.344 1234.52 271.344C1227.88 271.344 1224.56 271.344 1222.02 270.017C1219.79 268.851 1217.97 266.989 1216.84 264.7C1215.54 262.097 1215.54 258.689 1215.54 251.874V246.126C1215.54 239.311 1215.54 235.903 1216.84 233.3C1217.97 231.011 1219.79 229.149 1222.02 227.983C1224.56 226.656 1227.88 226.656 1234.52 226.656C1235.54 226.656 1236.04 226.656 1236.24 226.682C1238.44 226.964 1239.53 228.708 1238.88 230.877C1238.82 231.072 1238.55 231.676 1238.02 232.884C1237.68 233.661 1236.98 234.214 1236.18 234.444C1231.5 235.787 1227.95 239.821 1227.24 244.823C1227.11 245.735 1227.11 246.823 1227.11 249C1227.11 251.177 1227.11 252.265 1227.24 253.177C1227.95 258.179 1231.5 262.213 1236.18 263.556ZM1281.98 265.116C1282.32 264.339 1283.02 263.786 1283.82 263.556C1288.5 262.213 1292.05 258.179 1292.76 253.177C1292.89 252.265 1292.89 251.177 1292.89 249C1292.89 246.823 1292.89 245.735 1292.76 244.823C1292.05 239.821 1288.5 235.787 1283.82 234.444C1283.02 234.214 1282.32 233.661 1281.98 232.884C1281.45 231.676 1281.18 231.072 1281.12 230.877C1280.47 228.708 1281.56 226.964 1283.76 226.682C1283.96 226.656 1284.46 226.656 1285.48 226.656C1292.12 226.656 1295.44 226.656 1297.98 227.983C1300.21 229.149 1302.03 231.011 1303.16 233.3C1304.46 235.903 1304.46 239.311 1304.46 246.126V251.874C1304.46 258.689 1304.46 262.097 1303.16 264.7C1302.03 266.989 1300.21 268.851 1297.98 270.017C1295.44 271.344 1292.12 271.344 1285.48 271.344C1284.46 271.344 1283.96 271.344 1283.76 271.318C1281.56 271.036 1280.47 269.292 1281.12 267.123C1281.18 266.928 1281.45 266.325 1281.98 265.118L1281.98 265.116Z" fill="#F3F4F4" fill-opacity="0.1"/>
<path fill-rule="evenodd" clip-rule="evenodd" d="M1349.63 223.309C1347 228.523 1347 235.349 1347 249C1347 262.651 1347 269.477 1349.63 274.691C1351.94 279.277 1355.63 283.006 1360.17 285.343C1365.33 288 1372.08 288 1385.59 288H1433.41C1446.92 288 1453.67 288 1458.83 285.343C1463.37 283.006 1467.06 279.277 1469.37 274.691C1472 269.477 1472 262.651 1472 249C1472 235.349 1472 228.523 1469.37 223.309C1467.06 218.723 1463.37 214.994 1458.83 212.657C1453.67 210 1446.92 210 1433.41 210H1385.59C1372.08 210 1365.33 210 1360.17 212.657C1355.63 214.994 1351.94 218.723 1349.63 223.309ZM1385.49 263.556C1386.3 263.786 1387 264.339 1387.34 265.116C1387.88 266.324 1388.15 266.928 1388.21 267.123C1388.87 269.292 1387.76 271.036 1385.55 271.318C1385.35 271.344 1384.84 271.344 1383.82 271.344C1377.12 271.344 1373.77 271.344 1371.21 270.017C1368.96 268.851 1367.13 266.989 1365.99 264.7C1364.68 262.097 1364.68 258.689 1364.68 251.874V246.126C1364.68 239.311 1364.68 235.903 1365.99 233.3C1367.13 231.011 1368.96 229.149 1371.21 227.983C1373.77 226.656 1377.12 226.656 1383.82 226.656C1384.84 226.656 1385.35 226.656 1385.55 226.682C1387.76 226.964 1388.87 228.708 1388.21 230.877C1388.15 231.072 1387.88 231.676 1387.34 232.884C1387 233.661 1386.3 234.214 1385.49 234.444C1380.77 235.787 1377.2 239.821 1376.47 244.823C1376.34 245.735 1376.34 246.823 1376.34 249C1376.34 251.177 1376.34 252.265 1376.47 253.177C1377.2 258.179 1380.77 262.213 1385.49 263.556ZM1431.66 265.116C1432 264.339 1432.7 263.786 1433.51 263.556C1438.23 262.213 1441.8 258.179 1442.53 253.177C1442.66 252.265 1442.66 251.177 1442.66 249C1442.66 246.823 1442.66 245.735 1442.53 244.823C1441.8 239.821 1438.23 235.787 1433.51 234.444C1432.7 234.214 1432 233.661 1431.66 232.884C1431.12 231.676 1430.85 231.072 1430.79 230.877C1430.13 228.708 1431.24 226.964 1433.45 226.682C1433.65 226.656 1434.16 226.656 1435.18 226.656C1441.88 226.656 1445.23 226.656 1447.79 227.983C1450.04 229.149 1451.87 231.011 1453.01 233.3C1454.32 235.903 1454.32 239.311 1454.32 246.126V251.874C1454.32 258.689 1454.32 262.097 1453.01 264.7C1451.87 266.989 1450.04 268.851 1447.79 270.017C1445.23 271.344 1441.88 271.344 1435.18 271.344C1434.16 271.344 1433.65 271.344 1433.45 271.318C1431.24 271.036 1430.13 269.292 1430.79 267.123C1430.85 266.928 1431.12 266.325 1431.66 265.118L1431.66 265.116Z" fill="#F3F4F4" fill-opacity="0.1"/>
<path fill-rule="evenodd" clip-rule="evenodd" d="M1500.61 223.309C1498 228.523 1498 235.349 1498 249C1498 262.651 1498 269.477 1500.61 274.691C1502.9 279.277 1506.56 283.006 1511.06 285.343C1516.18 288 1522.88 288 1536.28 288H1583.72C1597.12 288 1603.82 288 1608.94 285.343C1613.44 283.006 1617.1 279.277 1619.39 274.691C1622 269.477 1622 262.651 1622 249C1622 235.349 1622 228.523 1619.39 223.309C1617.1 218.723 1613.44 214.994 1608.94 212.657C1603.82 210 1597.12 210 1583.72 210H1536.28C1522.88 210 1516.18 210 1511.06 212.657C1506.56 214.994 1502.9 218.723 1500.61 223.309ZM1536.18 263.556C1536.98 263.786 1537.68 264.339 1538.02 265.116C1538.55 266.324 1538.82 266.928 1538.88 267.123C1539.53 269.292 1538.44 271.036 1536.24 271.318C1536.04 271.344 1535.54 271.344 1534.52 271.344C1527.88 271.344 1524.56 271.344 1522.02 270.017C1519.79 268.851 1517.97 266.989 1516.84 264.7C1515.54 262.097 1515.54 258.689 1515.54 251.874V246.126C1515.54 239.311 1515.54 235.903 1516.84 233.3C1517.97 231.011 1519.79 229.149 1522.02 227.983C1524.56 226.656 1527.88 226.656 1534.52 226.656C1535.54 226.656 1536.04 226.656 1536.24 226.682C1538.44 226.964 1539.53 228.708 1538.88 230.877C1538.82 231.072 1538.55 231.676 1538.02 232.884C1537.68 233.661 1536.98 234.214 1536.18 234.444C1531.5 235.787 1527.95 239.821 1527.24 244.823C1527.11 245.735 1527.11 246.823 1527.11 249C1527.11 251.177 1527.11 252.265 1527.24 253.177C1527.95 258.179 1531.5 262.213 1536.18 263.556ZM1581.98 265.116C1582.32 264.339 1583.02 263.786 1583.82 263.556C1588.5 262.213 1592.05 258.179 1592.76 253.177C1592.89 252.265 1592.89 251.177 1592.89 249C1592.89 246.823 1592.89 245.735 1592.76 244.823C1592.05 239.821 1588.5 235.787 1583.82 234.444C1583.02 234.214 1582.32 233.661 1581.98 232.884C1581.45 231.676 1581.18 231.072 1581.12 230.877C1580.47 228.708 1581.56 226.964 1583.76 226.682C1583.96 226.656 1584.46 226.656 1585.48 226.656C1592.12 226.656 1595.44 226.656 1597.98 227.983C1600.21 229.149 1602.03 231.011 1603.16 233.3C1604.46 235.903 1604.46 239.311 1604.46 246.126V251.874C1604.46 258.689 1604.46 262.097 1603.16 264.7C1602.03 266.989 1600.21 268.851 1597.98 270.017C1595.44 271.344 1592.12 271.344 1585.48 271.344C1584.46 271.344 1583.96 271.344 1583.76 271.318C1581.56 271.036 1580.47 269.292 1581.12 267.123C1581.18 266.928 1581.45 266.325 1581.98 265.118L1581.98 265.116Z" fill="#F3F4F4" fill-opacity="0.1"/>
</svg>
