<svg width="1440" height="1440" viewBox="0 0 1440 1440" fill="none" xmlns="http://www.w3.org/2000/svg">
<path d="M1188.79 765.405L328.85 1263.52L324.19 1266.22L309.53 1274.71C306.45 1276.49 303.31 1277.93 300.14 1279.03C300 1279.09 299.87 1279.14 299.73 1279.18C289.52 1282.67 279 1282.81 269.3 1280.26C264.14 1278.91 259.22 1276.8 254.69 1274.02C239.64 1264.81 229 1248.29 229 1228.07V906.985C229.09 906.955 229.18 906.925 229.27 906.885C245.16 901.185 261.06 895.475 276.95 889.765C495.89 811.155 714.82 732.545 933.75 653.935H933.76C955.3 646.195 976.83 638.465 998.37 630.735C1007.4 627.485 1016.42 624.245 1025.45 621.005C1053.72 610.855 1085.02 613.575 1111.11 628.475C1139.15 644.475 1167.18 660.475 1195.22 676.475C1224.42 699.365 1222.29 746.005 1188.79 765.405Z" fill="#312F8D"/>
<path d="M984 583.505C984 583.605 984 583.695 983.99 583.795C983.98 586.935 983.69 590.005 983.15 592.995L888.52 616.625L363.52 747.735L333.14 755.325L313.48 760.235L303.35 762.765L302.3 763.025L291.27 765.785L291.19 765.805L290.93 765.865C290.93 765.865 290.84 765.885 290.67 765.925C288.87 766.315 277.83 768.415 264.82 763.965C264.39 763.825 263.95 763.665 263.5 763.495C263.41 763.465 263.32 763.435 263.23 763.395C263.15 763.365 263.07 763.335 262.99 763.295C262.91 763.265 262.83 763.235 262.75 763.205C262.19 762.985 261.64 762.755 261.1 762.515C261.01 762.485 260.95 762.455 260.86 762.425C260.27 762.175 259.68 761.895 259.08 761.605C258.62 761.385 258.15 761.145 257.69 760.905C257.24 760.665 256.78 760.425 256.33 760.165C255.84 759.895 255.36 759.615 254.88 759.325C254.64 759.185 254.41 759.035 254.17 758.885C253.94 758.735 253.7 758.585 253.47 758.445C253.39 758.395 253.3 758.335 253.22 758.275C252.9 758.065 252.58 757.845 252.26 757.625C251.85 757.345 251.45 757.065 251.05 756.765C250.36 756.265 249.67 755.735 248.98 755.175C247.14 753.715 245.41 752.135 243.83 750.445C243.67 750.285 243.52 750.115 243.38 749.955L247.29 741.415L247.93 740.025L249.28 737.085L269 694.055L284.59 660.045L393.46 422.525L537.28 389.175L585.8 377.925L620.79 369.815C641.11 365.105 662.46 368.295 680.53 378.735C769.53 430.085 858.54 481.425 947.54 532.775C953.61 536.275 959.69 539.775 965.76 543.285C976.93 553.085 984 567.475 984 583.505Z" fill="#3F45AA"/>
<path d="M984 583.505C984 583.605 984 583.695 983.99 583.795C983.98 586.935 983.69 590.005 983.15 592.995L888.52 616.625L363.52 747.735L333.14 755.325L313.48 760.235L303.35 762.765L302.3 763.025L291.27 765.785L291.19 765.805L290.93 765.865C290.93 765.865 290.84 765.885 290.67 765.925C288.87 766.315 277.83 768.415 264.82 763.965C264.39 763.825 263.95 763.665 263.5 763.495C263.41 763.465 263.32 763.435 263.23 763.395C263.15 763.365 263.07 763.335 262.99 763.295C262.91 763.265 262.83 763.235 262.75 763.205C262.19 762.985 261.64 762.755 261.1 762.515C261.01 762.485 260.95 762.455 260.86 762.425C260.27 762.175 259.68 761.895 259.08 761.605C258.62 761.385 258.15 761.145 257.69 760.905C257.24 760.665 256.78 760.425 256.33 760.165C255.84 759.895 255.36 759.615 254.88 759.325C254.64 759.185 254.41 759.035 254.17 758.885C253.94 758.735 253.7 758.585 253.47 758.445C253.39 758.395 253.3 758.335 253.22 758.275C252.9 758.065 252.58 757.845 252.26 757.625C251.85 757.345 251.45 757.065 251.05 756.765C250.36 756.265 249.67 755.735 248.98 755.175C247.14 753.715 245.41 752.135 243.83 750.445C243.67 750.285 243.52 750.115 243.38 749.955L247.29 741.415L247.93 740.025L249.28 737.085L269 694.055L284.59 660.045L393.46 422.525L537.28 389.175L585.8 377.925L620.79 369.815C641.11 365.105 662.46 368.295 680.53 378.735C769.53 430.085 858.54 481.425 947.54 532.775C953.61 536.275 959.69 539.775 965.76 543.285C976.93 553.085 984 567.475 984 583.505Z" fill="#312F8D"/>
<g opacity="0.25">
<path d="M998.37 630.735L973.75 653.935L332.22 1258.64L324.19 1266.21L309.53 1274.7C306.68 1276.6 303.8 1278.11 300.9 1279.28C300.76 1279.34 300.62 1279.4 300.48 1279.45C300.23 1279.36 299.98 1279.26 299.73 1279.17C297.46 1278.3 295.26 1277.27 293.13 1276.1C293.06 1276.06 292.99 1276.03 292.93 1276C292.82 1275.94 292.74 1275.9 292.7 1275.88C292.68 1275.87 292.67 1275.86 292.67 1275.86C292.02 1275.51 291.38 1275.13 290.74 1274.74C290.74 1274.74 290.733 1274.74 290.72 1274.73C289.82 1274.18 288.93 1273.61 288.06 1273.01C288.05 1273.01 288.04 1273 288.04 1272.99C285.94 1271.54 283.95 1269.94 282.07 1268.21C278.61 1265.01 275.55 1261.35 273.01 1257.29C267.97 1249.25 265 1239.65 265 1229.03V933.825C265 924.935 266.36 916.135 269 907.715C269.09 907.435 269.18 907.165 269.27 906.885C271.2 900.955 273.76 895.205 276.95 889.765C277.21 889.295 277.49 888.835 277.77 888.375L354 760.005L374 755.005L403.52 747.735L924.15 610.175L982.82 594.675C980.56 605.345 975.1 614.845 967.51 622.115C967.43 622.195 967.34 622.285 967.25 622.355L933.76 653.925C955.3 646.195 976.83 638.465 998.37 630.735Z" fill="black"/>
<path d="M332.22 1258.64C330.79 1260.44 329.68 1262.06 328.85 1263.51L324.19 1266.21L309.53 1274.7C306.68 1276.6 303.8 1278.11 300.9 1279.28C300.64 1279.2 300.39 1279.11 300.14 1279.02C295.77 1277.49 293.03 1276.05 292.7 1275.88C292.68 1275.87 292.67 1275.86 292.67 1275.86L293.15 1275.42L320.99 1250L332.21 1258.64H332.22Z" fill="black"/>
</g>
<g opacity="0.25">
<path d="M585.8 377.925C585.05 379.035 584.26 380.135 583.43 381.215C581.38 383.875 579.33 386.525 577.28 389.175C503.17 485.065 429.07 577.115 354.97 670.985C346.56 681.635 338.15 692.305 329.75 703.005H329.74C329.74 703.005 329.73 703.035 329.72 703.045C319.12 716.535 308.52 730.085 297.92 743.695C295.35 746.985 292.79 750.295 290.21 753.595C289.8 754.125 289.39 754.645 288.98 755.175C287.14 753.715 285.41 752.135 283.83 750.445C283.67 750.285 283.52 750.115 283.38 749.955C277.69 743.865 273.43 736.465 271.08 728.245C271.02 728.065 270.99 727.895 270.93 727.685C270.88 727.515 270.84 727.355 270.8 727.185C270.17 724.895 269.71 722.535 269.41 720.135C269.14 717.965 269 715.745 269 713.505V210.745C269.01 187.185 283.56 168.655 302.7 160.925C303.04 161.055 303.37 161.195 303.71 161.345C377.73 204.525 451.75 247.705 525.78 290.875C557.71 309.505 566 351.945 543.43 381.215C541.38 383.875 539.33 386.525 537.28 389.175L585.8 377.925Z" fill="black"/>
<path d="M355.74 760.365L330.93 765.865C330.93 765.865 323.02 767.835 312.36 765.915L315.74 760.365L302.81 763.235C302.64 763.165 302.47 763.105 302.3 763.025C302.29 763.035 302.29 763.025 302.29 763.025C297.93 761.275 293.41 758.755 288.98 755.175L288.65 752.445L287 739.005L329.74 703.015C329.74 703.015 329.73 703.035 329.72 703.045C328.82 704.515 306.35 741.515 333.14 755.325C333.33 755.425 333.52 755.515 333.71 755.615C339.02 758.215 346.2 759.945 355.74 760.365Z" fill="black"/>
</g>
<path d="M543.43 381.215C541.38 383.875 539.33 386.525 537.28 389.175C463.17 485.065 389.07 577.115 314.97 670.985C306.56 681.635 298.15 692.305 289.75 703.005H289.74C289.74 703.005 289.73 703.035 289.72 703.045C283.41 711.075 277.1 719.125 270.8 727.185C266.5 732.675 262.21 738.185 257.92 743.695C254.94 747.515 251.97 751.345 248.98 755.175C247.14 753.715 245.41 752.135 243.83 750.445C243.67 750.285 243.52 750.115 243.38 749.955C237.69 743.865 233.43 736.465 231.08 728.245C231.02 728.065 230.99 727.895 230.93 727.685C229.65 723.165 229 718.405 229 713.505V210.745C229.01 172.015 268.3 146.915 302.7 160.925C303.04 161.055 303.37 161.195 303.71 161.345C377.73 204.525 451.75 247.705 525.78 290.875C557.71 309.505 566 351.945 543.43 381.215Z" fill="#4A47D9"/>
<path d="M315.74 760.365L302.81 763.235L291.27 765.785L291.19 765.805L290.93 765.865C290.93 765.865 290.84 765.885 290.67 765.925C288.87 766.315 277.83 768.415 264.82 763.965C264.39 763.825 263.95 763.665 263.5 763.495C263.33 763.435 263.16 763.365 262.99 763.295C262.91 763.265 262.83 763.235 262.75 763.205C262.13 762.965 261.5 762.705 260.86 762.425C260.27 762.175 259.68 761.895 259.08 761.605C258.62 761.385 258.15 761.145 257.69 760.905C257.24 760.665 256.78 760.425 256.33 760.165C255.84 759.895 255.36 759.615 254.88 759.325C254.64 759.185 254.41 759.035 254.17 758.885C253.86 758.685 253.54 758.485 253.22 758.275C252.9 758.065 252.58 757.845 252.26 757.625C251.85 757.345 251.45 757.065 251.05 756.765C250.36 756.265 249.67 755.735 248.98 755.175L247.29 741.415L247 739.005L249.28 737.085L269.41 720.135L289.74 703.015C289.74 703.015 289.73 703.035 289.72 703.045C288.87 704.425 269.09 736.995 288.65 752.445C289.14 752.845 289.66 753.225 290.21 753.595C295.37 757.075 302.86 759.515 313.48 760.235C314.22 760.285 314.97 760.335 315.74 760.365Z" fill="#4A47D9"/>
<path d="M983.99 583.795C983.98 586.935 983.69 590.005 983.15 592.995C983.05 593.555 982.94 594.115 982.82 594.675C980.56 605.345 975.1 614.845 967.51 622.115C967.43 622.195 967.34 622.285 967.25 622.355L933.76 653.925H933.75L292.22 1258.64L282.07 1268.21L271.15 1278.5L269.3 1280.25L268.17 1281.32C260.56 1279.62 254.99 1277.03 253.24 1276.16C253.07 1276.07 252.93 1276 252.83 1275.95C252.72 1275.89 252.67 1275.86 252.67 1275.86C244.62 1271.4 237.7 1264.92 232.8 1256.95C227.89 1248.98 225 1239.5 225 1229.03V933.825C225 924.935 226.36 916.135 229 907.715C229.09 907.435 229.18 907.165 229.27 906.885C231.36 900.445 234.2 894.225 237.77 888.375L314 760.005L334 755.005L363.52 747.735L884.15 610.175L983.99 583.795Z" fill="#4A47D9"/>
<path d="M309.53 1274.7C306.68 1276.6 303.8 1278.11 300.9 1279.28C300.76 1279.34 300.62 1279.4 300.48 1279.45C288.78 1284.08 277.07 1283.31 268.17 1281.32C260.56 1279.62 254.99 1277.03 253.24 1276.16C253.07 1276.07 252.93 1276 252.83 1275.95C252.72 1275.89 252.67 1275.86 252.67 1275.86L254.69 1274.01L273.01 1257.29L281 1250L292.22 1258.64C286.23 1266.18 285.82 1270.55 288.04 1272.99C288.04 1273 288.05 1273.01 288.06 1273.01C288.73 1273.75 289.65 1274.31 290.72 1274.73C290.72 1274.73 290.727 1274.74 290.74 1274.74C291.48 1275.03 292.29 1275.25 293.15 1275.42C299.88 1276.73 309.52 1274.7 309.52 1274.7H309.53Z" fill="#4A47D9"/>
<path d="M914 602.005C925.38 599.735 936.85 603.095 943 611.005C951.82 622.355 949.2 642.395 933.76 653.925L967.25 622.355C970.77 619.155 977.13 612.495 981 602.005C985.76 589.105 984.01 577.855 983 573.155L936 594.005C928.67 596.675 921.33 599.335 914 602.005Z" fill="#2A2F63"/>
<path d="M309.19 759.835C309.19 759.835 313 760.005 314 760.005L313.49 760.865L309.19 759.835Z" fill="#5F61DD"/>
<path opacity="0.4" d="M304.33 776.285L925.47 613.545C925.47 613.545 941.05 611.555 947.53 621.275C947.53 621.275 946.13 612.395 938.57 606.695C938.57 606.695 930.9 600.125 916.45 601.565L673.09 665.945L345.31 752.225L314 760.005L304.33 776.285Z" fill="black"/>
</svg>
