<svg width="100" height="100" viewBox="0 0 100 100" fill="none" xmlns="http://www.w3.org/2000/svg">
<g clip-path="url(#clip0_602_21)">
<path d="M23.7367 93.2818C24.9025 92.5622 25.9107 91.6214 26.7022 90.5144C27.4937 89.4076 28.0527 88.1567 28.3466 86.835C29.5435 81.7784 32.7287 77.393 37.2061 74.6368C41.6837 71.8808 47.0895 70.9782 52.2421 72.1263C54.2337 72.5677 56.3135 72.4212 58.2206 71.7049C60.1276 70.9886 61.7767 69.7347 62.9608 68.1005C64.1448 66.4663 64.811 64.5247 64.8758 62.5196C64.9405 60.5146 64.4009 58.5356 63.3247 56.8309C62.2484 55.1262 60.6837 53.772 58.8267 52.9383C56.9697 52.1047 54.9035 51.8287 52.8875 52.1452C50.8715 52.4616 48.9955 53.3564 47.4953 54.717C45.9951 56.0776 44.9375 57.8435 44.4554 59.7927C43.8765 62.3145 42.7967 64.6992 41.278 66.8102C39.7594 68.9211 37.8316 70.7168 35.6054 72.0943C33.379 73.4718 30.8979 74.404 28.3042 74.8374C25.7106 75.2709 23.0553 75.1971 20.4907 74.6204C18.8374 74.2788 17.1242 74.3396 15.5004 74.7977C13.8767 75.2559 12.3916 76.0973 11.1744 77.2486C9.95742 78.4 9.04538 79.8262 8.51788 81.4032C7.99037 82.9803 7.8635 84.66 8.14806 86.2963C8.43262 87.9327 9.12024 89.4757 10.1508 90.7911C11.1814 92.1064 12.5237 93.1541 14.0608 93.8429C15.598 94.5317 17.2831 94.8407 18.9696 94.7429C20.6561 94.6451 22.2927 94.1436 23.7367 93.2818Z" fill="white" fill-opacity="0.94"/>
<path d="M35.2357 30.6974C34.2468 32.4781 33.8218 34.5084 34.0154 36.528C34.209 38.5477 35.0123 40.4643 36.3222 42.0322C37.6322 43.6002 39.389 44.7478 41.3672 45.3277C43.3456 45.9077 45.4551 45.8936 47.4252 45.2873C49.9374 44.5188 52.5791 44.245 55.1992 44.4818C57.8192 44.7185 60.3659 45.4608 62.6932 46.6666C65.0206 47.8723 67.0829 49.5176 68.762 51.508C70.4411 53.4984 71.7036 55.7948 72.4776 58.2656C73.0885 60.182 74.2626 61.8778 75.8521 63.14C77.4416 64.4022 79.3756 65.1742 81.4106 65.3588C83.4457 65.5435 85.4909 65.1327 87.2887 64.1779C89.0866 63.2232 90.557 61.7672 91.5147 59.9933C92.4724 58.2193 92.8748 56.2067 92.6711 54.2087C92.4675 52.2105 91.667 50.3162 90.3701 48.7641C89.0734 47.212 87.3384 46.0715 85.3835 45.486C83.4287 44.9006 81.3412 44.8964 79.3839 45.4739C74.3309 46.99 68.8722 46.4773 64.2029 44.0482C59.5337 41.619 56.0339 37.4713 54.4697 32.5127C53.8919 30.5552 52.7296 28.8131 51.1329 27.512C49.5361 26.211 47.5787 25.4108 45.5141 25.2152C43.4494 25.0197 41.3724 25.4377 39.5523 26.4152C37.732 27.3926 36.2524 28.8844 35.3048 30.6974H35.2357Z" fill="white" fill-opacity="0.94"/>
<path d="M36.9279 56.8916C36.8795 55.5382 36.5568 54.2079 35.9786 52.9786C35.4005 51.7492 34.5787 50.6456 33.561 49.7322C29.7039 46.1888 27.4315 41.2889 27.2405 36.1039C27.0496 30.9188 28.9559 25.8703 32.5424 22.0622C33.4819 21.0783 34.2131 19.9208 34.6932 18.6567C35.1734 17.3928 35.393 16.0477 35.3394 14.6995C35.2597 13.04 34.7678 11.4249 33.9068 9.99516C33.0458 8.56534 31.8417 7.36452 30.3997 6.49727C28.9576 5.6299 27.3215 5.12267 25.634 5.01958C23.9465 4.91661 22.259 5.2209 20.7187 5.90614C19.1786 6.59139 17.8324 7.63652 16.7979 8.95053C15.7633 10.2645 15.0719 11.8073 14.7837 13.4443C14.4956 15.0813 14.6196 16.7628 15.1449 18.3418C15.6703 19.921 16.5809 21.3497 17.7976 22.5033C19.7312 24.2582 21.2936 26.3707 22.395 28.7197C23.4965 31.0689 24.1156 33.6084 24.2166 36.1929C24.3175 38.7775 23.8988 41.3562 22.9839 43.7815C22.069 46.2067 20.6763 48.4307 18.8853 50.3261C17.7505 51.5601 16.9408 53.0485 16.527 54.6611C16.113 56.2738 16.1076 57.9614 16.511 59.5766C16.9144 61.1917 17.7145 62.685 18.8412 63.9261C19.9678 65.1672 21.3869 66.1181 22.9742 66.6958C24.5614 67.2733 26.2684 67.4599 27.946 67.2394C29.6236 67.0187 31.2206 66.3976 32.5974 65.4301C33.9742 64.4628 35.0887 63.1788 35.8437 61.6903C36.5985 60.2017 36.9709 58.5541 36.9279 56.8916Z" fill="white" fill-opacity="0.94"/>
</g>
<defs>
<clipPath id="clip0_602_21">
<rect width="85" height="91" fill="white" transform="translate(8 5)"/>
</clipPath>
</defs>
</svg>
